<svg width="122" height="48" viewBox="0 0 122 48" fill="none" xmlns="http://www.w3.org/2000/svg">
<path d="M119.938 37.2V38.4L117.717 36.45H118.668V30.9H106.294C105.977 30.75 105.818 30.6 105.501 30.45H114.226C118.192 29.85 121.048 24.15 121.048 17.25C121.048 10.2 118.034 4.65 114.226 4.05V0.75H42.2003V3.9C38.2341 4.5 35.3784 10.2 35.3784 17.1C35.3784 24.6 38.71 30.45 42.9935 30.45H74.723C74.4057 30.6 74.2471 30.75 73.9298 30.9H33.6333C32.6814 29.25 31.2536 27.75 29.6671 26.7H29.8257V0H15.8648C9.20156 0 5.55267 1.35 4.75943 4.2C4.28349 5.1 3.96619 6.45 3.49025 7.95C1.90377 12.6 0 18.6 0 21.6V30.75H0.793238L0 33.15V40.5L6.02861 42H12.8505L13.1678 41.85C13.485 41.7 13.6437 41.4 13.961 41.25H14.1196C14.4369 42.9 15.3888 44.4 16.4993 45.45C18.0858 46.95 20.3069 47.85 22.8453 47.85C25.225 47.85 27.446 46.95 29.1912 45.45C30.3017 44.4 31.0949 43.2 31.4122 41.7H34.9025V40.5H38.2341V38.25H39.0273V38.4C39.0273 39.6 39.9792 40.5 41.2484 40.5C42.2003 40.5 42.9935 39.9 43.3108 39.15H46.0078C46.3251 39.9 47.1183 40.5 48.0702 40.5C49.3394 40.5 50.2913 39.6 50.2913 38.4V38.25H51.5605V39C51.5605 39.9 52.3537 40.65 53.3056 40.65H65.3628C66.3147 40.65 67.1079 39.9 67.1079 39V36.45H69.6463C69.329 37.5 69.1703 38.55 69.1703 39.6V40.5H71.2328C71.3914 42.45 72.3433 44.25 73.7711 45.6C75.3576 47.1 77.5787 48 80.117 48C82.6554 48 84.7178 47.1 86.4629 45.6C87.8908 44.25 88.8427 42.45 89.0013 40.5H91.381C91.5397 42.45 92.4916 44.25 93.9194 45.6C95.5059 47.1 97.7269 48 100.265 48C102.645 48 104.866 47.1 106.453 45.6C107.88 44.25 108.832 42.45 108.991 40.5H111.053V39.75C111.053 39.3 111.053 38.85 110.895 38.25H116.289L120.096 40.65V42H122V37.2H119.938ZM42.8349 29.1C39.5033 29.1 36.6476 23.7 36.6476 17.25C36.6476 10.8 39.5033 5.4 42.8349 5.4H113.274C116.606 5.4 119.462 10.8 119.462 17.25C119.462 23.25 117.082 28.35 114.068 29.1V26.7H60.6034V29.25H42.8349V29.1ZM62.0312 28.05H112.64V29.1H62.0312V28.05ZM85.3524 30.45H94.554C94.2367 30.6 94.078 30.75 93.7607 30.9H86.1456C85.987 30.75 85.6697 30.6 85.3524 30.45ZM15.8648 1.65H28.2393V25.95C26.9701 25.5 25.7009 25.2 24.4317 25.2H22.6866C16.658 25.2 11.1053 29.85 9.9948 35.1H4.12484V33.15H1.74512L3.17295 29.25H1.74512V27.6H3.0143V22.2H1.74512V21.6C1.74512 20.85 1.90377 20.1 2.06242 19.05C3.3316 18.75 4.28349 18.6 4.28349 18.6L7.29779 5.55H6.02861C6.02861 5.25 6.18726 4.95 6.3459 4.65C6.82185 2.7 10.3121 1.65 15.8648 1.65ZM4.12484 36.15H9.6775C9.6775 36.3 9.6775 36.6 9.6775 36.75V37.65H4.12484V36.15ZM1.74512 39.3V38.7H9.6775V40.5H6.18726L1.74512 39.3ZM22.6866 43.65C20.3069 43.65 18.4031 41.85 18.4031 39.6C18.4031 37.35 20.3069 35.55 22.6866 35.55C25.0663 35.55 26.9701 37.35 26.9701 39.6C26.9701 41.85 25.0663 43.65 22.6866 43.65ZM33.6333 40.8H32.2055V36.9C32.2055 32.4 28.3979 28.8 23.6385 28.8H22.052C16.4993 28.8 11.8986 33.15 11.8986 38.4V40.5H10.788V36.75C10.788 31.5 16.658 26.25 22.528 26.25H24.2731C28.7152 26.25 32.9987 30 33.6333 34.2C33.6333 34.35 33.6333 34.65 33.6333 34.8V40.5V40.8ZM79.9584 43.65C77.5787 43.65 75.6749 41.85 75.6749 39.6C75.6749 38.25 76.3095 37.05 77.42 36.3C77.5787 36.3 77.5787 36.15 77.7373 36.15C77.896 36 78.0546 36 78.2133 36C78.3719 36 78.3719 35.85 78.5306 35.85C78.6892 35.85 78.8479 35.7 79.0065 35.7C79.1651 35.7 79.1652 35.7 79.3238 35.7C79.6411 35.7 79.7997 35.55 80.117 35.55C80.4343 35.55 80.593 35.55 80.9103 35.7C81.0689 35.7 81.0689 35.7 81.2276 35.7C81.3862 35.7 81.5449 35.85 81.7035 35.85C81.8622 35.85 81.8622 36 82.0208 36C82.1795 36 82.3381 36.15 82.4968 36.15C82.6554 36.15 82.6554 36.3 82.814 36.3C83.9246 37.05 84.5592 38.25 84.5592 39.6C84.4005 41.85 82.3381 43.65 79.9584 43.65ZM99.948 43.65C97.5683 43.65 95.6645 41.85 95.6645 39.6C95.6645 38.25 96.2991 37.05 97.4096 36.3C97.4096 36.3 97.5683 36.15 97.7269 36.15C97.8856 36 98.0442 36 98.2029 36C98.3615 36 98.3615 35.85 98.5202 35.85C98.6788 35.85 98.8375 35.7 98.9961 35.7C99.1548 35.7 99.1547 35.7 99.3134 35.7C99.6307 35.7 99.7893 35.55 100.107 35.55C100.424 35.55 100.583 35.55 100.9 35.7C101.059 35.7 101.059 35.7 101.217 35.7C101.376 35.7 101.534 35.85 101.693 35.85C101.852 35.85 101.852 36 102.01 36C102.169 36 102.328 36.15 102.486 36.15C102.645 36.15 102.645 36.3 102.804 36.3C103.914 37.05 104.549 38.25 104.549 39.6C104.231 41.85 102.328 43.65 99.948 43.65ZM25.0663 39.6C25.0663 40.8 23.9558 41.85 22.6866 41.85C21.4174 41.85 20.3069 40.8 20.3069 39.6C20.3069 38.4 21.4174 37.35 22.6866 37.35C23.9558 37.35 25.0663 38.4 25.0663 39.6ZM16.9753 22.35H20.6242V23.4H16.9753V22.35ZM7.61508 15V7.8C7.61508 7.35 7.93238 7.05 8.40832 7.05H8.88427C9.36021 7.05 9.6775 7.35 9.6775 7.8V15C9.6775 15.45 9.36021 15.75 8.88427 15.75H8.40832C7.93238 15.75 7.61508 15.45 7.61508 15ZM19.0377 16.05L7.13914 18L7.45644 16.35C7.77373 16.5 8.09103 16.65 8.40832 16.65H8.88427C9.83615 16.65 10.6294 15.9 10.6294 15V7.8C10.6294 7.5 10.4707 7.2 10.4707 7.05H20.4655V14.55C20.4655 15.3 19.8309 15.9 19.0377 16.05ZM82.3381 39.6C82.3381 40.8 81.2276 41.85 79.9584 41.85C78.6892 41.85 77.5787 40.8 77.5787 39.6C77.5787 38.4 78.6892 37.35 79.9584 37.35C81.3862 37.35 82.3381 38.4 82.3381 39.6ZM102.328 39.6C102.328 40.8 101.217 41.85 99.948 41.85C98.6788 41.85 97.5683 40.8 97.5683 39.6C97.5683 38.4 98.6788 37.35 99.948 37.35C101.217 37.35 102.328 38.4 102.328 39.6ZM59.8101 9.3V10.65H58.2237V9.3H48.2289V10.65H47.277V9.3H44.58C43.9454 9.3 43.4694 8.85 43.4694 8.25C43.4694 7.65 43.9454 7.2 44.58 7.2H111.688C112.323 7.2 112.798 7.65 112.798 8.25C112.798 8.85 112.323 9.3 111.688 9.3H105.342V10.65H104.39V9.3H93.9194V10.65H92.9675V9.3H82.9727V10.65H81.3862V9.3H71.3914V10.65H69.8049V9.3H59.8101Z" fill="#EA725D"/>
</svg>
