<svg width="177" height="48" viewBox="0 0 177 48" fill="none" xmlns="http://www.w3.org/2000/svg">
<path d="M128.89 40.2C128.89 41.4 128.066 42.3 126.968 42.3C125.87 42.3 125.046 41.4 125.046 40.2C125.046 39 125.87 38.1 126.968 38.1C127.929 38.1 128.89 39.15 128.89 40.2ZM141.519 38.1C140.421 38.1 139.597 39 139.597 40.2C139.597 41.4 140.421 42.3 141.519 42.3C142.618 42.3 143.441 41.4 143.441 40.2C143.441 39.15 142.618 38.1 141.519 38.1ZM156.345 38.1C155.247 38.1 154.423 39 154.423 40.2C154.423 41.4 155.247 42.3 156.345 42.3C157.443 42.3 158.267 41.4 158.267 40.2C158.13 39.15 157.306 38.1 156.345 38.1ZM129.714 29.4H176.25V33.3H173.504V34.95H163.758C164.582 36.45 164.993 38.4 164.993 40.2V40.95H163.346C163.209 42.75 162.385 44.4 161.287 45.6C160.052 46.95 158.13 47.85 156.345 47.85C154.56 47.85 152.639 46.95 151.403 45.6C150.305 44.4 149.481 42.6 149.344 40.95H148.658C148.52 42.75 147.697 44.4 146.599 45.6C145.363 46.95 143.441 47.85 141.657 47.85C139.872 47.85 137.95 46.95 136.715 45.6C135.617 44.4 134.793 42.6 134.656 40.95H134.106C133.969 42.75 133.146 44.4 132.047 45.6C130.812 46.95 128.89 47.85 127.105 47.85C125.321 47.85 123.399 46.95 122.164 45.6C121.065 44.4 120.242 42.6 120.104 40.95H118.32V40.2C118.32 38.25 118.732 36.45 119.555 34.95H109.122V34.35H97.5913V34.2L94.8457 32.25V33.15H94.4339V47.55H95.5321V48H92.1002V47.55H93.1984V33.15H92.7866V31.95H41.8575V28.95L129.714 29.4ZM130.4 40.2C130.4 38.1 128.89 36.45 126.968 36.45C125.046 36.45 123.536 38.1 123.536 40.2C123.536 42.3 125.046 43.95 126.968 43.95C128.89 43.95 130.4 42.3 130.4 40.2ZM145.088 40.2C145.088 38.1 143.578 36.45 141.657 36.45C139.735 36.45 138.225 38.1 138.225 40.2C138.225 42.3 139.735 43.95 141.657 43.95C143.441 44.1 145.088 42.3 145.088 40.2ZM159.64 40.2C159.64 38.1 158.13 36.45 156.208 36.45C154.286 36.45 152.776 38.1 152.776 40.2C152.776 42.3 154.286 43.95 156.208 43.95C158.13 43.95 159.64 42.3 159.64 40.2ZM60.9388 26.85L56.6832 22.2H41.8575V28.8H60.9388V26.85ZM53.3886 12.3H45.5639V21.45H52.565C52.565 21.45 53.3886 12.3 53.3886 12.3ZM52.565 0H45.5639V11.85H53.3886L52.565 0ZM45.0148 15.15H41.8575V21.45H45.0148V15.15ZM157.169 26.85V28.8H176.25V22.2H161.424L157.169 26.85ZM172.406 21.45V12.3H164.582L165.405 21.45C165.405 21.45 172.406 21.45 172.406 21.45ZM172.406 0H165.405L164.582 11.85H172.406C172.406 11.85 172.406 0 172.406 0ZM172.955 15.15V21.45H176.113V15.15H172.955Z" fill="#EA725D"/>
<path d="M74.1476 34.243H70.9437C70.6385 33.7944 70.1808 33.4953 69.7231 33.0467C69.5706 33.0467 69.5706 32.8972 69.418 32.8972L69.2654 32.7477C69.1129 32.7477 69.1129 32.5981 68.9603 32.5981C68.6552 32.4486 68.5026 32.2991 68.1975 32.2991C68.0449 32.2991 67.8923 32.1495 67.8923 32.1495C67.5872 32 67.1295 31.8505 66.8244 31.8505C66.6718 31.8505 66.6718 31.8505 66.5192 31.8505C66.2141 31.7009 65.909 31.7009 65.6038 31.5514C65.4513 31.5514 65.2987 31.5514 65.2987 31.5514C64.841 31.5514 64.5359 31.4019 64.0782 31.4019C63.6205 31.4019 63.1628 31.4019 62.8576 31.5514C62.7051 31.5514 62.5525 31.5514 62.5525 31.5514C62.2474 31.5514 61.7897 31.7009 61.4845 31.8505C61.332 31.8505 61.332 31.8505 61.1794 31.8505C60.8743 32 60.4166 32.1495 60.1114 32.1495C59.9589 32.1495 59.8063 32.2991 59.8063 32.2991C59.5012 32.4486 59.3486 32.5981 59.0435 32.5981C59.0435 32.5981 59.0434 32.5981 58.8909 32.5981H53.3985V31.8505C55.687 31.8505 56.1447 32.4486 56.1447 32.4486L57.3652 31.7009C57.3652 31.7009 56.6024 30.5047 53.2459 30.5047H42.4136V31.8505H45.0073V32.5981H30.2083V31.1028L31.5814 30.0561V29.6075C31.5814 24.2243 31.5814 17.4953 30.9711 10.3178C30.666 6.42991 30.2083 2.54206 29.7506 0.448598L29.598 0L22.4274 1.34579L12.5105 2.09346C8.54375 2.54206 5.79755 3.43925 4.72958 6.8785C4.57701 7.92523 4.11931 8.97196 3.81418 10.3178C2.13594 15.4019 0 22.2804 0 24.972V32.8972H0.762835L0 34.9907V41.4206L5.18728 42.7664H12.0528C12.3579 43.9626 13.1208 44.8598 13.8836 45.757C15.2567 47.1028 17.0875 47.8505 19.0709 47.8505C21.2068 47.8505 23.0376 47.1028 24.2582 45.757C25.021 45.0093 25.7838 43.9626 26.089 42.7664H56.9075C57.3652 44.1122 58.128 45.4579 59.3486 46.3551C60.5691 47.4019 62.2474 48 63.9256 48C66.0615 48 67.8923 47.2523 69.1129 45.9065C69.418 45.6075 69.7231 45.3084 69.8757 45.0093C69.8757 45.0093 69.8757 45.0093 69.8757 44.8598C70.3334 44.2617 70.6385 43.6636 70.9437 42.7664C71.0962 42.3178 71.2488 41.8692 71.2488 41.271H72.9271V40.3738C72.9271 39.9252 72.9271 39.3271 72.7745 38.8785H73.995L74.1476 34.243ZM3.50904 37.5327H8.08605C8.08605 37.8318 8.08605 37.8318 8.08605 38.1308V38.8785H3.50904V37.5327ZM27.1569 41.271V38.1308C27.1569 34.243 23.953 30.9533 19.8337 30.9533H18.6132C13.8836 30.9533 10.0694 34.6916 10.0694 39.3271V41.271H9.00146V38.1308C9.00146 33.4953 13.8836 28.8598 18.9183 28.8598H20.444C24.5633 28.8598 28.3775 32.5981 28.3775 36.6355V41.271C27.9198 41.271 27.4621 41.271 27.1569 41.271ZM12.6631 3.58879L22.5799 2.84112L28.53 1.64486C28.9877 4.03738 29.2929 8.37383 29.598 10.4673C30.2083 17.4953 30.2083 24.2243 30.2083 29.6075L28.53 30.8037L27.1569 31.4019C25.4787 29.3084 23.0376 28.1121 20.2914 28.1121H18.7657C13.731 28.1121 9.00146 32.1495 8.08605 36.785H3.50904V35.1402H1.52567L2.74621 31.7009H1.3731V30.2056H2.59364V25.5701H1.3731V25.1215C1.3731 24.5234 1.52567 23.7757 1.67824 22.8785C2.74621 22.4299 3.35648 22.2804 3.35648 22.2804L5.79755 11.0654H26.2415V10.1682H5.33985C5.64498 9.1215 5.95012 8.2243 6.10268 7.47664C7.01808 4.93458 8.54376 4.03738 12.6631 3.58879ZM1.3731 40.3738V39.9252H8.08605V41.4206H5.18728L1.3731 40.3738ZM19.0709 44.1121C17.0875 44.1121 15.4093 42.4673 15.4093 40.5234C15.4093 38.5794 17.0875 36.9346 19.0709 36.9346C21.0543 36.9346 22.7325 38.5794 22.7325 40.5234C22.7325 42.4673 21.0543 44.1121 19.0709 44.1121ZM29.2929 41.271V36.6355C29.2929 35.8879 29.1403 34.9907 28.9877 34.243H57.3652C57.0601 34.5421 56.7549 34.9907 56.4498 35.4393C55.5344 36.9346 55.0767 38.5794 55.0767 40.5234V41.271C52.4831 41.4206 36.311 41.4206 29.2929 41.271ZM64.0782 44.1121C62.0948 44.1121 60.4166 42.4673 60.4166 40.5234C60.4166 38.5794 62.0948 36.9346 64.0782 36.9346C66.0615 36.9346 67.7398 38.5794 67.7398 40.5234C67.7398 42.4673 66.0615 44.1121 64.0782 44.1121ZM14.3413 25.4206H17.5452V26.3178H14.3413V25.4206ZM38.2943 37.5327H34.3276C34.0225 37.5327 34.0225 37.3832 33.8699 37.2336L33.5648 36.1869C33.5648 36.0374 33.5648 35.8879 33.7173 35.7383C33.8699 35.5888 34.0225 35.4393 34.0225 35.4393H37.9892C38.2943 35.4393 38.2943 35.5888 38.4469 35.7383L38.752 36.785C38.752 36.9346 38.752 37.0841 38.5995 37.2336C38.5995 37.3832 38.4469 37.5327 38.2943 37.5327ZM39.82 39.4766C39.82 39.6262 39.82 39.7757 39.6674 39.9252C39.5149 40.0748 39.3623 40.2243 39.3623 40.2243H35.3956C35.0904 40.2243 35.0904 40.0748 34.9379 39.9252L34.6327 38.8785C34.6327 38.729 34.6327 38.5794 34.7853 38.4299C34.9379 38.2804 35.0904 38.1308 35.0904 38.1308H39.0572C39.3623 38.1308 39.3623 38.2804 39.5149 38.4299L39.82 39.4766ZM6.40782 18.9907V12.7103C6.40782 12.4112 6.71295 11.9626 7.17065 11.9626H7.47579C7.78092 11.9626 8.23862 12.2617 8.23862 12.7103V18.9907C8.23862 19.2897 7.93349 19.7383 7.47579 19.7383H7.01808C6.56038 19.7383 6.40782 19.4393 6.40782 18.9907ZM15.867 20.0374L6.10268 21.6822L6.40782 20.1869C6.71295 20.486 6.86552 20.486 7.17065 20.486H7.47579C8.23862 20.486 8.84889 19.8879 8.84889 19.1402V12.8598C8.84889 12.5607 8.69632 12.4112 8.54375 12.1122H17.0875V18.5421C17.2401 19.2897 16.6298 19.8879 15.867 20.0374ZM66.0615 40.5234C66.0615 41.5701 65.1461 42.4673 64.0782 42.4673C63.0102 42.4673 62.0948 41.5701 62.0948 40.5234C62.0948 39.4766 63.0102 38.5794 64.0782 38.5794C65.1461 38.5794 66.0615 39.4766 66.0615 40.5234ZM21.0543 40.5234C21.0543 41.5701 20.1389 42.4673 19.0709 42.4673C18.0029 42.4673 17.0875 41.5701 17.0875 40.5234C17.0875 39.4766 18.0029 38.5794 19.0709 38.5794C20.2914 38.5794 21.0543 39.4766 21.0543 40.5234Z" fill="#EA725D"/>
</svg>
