<svg width="160" height="48" viewBox="0 0 160 48" fill="none" xmlns="http://www.w3.org/2000/svg">
<path d="M117.007 41.3023C117.007 42.3327 116.259 43.1055 115.262 43.1055C114.265 43.1055 113.517 42.3327 113.517 41.3023C113.517 40.2719 114.265 39.4991 115.262 39.4991C116.134 39.4991 117.007 40.4007 117.007 41.3023ZM128.471 39.4991C127.475 39.4991 126.727 40.2719 126.727 41.3023C126.727 42.3327 127.475 43.1055 128.471 43.1055C129.468 43.1055 130.216 42.3327 130.216 41.3023C130.216 40.4007 129.468 39.4991 128.471 39.4991ZM141.93 39.4991C140.933 39.4991 140.186 40.2719 140.186 41.3023C140.186 42.3327 140.933 43.1055 141.93 43.1055C142.927 43.1055 143.675 42.3327 143.675 41.3023C143.55 40.4007 142.803 39.4991 141.93 39.4991ZM117.754 32.0286H160V35.3775H157.508V36.7943H148.66C149.407 38.0823 149.781 39.7567 149.781 41.3023V41.9463H148.286C148.161 43.4919 147.414 44.9088 146.417 45.9392C145.295 47.0984 143.55 47.8712 141.93 47.8712C140.31 47.8712 138.566 47.0984 137.444 45.9392C136.447 44.9088 135.699 43.3631 135.575 41.9463H134.952C134.827 43.4919 134.079 44.9088 133.082 45.9392C131.961 47.0984 130.216 47.8712 128.596 47.8712C126.976 47.8712 125.231 47.0984 124.11 45.9392C123.113 44.9088 122.365 43.3631 122.241 41.9463H121.742C121.617 43.4919 120.87 44.9088 119.873 45.9392C118.751 47.0984 117.007 47.8712 115.387 47.8712C113.766 47.8712 112.022 47.0984 110.9 45.9392C109.903 44.9088 109.156 43.3631 109.031 41.9463H107.411V41.3023C107.411 39.6279 107.785 38.0823 108.532 36.7943H99.0615V36.2791H88.5935V36.1503L86.1011 34.4759V35.2487H85.7273V47.6136H86.7242V48H83.6088V47.6136H84.6057V35.2487H84.2318V34.2182H37.9983V31.6422L117.754 32.0286ZM118.377 41.3023C118.377 39.4991 117.007 38.0823 115.262 38.0823C113.517 38.0823 112.146 39.4991 112.146 41.3023C112.146 43.1055 113.517 44.5224 115.262 44.5224C117.007 44.5224 118.377 43.1055 118.377 41.3023ZM131.712 41.3023C131.712 39.4991 130.341 38.0823 128.596 38.0823C126.851 38.0823 125.481 39.4991 125.481 41.3023C125.481 43.1055 126.851 44.5224 128.596 44.5224C130.216 44.6512 131.712 43.1055 131.712 41.3023ZM144.921 41.3023C144.921 39.4991 143.55 38.0823 141.806 38.0823C140.061 38.0823 138.69 39.4991 138.69 41.3023C138.69 43.1055 140.061 44.5224 141.806 44.5224C143.55 44.5224 144.921 43.1055 144.921 41.3023ZM55.3203 29.839L51.4571 25.8462H37.9983V31.5134H55.3203V29.839ZM48.4663 17.3453H41.363V25.2021H47.7186C47.7186 25.2021 48.4663 17.3453 48.4663 17.3453ZM47.7186 6.78355H41.363V16.9589H48.4663L47.7186 6.78355ZM40.8646 19.7925H37.9983V25.2021H40.8646V19.7925ZM142.678 29.839V31.5134H160V25.8462H146.541L142.678 29.839ZM156.511 25.2021V17.3453H149.407L150.155 25.2021C150.155 25.2021 156.511 25.2021 156.511 25.2021ZM156.511 6.78355H150.155L149.407 16.9589H156.511C156.511 16.9589 156.511 6.78355 156.511 6.78355ZM157.009 19.7925V25.2021H159.875V19.7925H157.009Z" fill="#EA725D"/>
<path d="M67.3113 36.1872H64.4028C64.1258 35.802 63.7103 35.5452 63.2948 35.16C63.1563 35.16 63.1563 35.0316 63.0178 35.0316L62.8793 34.9032C62.7408 34.9032 62.7408 34.7748 62.6023 34.7748C62.3253 34.6464 62.1868 34.518 61.9098 34.518C61.7713 34.518 61.6328 34.3896 61.6328 34.3896C61.3558 34.2612 60.9403 34.1328 60.6633 34.1328C60.5248 34.1328 60.5248 34.1328 60.3863 34.1328C60.1093 34.0044 59.8323 34.0044 59.5553 33.876C59.4168 33.876 59.2783 33.876 59.2783 33.876C58.8628 33.876 58.5858 33.7476 58.1703 33.7476C57.7548 33.7476 57.3393 33.7476 57.0623 33.876C56.9238 33.876 56.7853 33.876 56.7853 33.876C56.5083 33.876 56.0928 34.0044 55.8158 34.1328C55.6773 34.1328 55.6773 34.1328 55.5388 34.1328C55.2618 34.2612 54.8463 34.3896 54.5693 34.3896C54.4308 34.3896 54.2923 34.518 54.2923 34.518C54.0153 34.6464 53.8768 34.7748 53.5998 34.7748C53.5998 34.7748 53.5998 34.7748 53.4613 34.7748H48.4752V34.1328C50.5527 34.1328 50.9682 34.6464 50.9682 34.6464L52.0763 34.0044C52.0763 34.0044 51.3838 32.9772 48.3367 32.9772H38.5032V34.1328H40.8577V34.7748H27.4231V33.4908L28.6696 32.592V32.2068C28.6696 27.5844 28.6696 21.8064 28.1156 15.6432C27.8386 12.3048 27.4231 8.96635 27.0076 7.16875L26.8691 6.78355L20.3596 7.93915L11.3571 8.58115C7.75604 8.96635 5.26303 9.73675 4.29352 12.69C4.15502 13.5888 3.73952 14.4876 3.46252 15.6432C1.93901 20.0088 0 25.9152 0 28.2264V35.0316H0.692503L0 36.8292V42.3504L4.70902 43.506H10.9416C11.2186 44.5332 11.9111 45.3036 12.6036 46.074C13.8501 47.2296 15.5121 47.8716 17.3126 47.8716C19.2516 47.8716 20.9136 47.2296 22.0216 46.074C22.7141 45.432 23.4066 44.5332 23.6836 43.506H51.6608C52.0763 44.6616 52.7688 45.8172 53.8768 46.5876C54.9848 47.4864 56.5083 48 58.0318 48C59.9708 48 61.6328 47.358 62.7408 46.2024C63.0178 45.9456 63.2948 45.6888 63.4333 45.432C63.4333 45.432 63.4333 45.432 63.4333 45.3036C63.8488 44.79 64.1258 44.2764 64.4028 43.506C64.5413 43.1208 64.6798 42.7356 64.6798 42.222H66.2033V41.4516C66.2033 41.0664 66.2033 40.5528 66.0648 40.1676H67.1728L67.3113 36.1872ZM3.18552 39.012H7.34054C7.34054 39.2688 7.34054 39.2688 7.34054 39.5256V40.1676H3.18552V39.012ZM24.6531 42.222V39.5256C24.6531 36.1872 21.7446 33.3624 18.0051 33.3624H16.8971C12.6036 33.3624 9.14104 36.5724 9.14104 40.5528V42.222H8.17154V39.5256C8.17154 35.5452 12.6036 31.5648 17.1741 31.5648H18.5591C22.2986 31.5648 25.7611 34.7748 25.7611 38.2416V42.222C25.3456 42.222 24.9301 42.222 24.6531 42.222ZM11.4956 9.86515L20.4981 9.22315L25.8996 8.19595C26.3151 10.2504 26.5921 13.974 26.8691 15.7716C27.4231 21.8064 27.4231 27.5844 27.4231 32.2068L25.8996 33.234L24.6531 33.7476C23.1296 31.95 20.9136 30.9228 18.4206 30.9228H17.0356C12.4651 30.9228 8.17154 34.3896 7.34054 38.37H3.18552V36.9576H1.38501L2.49301 34.0044H1.24651V32.7204H2.35451V28.74H1.24651V28.3548C1.24651 27.8412 1.38501 27.1992 1.52351 26.4288C2.49301 26.0436 3.04701 25.9152 3.04701 25.9152L5.26303 16.2852H23.8221V15.5148H4.84752C5.12453 14.616 5.40153 13.8456 5.54003 13.2036C6.37103 11.0208 7.75604 10.2504 11.4956 9.86515ZM1.24651 41.4516V41.0664H7.34054V42.3504H4.70902L1.24651 41.4516ZM17.3126 44.6616C15.5121 44.6616 13.9886 43.2492 13.9886 41.58C13.9886 39.9108 15.5121 38.4984 17.3126 38.4984C19.1131 38.4984 20.6366 39.9108 20.6366 41.58C20.6366 43.2492 19.1131 44.6616 17.3126 44.6616ZM26.5921 42.222V38.2416C26.5921 37.5996 26.4536 36.8292 26.3151 36.1872H52.0763C51.7993 36.444 51.5223 36.8292 51.2453 37.2144C50.4142 38.4984 49.9987 39.9108 49.9987 41.58V42.222C47.6442 42.3504 32.9632 42.3504 26.5921 42.222ZM58.1703 44.6616C56.3698 44.6616 54.8463 43.2492 54.8463 41.58C54.8463 39.9108 56.3698 38.4984 58.1703 38.4984C59.9708 38.4984 61.4943 39.9108 61.4943 41.58C61.4943 43.2492 59.9708 44.6616 58.1703 44.6616ZM13.0191 28.6116H15.9276V29.382H13.0191V28.6116ZM34.7637 39.012H31.1627C30.8857 39.012 30.8857 38.8836 30.7472 38.7552L30.4701 37.8564C30.4701 37.728 30.4701 37.5996 30.6087 37.4712C30.7472 37.3428 30.8857 37.2144 30.8857 37.2144H34.4867C34.7637 37.2144 34.7637 37.3428 34.9022 37.4712L35.1792 38.37C35.1792 38.4984 35.1792 38.6268 35.0407 38.7552C35.0407 38.8836 34.9022 39.012 34.7637 39.012ZM36.1487 40.6812C36.1487 40.8096 36.1487 40.938 36.0102 41.0664C35.8717 41.1948 35.7332 41.3232 35.7332 41.3232H32.1322C31.8552 41.3232 31.8552 41.1948 31.7167 41.0664L31.4397 40.1676C31.4397 40.0392 31.4397 39.9108 31.5782 39.7824C31.7167 39.654 31.8552 39.5256 31.8552 39.5256H35.4562C35.7332 39.5256 35.7332 39.654 35.8717 39.7824L36.1487 40.6812ZM5.81703 23.0904V17.6976C5.81703 17.4408 6.09403 17.0556 6.50953 17.0556H6.78653C7.06353 17.0556 7.47904 17.3124 7.47904 17.6976V23.0904C7.47904 23.3472 7.20204 23.7324 6.78653 23.7324H6.37103C5.95553 23.7324 5.81703 23.4756 5.81703 23.0904ZM14.4041 23.9892L5.54003 25.4016L5.81703 24.1176C6.09403 24.3744 6.23253 24.3744 6.50953 24.3744H6.78653C7.47904 24.3744 8.03304 23.8608 8.03304 23.2188V17.826C8.03304 17.5692 7.89454 17.4408 7.75604 17.184H15.5121V22.7052C15.6506 23.3472 15.0966 23.8608 14.4041 23.9892ZM59.9708 41.58C59.9708 42.4788 59.1398 43.2492 58.1703 43.2492C57.2008 43.2492 56.3698 42.4788 56.3698 41.58C56.3698 40.6812 57.2008 39.9108 58.1703 39.9108C59.1398 39.9108 59.9708 40.6812 59.9708 41.58ZM19.1131 41.58C19.1131 42.4788 18.2821 43.2492 17.3126 43.2492C16.3431 43.2492 15.5121 42.4788 15.5121 41.58C15.5121 40.6812 16.3431 39.9108 17.3126 39.9108C18.4206 39.9108 19.1131 40.6812 19.1131 41.58Z" fill="#EA725D"/>
<path d="M104.384 9.68217V3.05753C104.384 2.85369 104.163 2.64986 103.942 2.64986H103.389C103.168 2.64986 102.947 2.85369 102.836 2.95561L100.074 10.0898C99.963 10.2937 100.074 10.3956 100.295 10.3956L103.831 10.0898C104.163 9.98792 104.384 9.88601 104.384 9.68217ZM106.152 2.75177H112.01C112.231 2.75177 112.452 2.95561 112.341 3.15945L112.01 8.96875C112.01 9.17258 111.789 9.37642 111.567 9.37642L106.152 9.88601C105.931 9.88601 105.71 9.78409 105.71 9.58025V3.05753C105.821 2.85369 105.931 2.75177 106.152 2.75177ZM121.072 17.326C120.298 17.326 119.414 17.7337 118.641 18.7528C118.862 18.0394 118.972 17.6317 119.304 17.326C118.42 17.4279 117.646 17.5298 116.872 17.8356C116.209 18.1413 115.657 18.9567 115.546 20.1797C115.325 19.5682 115.215 19.0586 115.325 18.6509C114.883 18.9567 114.551 19.1605 114.22 19.5682C113.999 19.772 113.778 20.0778 113.557 20.2816C113.225 20.8931 113.115 21.8104 113.667 22.9315C113.115 22.4219 112.783 22.1161 112.673 21.7084C112.341 22.4219 112.12 23.1353 111.899 23.9506C111.899 24.6641 112.341 25.4794 113.446 26.1928C112.673 25.989 112.231 25.8871 111.899 25.5813C112.01 26.3967 112.231 27.1101 112.452 27.8235C112.783 28.435 113.667 28.9446 114.994 29.0465C114.33 29.2503 113.778 29.3523 113.336 29.2503C113.667 29.658 113.888 29.9638 114.33 30.2695C114.551 30.4734 114.883 30.6772 115.104 30.881C115.767 31.1868 116.651 31.2887 117.978 30.7791C117.425 31.2887 117.093 31.5945 116.651 31.6964C117.425 32.0021 118.199 32.3079 119.083 32.4098C119.856 32.4098 120.741 32.0021 121.514 30.9829C121.293 31.6964 121.183 32.104 120.851 32.4098C121.735 32.3079 122.509 32.104 123.282 31.9002C123.946 31.5945 124.498 30.7791 124.609 29.5561C124.83 30.1676 124.94 30.6772 124.83 31.0849C125.272 30.7791 125.603 30.5753 125.935 30.1676C126.156 29.9638 126.377 29.658 126.598 29.4542C126.93 28.8427 127.04 27.9254 126.488 26.8043C127.04 27.3139 127.372 27.6197 127.482 28.0273C127.814 27.3139 128.035 26.6005 128.256 25.7851C128.256 25.0717 127.814 24.2564 126.709 23.543C127.482 23.7468 127.924 23.8487 128.256 24.1545C128.145 23.3391 127.924 22.6257 127.703 21.9123C127.372 21.3008 126.488 20.7912 125.161 20.6893C125.824 20.4854 126.377 20.3835 126.819 20.4854C126.488 20.0778 126.266 19.772 125.824 19.4663C125.603 19.2624 125.272 19.0586 125.051 18.8548C124.388 18.4471 123.393 18.4471 122.177 18.9567C122.73 18.4471 123.061 18.1413 123.503 18.0394C122.73 17.6317 121.956 17.4279 121.072 17.326ZM119.967 21.5046C121.956 21.5046 123.614 23.0334 123.614 24.8679C123.614 26.7024 121.956 28.2312 119.967 28.2312C117.978 28.2312 116.32 26.7024 116.32 24.8679C116.32 23.0334 117.978 21.5046 119.967 21.5046ZM118.42 24.8679C118.42 24.0526 119.193 23.3391 120.077 23.3391C120.962 23.3391 121.735 24.0526 121.735 24.8679C121.735 25.6832 120.962 26.3967 120.077 26.3967C119.193 26.3967 118.42 25.6832 118.42 24.8679ZM86.8113 24.8679C86.8113 24.0526 87.5849 23.3391 88.4691 23.3391C89.3532 23.3391 90.1268 24.0526 90.1268 24.8679C90.1268 25.6832 89.3532 26.3967 88.4691 26.3967C87.5849 26.3967 86.8113 25.6832 86.8113 24.8679ZM137.981 21.7084C137.981 22.0142 137.871 22.32 137.539 22.5238C137.429 22.6257 134.776 24.1545 130.798 24.3583L129.693 24.4602C129.14 24.4602 128.808 24.1545 128.698 23.6449C128.366 21.6065 127.482 19.9758 126.156 18.7528C125.714 18.3452 125.272 18.0394 124.719 17.7337C123.393 17.1222 121.846 16.7145 120.077 16.6126C116.983 16.6126 114.773 17.4279 113.225 19.0586C111.567 20.7912 111.236 23.1353 111.236 24.766C111.236 24.9698 111.236 25.6832 111.236 25.7851C111.236 26.2947 110.794 26.7024 110.241 26.7024H104.273C103.831 26.7024 103.389 26.3967 103.279 25.989H102.836C102.836 26.1928 102.726 26.2947 102.615 26.4986C102.394 26.7024 102.173 26.8043 101.842 26.8043H99.5209C99.2999 26.8043 99.1894 26.8043 98.9683 26.7024L96.5369 25.3775C96.6474 25.6832 96.6474 25.8871 96.6474 26.0909C96.5369 26.9062 96.3159 27.6197 95.8738 28.3331C95.7633 27.9254 95.4317 27.6197 94.8791 27.1101C95.4317 28.2312 95.3212 29.1484 94.9897 29.7599C94.7686 30.0657 94.5476 30.2695 94.3266 30.4734C93.995 30.7791 93.5529 31.0849 93.2214 31.3906C93.3319 30.9829 93.2214 30.4734 93.0003 29.8619C92.8898 31.0849 92.3372 31.9002 91.6741 32.206C90.9005 32.5117 90.0163 32.7155 89.2427 32.7155C89.5742 32.4098 89.6848 31.9002 89.9058 31.2887C89.1322 32.3079 88.248 32.7155 87.4744 32.7155C86.5902 32.6136 85.8166 32.4098 85.043 32.0021C85.4851 31.9002 85.8166 31.5945 86.3692 31.0849C85.1535 31.5945 84.1588 31.4925 83.4957 31.1868C83.1642 30.9829 82.9431 30.7791 82.7221 30.5753C82.3905 30.2695 82.059 29.8619 81.7274 29.5561C82.1695 29.658 82.7221 29.5561 83.3852 29.3523C82.059 29.2503 81.1748 28.7408 80.8433 28.1293C80.5117 27.4158 80.2907 26.6005 80.2907 25.8871C80.6222 26.1928 81.1748 26.2947 81.8379 26.4986C80.7328 25.7851 80.2907 24.9698 80.2907 24.2564C80.2907 24.1545 80.2907 24.1545 80.2907 24.0526L75.4279 26.9062C75.3173 27.0082 75.0963 27.0082 74.8753 27.0082H72.4438C72.2228 27.0082 72.0018 26.9062 71.7807 26.8043L70.344 25.6832C70.123 25.4794 70.0124 25.1736 70.0124 24.9698C69.7914 24.4602 69.4598 24.3583 69.2388 24.1545C68.4652 23.6449 66.5864 21.9123 65.0391 20.5874C64.2655 19.8739 63.4918 19.1605 62.9392 18.549C62.6077 18.2432 62.3866 18.0394 62.2761 17.8356C61.9446 17.5298 61.613 17.1222 61.8341 16.5106C62.0551 16.2049 62.3866 16.0011 62.7182 16.0011C62.8287 16.0011 62.8287 16.0011 62.9392 16.0011C63.3813 16.103 63.9339 16.103 64.597 16.103C66.5864 16.103 68.9072 15.6953 71.0071 14.9819C73.2175 14.1665 74.1016 13.4531 74.2121 13.2493C74.3227 12.9435 74.5437 12.7397 74.7647 12.6378L76.091 12.1282C76.2015 12.0263 76.312 12.0263 76.533 12.0263C76.8646 12.0263 77.0856 12.1282 77.3067 12.4339L77.4172 12.5359C77.4172 11.5167 77.4172 10.7013 77.5277 10.0898C77.6382 8.96875 77.7487 8.25532 78.4119 8.05149C78.5224 7.94957 78.6329 7.94957 78.7434 7.94957C78.7434 7.94957 78.7434 7.94957 78.8539 7.94957C79.6276 7.94957 80.1802 8.56108 80.6222 9.07067L84.1588 10.1918C84.2694 10.0898 84.4904 10.0898 84.6009 10.0898C84.7114 10.0898 84.8219 10.0898 84.9325 10.1918L92.7793 12.6378H93.2214C93.2214 12.332 93.2214 12.0263 93.2214 11.8224C93.2214 11.3129 93.6634 10.9052 94.216 10.9052H97.5316H97.6421L100.958 1.63068C100.958 1.12109 101.4 0 103.168 0H114.994C115.325 0 115.657 0.203835 115.878 0.509588C116.099 0.815341 116.099 1.22301 115.878 1.42685L115.546 1.83452L115.878 9.17258C117.867 9.07067 119.414 9.07067 120.851 9.07067C121.183 9.07067 121.514 9.07067 121.846 9.07067V6.31889H122.067V4.68821C122.067 4.0767 122.619 3.66903 123.172 3.66903V4.28054C122.84 4.28054 122.619 4.48437 122.619 4.79013V6.42081H122.84V9.07067C129.029 9.2745 131.792 10.1918 133.782 11.2109C134.003 11.3129 134.224 11.6186 134.334 11.8224L135.55 17.1222H136.766C137.318 17.1222 137.76 17.5298 137.76 18.0394L137.981 21.7084ZM102.505 1.42685L114.551 1.22301L114.662 1.12109H103.389C102.947 1.12109 102.615 1.22301 102.505 1.42685ZM98.8578 11.4148C99.2999 11.3129 100.074 11.3129 101.621 11.109C104.273 10.9052 108.583 10.4975 114.883 9.78409L114.551 1.7326L102.284 2.03835L98.8578 11.4148ZM94.1055 14.7781L92.4477 16.4087H94.8791L96.8685 19.0586C96.979 19.1605 94.1055 14.7781 94.1055 14.7781ZM82.9431 14.4723V14.7781L83.8273 14.88L86.9218 14.0646L83.8273 13.0455C83.6062 12.9435 83.3852 12.8416 83.2747 12.6378L82.28 12.332C82.5011 13.0455 82.7221 13.657 82.9431 14.1665C82.9431 14.2685 82.9431 14.3704 82.9431 14.4723ZM80.5117 10.1918C80.6222 10.3956 80.7328 10.4975 80.7328 10.7013L84.1588 11.7205L84.2694 11.3129L80.5117 10.1918ZM72.0018 23.6449C72.5544 23.6449 73.107 23.543 73.7701 23.3391C74.6542 23.0334 75.3173 21.9123 75.5384 21.4027V21.3008L75.6489 21.1989C77.1962 20.0778 77.5277 19.6701 77.5277 19.1605C77.5277 18.549 77.4172 14.778 77.4172 14.1665L76.533 13.1474L75.5384 13.555C74.7647 15.2876 69.0178 17.2241 64.7075 17.2241C64.376 17.2241 64.0444 17.2241 63.7129 17.2241C65.1496 18.6509 69.2388 22.4219 70.2335 23.0334C70.565 23.543 71.2281 23.6449 72.0018 23.6449ZM85.264 17.8356C86.0376 17.5298 86.9218 17.326 87.6954 17.326C87.4744 17.6317 87.2534 17.9375 87.1428 18.4471L87.5849 18.2432C88.027 17.8356 88.5796 17.5298 89.0217 17.4279L90.9005 16.4087H91.8951L93.8845 14.4723L93.5529 13.7589H92.3372L83.8273 16.103L81.3959 15.8991L81.5064 14.4723C80.9538 12.332 79.517 9.58025 78.8539 9.17258C78.6329 9.98792 78.6329 13.2493 78.6329 16.4087L80.6222 18.1413L75.0963 23.3391H74.9858C74.6542 23.6449 74.3227 23.9506 73.8806 24.0526C73.2175 24.2564 72.5544 24.3583 72.0018 24.3583C71.5597 24.3583 71.2281 24.3583 70.8966 24.2564L71.5597 24.766L72.5544 25.5813H74.7647L80.8433 22.0142C80.8433 21.9123 80.9538 21.8104 80.9538 21.7084C80.9538 21.8104 80.9538 21.8104 81.0643 21.9123L81.6169 21.6065C81.6169 21.0969 81.7274 20.6893 81.9485 20.3835C82.1695 20.0778 82.3905 19.8739 82.6116 19.6701C82.9431 19.3643 83.3852 19.0586 83.7168 18.7528C83.6062 19.1605 83.7168 19.6701 83.9378 20.2816C84.1588 18.9567 84.6009 18.1413 85.264 17.8356ZM92.1162 24.8679C92.1162 23.0334 90.4584 21.5046 88.4691 21.5046C86.4797 21.5046 84.8219 23.0334 84.8219 24.8679C84.8219 26.7024 86.4797 28.2312 88.4691 28.2312C90.4584 28.2312 92.1162 26.8043 92.1162 24.8679ZM101.51 25.4794C101.4 20.995 101.4 19.5682 101.4 19.0586C97.3106 18.2432 97.3106 15.6953 97.4211 13.0455C97.4211 12.6378 97.4211 12.332 97.4211 11.9244H94.4371C94.4371 12.2301 94.4371 12.8416 94.4371 14.1665V14.2685L98.7473 21.0969V21.1989C98.7473 21.7084 98.4157 21.7084 98.3052 21.7084C98.0842 21.7084 97.8632 21.5046 97.7526 21.4027L94.4371 17.0202H92.1162L92.3372 18.6509C92.7793 18.6509 93.1108 18.7528 93.4424 18.9567C93.774 19.1605 93.995 19.3643 94.216 19.5682C94.5476 19.8739 94.8791 20.2816 95.2107 20.5874C94.7686 20.4854 94.216 20.5874 93.5529 20.7912C94.8791 20.8931 95.7633 21.4027 96.0949 22.0142C96.3159 22.6257 96.5369 23.2372 96.6474 23.9506L99.5209 25.4794H101.51ZM104.052 24.2564H101.952C101.952 24.4602 101.952 24.766 101.952 24.9698H104.052V24.2564ZM104.052 23.1353H101.952C101.952 23.3391 101.952 23.6449 101.952 23.8487H104.052V23.1353ZM102.726 22.1161H103.168V21.7084H102.726C102.726 21.8104 102.726 22.0142 102.726 22.1161ZM104.052 20.0778H101.952C101.952 20.2816 101.952 20.5874 101.952 20.7912H104.052V20.0778ZM102.615 19.0586L103.168 19.1605V18.6509L102.505 18.549C102.505 18.549 102.505 18.6509 102.615 18.6509C102.615 18.7528 102.615 18.9567 102.615 19.0586ZM128.366 17.7337H132.677L132.124 13.2493L133.119 12.332V12.2301C131.129 11.2109 128.145 10.2937 120.962 10.2937C119.193 10.2937 117.314 10.3956 115.215 10.4975C108.805 11.2109 104.384 11.5167 101.842 11.8224C100.405 11.9244 99.4104 12.0263 98.9683 12.1282L99.0789 17.1222L104.163 17.6317V17.5298L104.273 17.6317H104.384C104.494 17.6317 104.494 17.6317 104.494 17.7337L105.931 18.8548L111.015 18.9567L113.778 13.9627C113.778 13.8608 113.888 13.8608 113.999 13.7589L126.045 13.657C126.156 13.657 126.266 13.7589 126.377 13.8608L128.366 17.7337ZM136.655 21.6065L136.545 18.3452H128.587L130.908 23.1353C133.892 22.9315 136.103 21.9123 136.655 21.6065Z" fill="#EA725D"/>
</svg>
