<svg width="122" height="48" viewBox="0 0 122 48" fill="none" xmlns="http://www.w3.org/2000/svg">
<path d="M24.2063 39.9748C24.2063 41.1861 23.2381 42.0946 21.9471 42.0946C20.6561 42.0946 19.6878 41.1861 19.6878 39.9748C19.6878 38.7634 20.6561 37.8549 21.9471 37.8549C23.2381 37.8549 24.2063 38.7634 24.2063 39.9748ZM16.4603 24.3785H20.0106V23.47H16.4603V24.3785ZM19.6878 15.7476V8.63091H10.0053C10.1667 8.93375 10.328 9.08517 10.328 9.38801V16.2019C10.328 17.1104 9.52116 17.7161 8.71429 17.7161H8.06878C7.74603 17.7161 7.42328 17.5647 7.10053 17.4132L6.77778 18.9274L18.2355 17.1104C19.0423 17.2618 19.6878 16.6562 19.6878 15.7476ZM8.06878 17.1104H8.39153C8.71429 17.1104 9.19841 16.8076 9.19841 16.3533V9.38801C9.35979 8.93375 8.87566 8.63091 8.55291 8.63091H8.06878C7.74603 8.63091 7.42328 8.93375 7.42328 9.38801V16.2019C7.42328 16.8076 7.58466 17.1104 8.06878 17.1104ZM77.2989 37.8549C76.0079 37.8549 75.0397 38.7634 75.0397 39.9748C75.0397 41.1861 76.0079 42.0946 77.2989 42.0946C78.59 42.0946 79.5582 41.1861 79.5582 39.9748C79.5582 38.7634 78.59 37.8549 77.2989 37.8549ZM96.664 37.8549C95.373 37.8549 94.4048 38.7634 94.4048 39.9748C94.4048 41.1861 95.373 42.0946 96.664 42.0946C97.955 42.0946 98.9233 41.1861 98.9233 39.9748C98.9233 38.7634 97.955 37.8549 96.664 37.8549ZM109.897 30.2839V31.6467H114.738V36.9464H113.77L116.029 38.7634V37.5521H117.804V42.0946H115.868V40.8833L112.317 38.612H107.153C107.153 39.0662 107.315 39.5205 107.315 39.9748V40.7319H105.378C105.056 42.7003 104.249 44.3659 102.958 45.7287C101.344 47.2429 99.246 48 96.8254 48C94.4048 48 92.3069 47.0915 90.6931 45.7287C89.2407 44.3659 88.4339 42.7003 88.2725 40.7319H86.0132C85.6905 42.7003 84.8836 44.3659 83.5926 45.7287C81.9788 47.2429 79.881 48 77.4603 48C75.0397 48 72.9418 47.0915 71.328 45.7287C69.8757 44.3659 69.0688 42.7003 68.9074 40.7319H66.9709V39.9748C66.9709 38.9148 67.1323 37.8549 67.2937 36.9464H64.873V39.5205C64.873 40.429 64.0661 41.0347 63.2593 41.0347H51.6402C50.672 41.0347 50.0265 40.2776 50.0265 39.5205V38.612H48.8968V38.7634C48.8968 39.8233 47.9286 40.8833 46.6376 40.8833C45.6693 40.8833 45.0238 40.429 44.5397 39.6719H41.7963C41.4735 40.429 40.6667 40.8833 39.6984 40.8833C38.5688 40.8833 37.4392 39.9748 37.4392 38.7634V38.612H36.6323V40.7319H33.4048V42.0946H29.8545C29.5317 43.4574 28.7249 44.6688 27.5952 45.5773C26.1429 47.0915 24.045 48 21.6243 48C19.2037 48 17.1058 47.0915 15.4921 45.7287C14.3624 44.6688 13.5556 43.1546 13.2328 41.6404C12.9101 41.7918 12.7487 41.9432 12.5873 42.2461L12.2646 42.5489H5.80952L0 41.0347V34.0694L0.806878 31.7981H0V23.0158C0 20.1388 1.77513 14.3849 3.38889 9.84227C3.87302 8.4795 4.35714 7.26814 4.51852 6.35962C5.3254 3.63407 8.87566 2.42271 15.3307 2.42271H19.0423C22.5926 0.605678 25.336 0.15142 29.0476 0C30.0159 0 30.6614 0.605678 30.6614 1.5142C31.1455 8.93375 31.791 16.3533 32.2751 23.6214V31.3438C32.2751 31.4953 32.4365 31.4953 32.4365 31.6467H33.8889V20.4416H35.0185V12.4164L32.2751 8.32808L34.5344 6.81388L42.4418 8.93375L45.5079 13.1735H117.481V12.7192C117.481 11.5079 118.45 10.5994 119.741 10.5994C121.032 10.5994 122 11.5079 122 12.7192V30.2839H109.897ZM71.328 31.4953C72.2963 30.8896 73.5873 30.4353 75.2011 30.1325H64.2275V31.4953C64.2275 31.4953 71.328 31.4953 71.328 31.4953ZM90.6931 31.4953C91.6614 30.8896 92.9524 30.4353 94.5661 30.1325H79.5582C81.172 30.4353 82.463 30.7382 83.4312 31.4953C83.4312 31.4953 90.6931 31.4953 90.6931 31.4953ZM34.5344 8.93375L39.0529 15.4448V28.7697H120.548V12.7192C120.548 12.4164 120.225 12.1136 119.902 12.1136C119.579 12.1136 119.257 12.4164 119.257 12.7192V14.5363H44.8624L41.4735 10.4479L34.8571 8.63091L34.5344 8.93375ZM36.4709 20.2902H37.2778V15.7476L36.4709 14.6877V20.2902ZM37.7619 31.4953H51.4788V30.1325H37.7619V31.4953ZM6.13228 6.35962C5.9709 6.66246 5.9709 6.9653 5.80952 7.26814H6.93915L4.03439 19.6845C4.03439 19.6845 3.06614 19.836 1.93651 20.1388C1.77513 21.1987 1.61376 22.1073 1.61376 22.7129V23.3186H2.90476V28.3155H1.61376V29.9811H3.06614L1.61376 33.7666H3.87302V35.5836H9.35979C10.328 30.4353 15.8148 26.0442 21.6243 26.0442H23.2381C24.5291 26.0442 25.8201 26.347 26.9497 26.8013V3.48265H15.1693C10.0053 3.48265 6.6164 4.54259 6.13228 6.35962ZM4.03439 38.0063H9.52116V37.0978C9.52116 36.795 9.52116 36.795 9.52116 36.4921H4.03439C4.03439 36.6435 4.03439 38.0063 4.03439 38.0063ZM6.13228 40.7319H9.52116V39.0662H1.61376V39.5205L6.13228 40.7319ZM26.1429 39.9748C26.1429 37.8549 24.3677 36.0379 21.9471 36.0379C19.5265 36.0379 17.7513 37.8549 17.7513 39.9748C17.7513 42.0946 19.5265 43.9117 21.9471 43.9117C24.3677 43.9117 26.1429 42.0946 26.1429 39.9748ZM32.5979 40.7319V35.2808C32.5979 34.9779 32.5979 34.9779 32.5979 34.6751C32.1138 30.7382 27.918 27.1041 23.5608 27.1041H21.9471C16.2989 27.1041 10.6508 32.1009 10.6508 37.0978V40.7319H11.619V38.612C11.619 33.4637 15.9762 29.3754 21.463 29.3754H22.9153C27.5952 29.3754 31.3069 32.858 31.3069 37.2492V41.0347H32.7593C32.5979 41.0347 32.5979 40.7319 32.5979 40.7319ZM81.6561 39.9748C81.6561 38.612 81.0106 37.5521 80.0423 36.795C79.881 36.795 79.881 36.6435 79.7196 36.6435C79.5582 36.4921 79.3968 36.4921 79.3968 36.3407C79.2355 36.3407 79.2355 36.1893 79.0741 36.1893C78.9127 36.1893 78.7513 36.0379 78.59 36.0379C78.4286 36.0379 78.4286 36.0379 78.2672 35.8864C77.9444 35.8864 77.7831 35.735 77.4603 35.735C77.1376 35.735 76.9762 35.735 76.6534 35.8864C76.4921 35.8864 76.4921 35.8864 76.3307 36.0379C76.1693 36.0379 76.0079 36.1893 75.8466 36.1893C75.6852 36.1893 75.6852 36.3407 75.5238 36.3407C75.3624 36.3407 75.2011 36.4921 75.2011 36.6435C75.0397 36.6435 75.0397 36.795 74.8783 36.795C73.9101 37.5521 73.2646 38.612 73.2646 39.9748C73.2646 42.0946 75.0397 43.9117 77.4603 43.9117C79.7196 43.9117 81.6561 42.0946 81.6561 39.9748ZM100.86 39.9748C100.86 38.612 100.214 37.5521 99.246 36.795C99.0847 36.795 99.0847 36.6435 98.9233 36.6435C98.7619 36.4921 98.6005 36.4921 98.6005 36.3407C98.4392 36.3407 98.4392 36.1893 98.2778 36.1893C98.1164 36.1893 97.955 36.0379 97.7937 36.0379C97.6323 36.0379 97.6323 36.0379 97.4709 35.8864C97.1482 35.8864 96.9868 35.735 96.664 35.735C96.3413 35.735 96.1799 35.735 95.8571 35.8864C95.6958 35.8864 95.6958 35.8864 95.5344 36.0379C95.373 36.0379 95.2116 36.1893 95.0503 36.1893C94.8889 36.1893 94.8889 36.3407 94.7275 36.3407C94.5661 36.3407 94.4048 36.4921 94.4048 36.6435C94.2434 36.6435 94.2434 36.795 94.082 36.795C93.1138 37.5521 92.4683 38.612 92.4683 39.9748C92.4683 42.0946 94.2434 43.9117 96.664 43.9117C99.0847 43.9117 100.86 42.0946 100.86 39.9748ZM83.9153 26.1956L78.4286 17.4132L76.9762 18.1703L82.463 26.9527L83.9153 26.1956ZM69.7143 26.1956L64.3889 17.4132L62.9365 18.1703L68.2619 26.9527L69.7143 26.1956ZM55.6746 26.1956L50.1878 17.4132L48.7355 18.1703L54.0608 26.9527L55.6746 26.1956ZM97.955 26.1956L92.6296 17.4132L91.1773 18.1703L96.5026 26.9527L97.955 26.1956ZM112.156 26.1956L106.831 17.4132L105.378 18.1703L110.704 26.9527L112.156 26.1956Z" fill="#EA725D"/>
</svg>
