<svg aria-hidden="true" style="position: absolute; width: 0; height: 0; overflow: hidden;" version="1.1" xmlns="http://www.w3.org/2000/svg" xmlns:xlink="http://www.w3.org/1999/xlink">
<defs>
<symbol id="icon-logo" viewBox="0 0 53 32">
<path fill="#ea725d" style="fill: var(--color1, #ea725d)" d="M28.235 0h-3.765l3.765 4.392v-4.392z"></path>
<path fill="#adb8ba" style="fill: var(--color2, #adb8ba)" d="M0 0h5.647v32h-5.647v-32z"></path>
<path fill="#adb8ba" style="fill: var(--color2, #adb8ba)" d="M9.412 0v5.647h8.157v26.353h5.647v-32h-13.804z"></path>
<path fill="none" stroke="#adb8ba" style="stroke: var(--color2, #adb8ba)" stroke-linejoin="miter" stroke-linecap="butt" stroke-miterlimit="4" stroke-width="5.0196" d="M34.51 22.745c0 8.993 15.686 8.993 15.686 0 0-2.998-2.614-5.246-7.843-6.745s-7.843-3.747-7.843-6.745c0-8.993 15.686-8.993 15.686 0"></path>
</symbol>
<symbol id="icon-logo-main" viewBox="0 0 45 32">
<path fill="#ea725d" style="fill: var(--color1, #ea725d)" d="M24.533 0h-3.733l3.733 3.733v-3.733z"></path>
<path fill="#adb8ba" style="fill: var(--color2, #adb8ba)" d="M4.8 0h-4.8v27.2h4.8v-27.2z"></path>
<path fill="#adb8ba" style="fill: var(--color2, #adb8ba)" d="M8 0v4.8h6.933v22.4h4.8v-27.2h-11.733z"></path>
<path fill="none" stroke="#adb8ba" style="stroke: var(--color2, #adb8ba)" stroke-linejoin="miter" stroke-linecap="butt" stroke-miterlimit="4" stroke-width="4.2667" d="M29.333 19.333c0 7.644 13.333 7.644 13.333 0 0-2.548-2.222-4.459-6.667-5.733s-6.667-3.185-6.667-5.733c0-7.644 13.333-7.644 13.333 0"></path>
<path fill="#ea725d" style="fill: var(--color1, #ea725d)" d="M1.804 29.091h-0.295c-0.011-0.063-0.032-0.119-0.063-0.167s-0.069-0.089-0.114-0.122c-0.045-0.033-0.095-0.059-0.151-0.076s-0.113-0.026-0.175-0.026c-0.112 0-0.212 0.028-0.3 0.084s-0.157 0.139-0.208 0.247c-0.050 0.109-0.076 0.241-0.076 0.398 0 0.158 0.025 0.291 0.076 0.4s0.121 0.191 0.209 0.246c0.088 0.056 0.188 0.083 0.298 0.083 0.061 0 0.119-0.008 0.174-0.025s0.106-0.042 0.151-0.075c0.045-0.033 0.083-0.073 0.114-0.12s0.053-0.103 0.065-0.165l0.295 0.001c-0.016 0.095-0.046 0.183-0.092 0.263s-0.103 0.148-0.173 0.206c-0.070 0.057-0.15 0.102-0.241 0.134s-0.189 0.047-0.295 0.047c-0.168 0-0.318-0.040-0.449-0.119s-0.235-0.195-0.311-0.344c-0.075-0.149-0.113-0.327-0.113-0.533s0.038-0.385 0.114-0.533c0.076-0.149 0.179-0.263 0.311-0.343s0.281-0.12 0.448-0.12c0.103 0 0.199 0.015 0.288 0.045s0.17 0.072 0.241 0.129c0.071 0.056 0.13 0.125 0.177 0.206s0.078 0.173 0.095 0.277zM3.212 30.4h-0.311l0.698-1.939h0.338l0.698 1.939h-0.311l-0.548-1.587h-0.015l-0.549 1.587zM3.264 29.641h1.008v0.246h-1.008v-0.246zM5.822 30.4v-1.939h0.691c0.15 0 0.275 0.026 0.374 0.078s0.174 0.123 0.223 0.215c0.049 0.091 0.074 0.196 0.074 0.315s-0.025 0.223-0.075 0.313c-0.049 0.090-0.124 0.159-0.224 0.209s-0.224 0.075-0.374 0.075h-0.524v-0.252h0.497c0.095 0 0.172-0.014 0.231-0.041s0.104-0.067 0.132-0.118c0.028-0.052 0.042-0.114 0.042-0.186s-0.014-0.137-0.043-0.19c-0.028-0.054-0.072-0.095-0.132-0.123s-0.137-0.044-0.234-0.044h-0.367v1.688h-0.293zM6.78 29.525l0.479 0.875h-0.333l-0.47-0.875h0.324zM8.448 30.4v-1.939h0.691c0.15 0 0.275 0.026 0.374 0.078s0.174 0.123 0.223 0.215c0.049 0.091 0.074 0.196 0.074 0.315s-0.025 0.223-0.075 0.313c-0.049 0.090-0.124 0.159-0.223 0.209s-0.224 0.075-0.374 0.075h-0.524v-0.252h0.497c0.095 0 0.172-0.014 0.231-0.041s0.104-0.067 0.132-0.118c0.028-0.052 0.042-0.114 0.042-0.186s-0.014-0.137-0.043-0.19c-0.028-0.054-0.072-0.095-0.132-0.123s-0.137-0.044-0.234-0.044h-0.367v1.688h-0.293zM9.405 29.525l0.479 0.875h-0.333l-0.47-0.875h0.324zM10.853 28.461h0.332l0.507 0.882h0.021l0.507-0.882h0.332l-0.704 1.178v0.761h-0.292v-0.761l-0.704-1.178zM17.032 29.43c0 0.207-0.038 0.385-0.114 0.534s-0.18 0.263-0.312 0.343c-0.131 0.080-0.281 0.119-0.448 0.119s-0.318-0.040-0.45-0.119c-0.131-0.080-0.235-0.195-0.311-0.344s-0.114-0.327-0.114-0.533c0-0.207 0.038-0.385 0.114-0.533s0.179-0.263 0.311-0.343c0.132-0.080 0.282-0.12 0.45-0.12s0.317 0.040 0.448 0.12c0.132 0.080 0.236 0.194 0.312 0.343s0.114 0.326 0.114 0.533zM16.742 29.43c0-0.158-0.026-0.291-0.077-0.399s-0.12-0.191-0.208-0.246c-0.088-0.056-0.187-0.084-0.298-0.084s-0.211 0.028-0.299 0.084c-0.088 0.056-0.157 0.138-0.208 0.246s-0.076 0.241-0.076 0.399 0.025 0.291 0.076 0.4c0.051 0.108 0.121 0.19 0.208 0.246s0.188 0.083 0.299 0.083c0.111 0 0.211-0.028 0.298-0.083s0.158-0.138 0.208-0.246c0.051-0.109 0.077-0.242 0.077-0.4zM19.869 28.461v1.939h-0.269l-0.986-1.422h-0.018v1.422h-0.293v-1.939h0.271l0.987 1.424h0.018v-1.424h0.29zM24.425 29.091h-0.295c-0.011-0.063-0.033-0.119-0.063-0.167s-0.069-0.089-0.114-0.122c-0.045-0.033-0.095-0.059-0.151-0.076s-0.113-0.026-0.175-0.026c-0.112 0-0.212 0.028-0.3 0.084s-0.157 0.139-0.208 0.247c-0.050 0.109-0.076 0.241-0.076 0.398 0 0.158 0.025 0.291 0.076 0.4s0.121 0.191 0.209 0.246c0.088 0.056 0.188 0.083 0.298 0.083 0.061 0 0.119-0.008 0.174-0.025s0.106-0.042 0.151-0.075c0.045-0.033 0.083-0.073 0.114-0.12s0.053-0.103 0.065-0.165l0.295 0.001c-0.016 0.095-0.046 0.183-0.092 0.263s-0.103 0.148-0.173 0.206c-0.070 0.057-0.15 0.102-0.241 0.134s-0.189 0.047-0.295 0.047c-0.168 0-0.318-0.040-0.449-0.119s-0.235-0.195-0.311-0.344c-0.075-0.149-0.113-0.327-0.113-0.533s0.038-0.385 0.114-0.533c0.076-0.149 0.179-0.263 0.311-0.343s0.281-0.12 0.448-0.12c0.103 0 0.199 0.015 0.288 0.045s0.17 0.072 0.241 0.129c0.071 0.056 0.13 0.125 0.177 0.206s0.078 0.173 0.095 0.277zM25.833 30.4h-0.311l0.698-1.939h0.338l0.698 1.939h-0.311l-0.548-1.587h-0.015l-0.549 1.587zM25.885 29.641h1.008v0.246h-1.008v-0.246zM28.443 30.4v-1.939h0.691c0.15 0 0.275 0.026 0.374 0.078s0.174 0.123 0.223 0.215c0.049 0.091 0.074 0.196 0.074 0.315s-0.025 0.223-0.075 0.313c-0.049 0.090-0.124 0.159-0.223 0.209s-0.224 0.075-0.374 0.075h-0.524v-0.252h0.497c0.095 0 0.172-0.014 0.231-0.041s0.104-0.067 0.132-0.118c0.028-0.052 0.042-0.114 0.042-0.186s-0.014-0.137-0.043-0.19c-0.028-0.054-0.072-0.095-0.132-0.123s-0.137-0.044-0.234-0.044h-0.367v1.688h-0.293zM29.4 29.525l0.479 0.875h-0.333l-0.47-0.875h0.324zM31.068 30.4v-1.939h0.691c0.15 0 0.275 0.026 0.374 0.078s0.174 0.123 0.224 0.215c0.049 0.091 0.074 0.196 0.074 0.315s-0.025 0.223-0.075 0.313c-0.049 0.090-0.124 0.159-0.223 0.209s-0.224 0.075-0.374 0.075h-0.524v-0.252h0.497c0.095 0 0.172-0.014 0.231-0.041s0.104-0.067 0.132-0.118c0.028-0.052 0.042-0.114 0.042-0.186s-0.014-0.137-0.043-0.19c-0.028-0.054-0.072-0.095-0.132-0.123s-0.137-0.044-0.234-0.044h-0.367v1.688h-0.293zM32.026 29.525l0.479 0.875h-0.333l-0.47-0.875h0.324zM33.474 28.461h0.332l0.507 0.882h0.021l0.507-0.882h0.332l-0.704 1.178v0.761h-0.292v-0.761l-0.704-1.178zM38.132 30.4h-0.311l0.698-1.939h0.338l0.698 1.939h-0.311l-0.548-1.587h-0.015l-0.549 1.587zM38.184 29.641h1.008v0.246h-1.008v-0.246zM40.742 30.4v-1.939h0.293v1.688h0.879v0.252h-1.171zM43.154 30.4v-1.939h0.293v1.688h0.879v0.252h-1.171z"></path>
</symbol>
<symbol id="icon-fullWeek" viewBox="0 0 32 32">
<path d="M8.992 16.545h-2.959c-0.263 0-0.504-0.147-0.624-0.38s-0.1-0.515 0.052-0.729l2.699-3.794c0.153-0.215 0.175-0.488 0.058-0.728-0.053-0.109-0.214-0.362-0.566-0.378l-0.040-0.001c-0.482 0-0.875 0.392-0.875 0.875 0 0.388-0.315 0.703-0.702 0.703s-0.702-0.315-0.702-0.703c0-1.257 1.022-2.28 2.28-2.28 0.034 0 0.068 0.001 0.102 0.002 0.768 0.035 1.428 0.471 1.767 1.166 0.341 0.7 0.274 1.527-0.176 2.158l-1.91 2.685h1.597c0.388 0 0.703 0.315 0.703 0.703s-0.314 0.702-0.703 0.702z"></path>
<path d="M14.34 16.545c-0.388 0-0.703-0.315-0.703-0.703v-0.415h-2.809c-0.263 0-0.505-0.147-0.625-0.381s-0.099-0.516 0.054-0.731l3.511-4.894c0.177-0.248 0.495-0.353 0.786-0.259s0.488 0.364 0.488 0.669v4.191h0.421c0.388 0 0.703 0.315 0.703 0.703s-0.315 0.703-0.703 0.703h-0.421v0.415c0 0.388-0.314 0.702-0.703 0.702zM12.198 14.023h1.44v-2.007l-1.44 2.007z"></path>
<path d="M20.835 22.835c-0.121 0-0.243-0.031-0.355-0.096-0.335-0.197-0.447-0.627-0.251-0.961l2.906-4.954h-2.3c-0.388 0-0.703-0.314-0.703-0.703s0.315-0.703 0.703-0.703h3.526c0.252 0 0.484 0.135 0.609 0.353s0.124 0.488-0.003 0.705l-3.527 6.011c-0.13 0.223-0.365 0.347-0.606 0.347z"></path>
<path d="M14.349 22.835c-0.117 0-0.236-0.029-0.345-0.091-0.338-0.191-0.457-0.62-0.266-0.957l6.949-12.301c0.191-0.337 0.62-0.457 0.957-0.266s0.457 0.619 0.266 0.957l-6.949 12.3c-0.129 0.229-0.367 0.357-0.612 0.357z"></path>
<path d="M15.021 30.828c-8.186 0-14.846-6.66-14.846-14.846s6.66-14.846 14.846-14.846 14.846 6.66 14.846 14.846c0 0.388-0.315 0.702-0.703 0.702s-0.703-0.315-0.703-0.703c0-7.411-6.030-13.441-13.441-13.441s-13.441 6.029-13.441 13.441 6.030 13.441 13.441 13.441c4.758 0 9.208-2.555 11.612-6.667 0.196-0.335 0.626-0.448 0.961-0.252s0.448 0.626 0.252 0.961c-2.655 4.542-7.569 7.363-12.825 7.363z"></path>
<path d="M29.165 16.685c-0.18 0-0.359-0.069-0.497-0.206l-1.921-1.921c-0.274-0.274-0.274-0.719 0-0.993s0.719-0.274 0.993 0l1.425 1.424 1.425-1.424c0.274-0.274 0.719-0.274 0.993 0s0.274 0.719 0 0.993l-1.921 1.921c-0.137 0.137-0.317 0.206-0.497 0.206z"></path>
</symbol>
<symbol id="icon-handshake" viewBox="0 0 32 32">
<path d="M30.972 13.634l-3.074-5.887c-0.258-0.481-0.758-0.803-1.333-0.803-0.243 0-0.473 0.058-0.677 0.16l0.009-0.004-3.016 1.508h-2.274l-4.223-1.911c-0.182-0.084-0.394-0.133-0.618-0.133-0.15 0-0.294 0.022-0.43 0.063l0.011-0.003-6.272 1.829-2.972-1.486c-0.195-0.098-0.425-0.156-0.668-0.156-0.575 0-1.075 0.322-1.329 0.795l-0.004 0.008-3.074 5.887c-0.107 0.201-0.17 0.44-0.17 0.694 0 0.584 0.334 1.090 0.821 1.338l0.009 0.004 3.045 1.522 6.793 5.312c0.158 0.125 0.345 0.219 0.55 0.271l0.010 0.002 7.245 1.811c0.108 0.028 0.232 0.044 0.36 0.044 0 0 0 0 0 0h-0c0 0 0 0 0.001 0 0.415 0 0.791-0.168 1.064-0.439l4.6-4.6c0.009-0.009 0.018-0.019 0.027-0.029l1.934-2.263 2.999-1.499c0.496-0.252 0.829-0.758 0.829-1.342 0-0.254-0.063-0.493-0.174-0.702l0.004 0.008zM24.92 18.431l-5.126-3.728c-0.081-0.060-0.184-0.096-0.294-0.096-0.113 0-0.217 0.038-0.301 0.101l0.001-0.001-1.6 1.2c-0.579 0.434-1.309 0.696-2.1 0.696s-1.521-0.261-2.109-0.702l0.009 0.007-0.678-0.508c-0.122-0.092-0.2-0.237-0.2-0.4 0-0.138 0.056-0.263 0.146-0.354l4.892-4.892c0.091-0.090 0.216-0.146 0.353-0.146h4.783l3.703 7.092zM1.882 14.349c-0.016-0.046-0.025-0.099-0.025-0.154 0-0.085 0.021-0.164 0.058-0.234l-0.001 0.003 3.074-5.887c0.086-0.161 0.253-0.268 0.444-0.268 0 0 0.001 0 0.001 0h-0c0 0 0 0 0 0 0.081 0 0.157 0.019 0.224 0.054l-0.003-0.001 2.666 1.333-3.537 6.774-2.65-1.325c-0.12-0.060-0.21-0.164-0.251-0.29l-0.001-0.004zM20.047 23.354c-0.091 0.090-0.216 0.146-0.354 0.146-0.043 0-0.085-0.005-0.124-0.015l0.003 0.001-7.245-1.811c-0.072-0.018-0.134-0.050-0.188-0.092l0.001 0.001-6.505-5.086 3.696-7.078 6.295-1.835c0.042-0.013 0.090-0.020 0.14-0.020 0.075 0 0.146 0.016 0.209 0.046l-0.003-0.001 2.209 1h-0.268c-0.001 0-0.003 0-0.004 0-0.413 0-0.787 0.168-1.056 0.439l-4.892 4.892c-0.271 0.271-0.439 0.646-0.439 1.061 0 0.489 0.234 0.923 0.596 1.197l0.004 0.003 0.678 0.508c0.744 0.558 1.683 0.894 2.7 0.894s1.956-0.336 2.712-0.903l-0.012 0.008 1.304-0.978 4.728 3.439zM30.118 14.483c-0.042 0.129-0.133 0.233-0.249 0.292l-0.003 0.001-2.65 1.325-3.537-6.774 2.666-1.333c0.065-0.033 0.142-0.052 0.223-0.052 0.192 0 0.358 0.107 0.443 0.265l0.001 0.003 3.074 5.887c0.036 0.067 0.057 0.147 0.057 0.231 0 0.055-0.009 0.108-0.026 0.158l0.001-0.004zM14.485 26.729c-0.056 0.219-0.252 0.379-0.485 0.379-0.043 0-0.085-0.005-0.125-0.016l0.003 0.001-3.767-0.942c-0.24-0.062-0.449-0.174-0.622-0.325l0.002 0.002-2.819-2.45c-0.106-0.092-0.173-0.227-0.173-0.378 0-0.276 0.224-0.5 0.5-0.5 0.126 0 0.242 0.047 0.33 0.124l-0.001-0 2.819 2.45c0.057 0.050 0.127 0.087 0.204 0.107l0.004 0.001 3.767 0.942c0.219 0.056 0.379 0.252 0.379 0.485 0 0.043-0.005 0.085-0.016 0.125l0.001-0.003z"></path>
</symbol>
<symbol id="icon-punctualityClock" viewBox="0 0 32 32">
<path fill="#000" style="fill: var(--color3, #000)" d="M31.297 15.301c-0.002-8.452-6.855-15.303-15.308-15.301s-15.303 6.855-15.301 15.308c0.001 6.658 4.307 12.551 10.649 14.576 0.061 0.019 0.124 0.029 0.187 0.029 0.121-0 0.239-0.032 0.342-0.094 0.135-0.080 0.236-0.207 0.283-0.356l3.865-12.25c1.057-0.005 1.909-0.866 1.903-1.923s-0.866-1.909-1.923-1.903c-0.284 0.001-0.565 0.067-0.82 0.191l-5.106-5.107c-0.253-0.245-0.657-0.238-0.902 0.016-0.239 0.247-0.239 0.639 0 0.886l5.103 5.109c-0.392 0.799-0.168 1.764 0.536 2.309l-3.683 11.673c-7.278-2.681-11.004-10.754-8.323-18.032s10.754-11.004 18.032-8.323 11.004 10.754 8.323 18.032c-1.31 3.556-4.001 6.431-7.462 7.973l-0.398-1.874c-0.073-0.345-0.411-0.565-0.756-0.492-0.109 0.023-0.209 0.074-0.293 0.148l-3.837 3.426c-0.263 0.234-0.287 0.637-0.052 0.9 0.076 0.085 0.174 0.149 0.283 0.184l4.899 1.564c0.335 0.108 0.694-0.077 0.802-0.412 0.034-0.106 0.040-0.219 0.017-0.328l-0.391-1.839c5.664-2.388 9.342-7.942 9.329-14.089zM15.992 14.664c0.352 0 0.638 0.286 0.638 0.638s-0.286 0.638-0.638 0.638c-0.352 0-0.638-0.285-0.638-0.638s0.285-0.638 0.638-0.638zM18.093 29.528l2.184-1.948 0.603 2.84-2.787-0.892z"></path>
<path fill="#4d5ae5" style="fill: var(--color4, #4d5ae5)" d="M15.354 3.185v1.275c0 0.352 0.285 0.638 0.638 0.638s0.638-0.285 0.638-0.638v-1.275c0-0.352-0.286-0.638-0.638-0.638s-0.638 0.286-0.638 0.638z"></path>
<path fill="#4d5ae5" style="fill: var(--color4, #4d5ae5)" d="M3.876 14.664c-0.352 0-0.638 0.286-0.638 0.638s0.285 0.638 0.638 0.638h1.275c0.352 0 0.638-0.285 0.638-0.638s-0.285-0.638-0.638-0.638h-1.275z"></path>
<path fill="#4d5ae5" style="fill: var(--color4, #4d5ae5)" d="M28.108 15.939c0.352 0 0.638-0.285 0.638-0.638s-0.285-0.638-0.638-0.638h-1.275c-0.352 0-0.638 0.286-0.638 0.638s0.286 0.638 0.638 0.638h1.275z"></path>
</symbol>
<symbol id="icon-small-truck" viewBox="0 0 32 32">
<path fill="none" stroke="#000" style="stroke: var(--color3, #000)" stroke-linejoin="miter" stroke-linecap="butt" stroke-miterlimit="4" stroke-width="0.5" d="M9.953 23.777c0 1.107-0.894 2.003-1.994 2.003s-1.994-0.896-1.994-2.003c0-1.107 0.894-2.003 1.994-2.003s1.994 0.896 1.994 2.003z"></path>
<path fill="none" stroke="#000" style="stroke: var(--color3, #000)" stroke-linejoin="miter" stroke-linecap="butt" stroke-miterlimit="4" stroke-width="0.5" d="M9.017 23.777c0 0.589-0.475 1.064-1.059 1.064s-1.059-0.476-1.059-1.064c0-0.589 0.475-1.064 1.059-1.064s1.059 0.476 1.059 1.064z"></path>
<path fill="none" stroke="#000" style="stroke: var(--color3, #000)" stroke-linejoin="miter" stroke-linecap="butt" stroke-miterlimit="4" stroke-width="0.5" d="M27.093 23.777c0 1.107-0.894 2.003-1.994 2.003s-1.994-0.896-1.994-2.003c0-1.107 0.894-2.003 1.994-2.003s1.994 0.896 1.994 2.003z"></path>
<path fill="none" stroke="#000" style="stroke: var(--color3, #000)" stroke-linejoin="miter" stroke-linecap="butt" stroke-miterlimit="4" stroke-width="0.5" d="M26.046 23.777c0 0.527-0.425 0.952-0.947 0.952s-0.947-0.425-0.947-0.952c0-0.527 0.425-0.952 0.947-0.952s0.947 0.425 0.947 0.952z"></path>
<path fill="none" stroke="#000" style="stroke: var(--color3, #000)" stroke-linejoin="miter" stroke-linecap="butt" stroke-miterlimit="4" stroke-width="0.5" d="M0.907 21.924h4.209l-0.499 1.003h-3.709v-1.003z"></path>
<path d="M22.22 23.177v0.249h0.249v-0.249h-0.249zM22.22 22.876v-0.249h-0.249v0.249h0.249zM11.247 23.177l-0.239 0.071 0.053 0.178h0.186v-0.249zM10.799 21.675v-0.249h-0.335l0.096 0.321 0.239-0.071zM21.135 21.675v0.249h0.249v-0.249h-0.249zM21.135 10.902v-0.249h-0.249v0.249h0.249zM25.995 10.902l0.198-0.151-0.075-0.098h-0.123v0.249zM29.809 15.894h0.249v-0.084l-0.051-0.067-0.198 0.151zM29.809 21.675h-0.249v0.249h0.249v-0.249zM31.419 21.675h0.249v-0.249h-0.249v0.249zM31.419 23.177v0.249h0.249v-0.249h-0.249zM27.904 23.177h-0.249v0.249h0.249v-0.249zM27.904 22.734h0.249v-0.045l-0.015-0.042-0.234 0.086zM22.244 22.876v0.249h0.183l0.055-0.175-0.238-0.075zM22.469 23.177v-0.301h-0.499v0.301h0.499zM11.247 23.426h10.973v-0.499h-10.973v0.499zM10.56 21.747l0.449 1.501 0.478-0.143-0.449-1.501-0.478 0.143zM21.135 21.426h-10.336v0.499h10.336v-0.499zM21.384 21.675v-10.774h-0.499v10.774h0.499zM21.135 11.151h4.861v-0.499h-4.861v0.499zM25.797 11.053l3.814 4.992 0.396-0.303-3.814-4.992-0.396 0.303zM29.56 15.894v5.781h0.499v-5.781h-0.499zM31.419 21.426h-1.61v0.499h1.61v-0.499zM31.668 23.177v-1.501h-0.499v1.501h0.499zM27.904 23.426h3.515v-0.499h-3.515v0.499zM27.655 22.734v0.443h0.499v-0.443h-0.499zM28.138 22.648c-0.457-1.239-1.645-2.123-3.040-2.123v0.499c1.179 0 2.185 0.747 2.572 1.797l0.468-0.173zM25.098 20.525c-1.452 0-2.679 0.958-3.092 2.277l0.476 0.149c0.35-1.118 1.39-1.927 2.616-1.927v-0.499zM22.244 22.627h-0.024v0.499h0.024v-0.499z"></path>
<path fill="none" stroke="#000" style="stroke: var(--color3, #000)" stroke-linejoin="miter" stroke-linecap="butt" stroke-miterlimit="4" stroke-width="0.5" d="M22.48 15.745v-3.115h3.402l1.832 2.29v0.826h-5.235z"></path>
<path fill="none" stroke="#000" style="stroke: var(--color3, #000)" stroke-linejoin="miter" stroke-linecap="butt" stroke-miterlimit="4" stroke-width="0.5" d="M12.891 6.16v13.87"></path>
<path fill="none" stroke="#000" style="stroke: var(--color3, #000)" stroke-linejoin="miter" stroke-linecap="butt" stroke-miterlimit="4" stroke-width="0.5" d="M11.022 6.114v13.87"></path>
<path fill="none" stroke="#000" style="stroke: var(--color3, #000)" stroke-linejoin="miter" stroke-linecap="butt" stroke-miterlimit="4" stroke-width="0.5" d="M9.126 6.114v13.87"></path>
<path fill="none" stroke="#000" style="stroke: var(--color3, #000)" stroke-linejoin="miter" stroke-linecap="butt" stroke-miterlimit="4" stroke-width="0.5" d="M7.229 6.114v13.87"></path>
<path fill="none" stroke="#000" style="stroke: var(--color3, #000)" stroke-linejoin="miter" stroke-linecap="butt" stroke-miterlimit="4" stroke-width="0.5" d="M5.649 6.114v13.87"></path>
<path fill="none" stroke="#000" style="stroke: var(--color3, #000)" stroke-linejoin="miter" stroke-linecap="butt" stroke-miterlimit="4" stroke-width="0.5" d="M4.068 6.114v13.87"></path>
<path fill="none" stroke="#000" style="stroke: var(--color3, #000)" stroke-linejoin="miter" stroke-linecap="butt" stroke-miterlimit="4" stroke-width="0.5" d="M2.488 6.114v13.87"></path>
<path fill="none" stroke="#000" style="stroke: var(--color3, #000)" stroke-linejoin="miter" stroke-linecap="butt" stroke-miterlimit="4" stroke-width="0.5" d="M14.7 6.16v13.87"></path>
<path fill="none" stroke="#000" style="stroke: var(--color3, #000)" stroke-linejoin="miter" stroke-linecap="butt" stroke-miterlimit="4" stroke-width="0.5" d="M16.51 6.16v13.87"></path>
<path fill="none" stroke="#000" style="stroke: var(--color3, #000)" stroke-linejoin="miter" stroke-linecap="butt" stroke-miterlimit="4" stroke-width="0.5" d="M18.319 6.16v13.87"></path>
<path fill="none" stroke="#000" style="stroke: var(--color3, #000)" stroke-linejoin="miter" stroke-linecap="butt" stroke-miterlimit="4" stroke-width="0.5" d="M19.624 20.023v-13.909h-19.125v13.909h19.125z"></path>
</symbol>
<symbol id="icon-container-truck" viewBox="0 0 81 32">
<path fill="#ea725d" style="fill: var(--color1, #ea725d)" d="M81.333 21.9v-21.9h-58.951v21.9h5.504v0.8h-6.605c0-0.1-0.122-0.1-0.122-0.2v-4.5c-0.367-4.2-0.734-8.4-0.978-12.6 0-0.5-0.612-0.8-1.101-0.8-2.446 0.1-4.158 0.4-6.605 1.4h-2.446c-4.158 0-6.604 0.8-7.094 2.3-0.245 0.5-0.489 1.2-0.734 2-0.978 2.4-2.201 5.7-2.201 7.3v5h0.489l-0.489 1.3v4l3.791 0.8h4.281l0.245-0.2c0.245-0.2 0.245-0.2 0.489-0.3h0.122c0.245 0.9 0.734 1.7 1.468 2.3 0.978 0.8 2.446 1.3 3.914 1.3s2.935-0.5 3.914-1.3c0.612-0.5 1.101-1.2 1.468-2h2.202v-0.8h2.079v-1.2h0.489v0.1c0 0.6 0.612 1.2 1.468 1.2 0.612 0 1.101-0.3 1.345-0.7h1.712c0.245 0.4 0.734 0.7 1.345 0.7 0.734 0 1.468-0.5 1.468-1.2v-0.1h0.734v0.5c0 0.5 0.489 0.8 0.978 0.8h7.583c0.612 0 0.978-0.4 0.978-0.8v-1.4h1.59c-0.245 0.5-0.245 1.2-0.245 1.8v0.5h1.712c0.122 1.1 0.734 2.1 1.59 2.8 0.978 0.8 2.446 1.3 3.914 1.3s2.935-0.5 3.914-1.3c0.978-0.8 1.468-1.7 1.59-2.8h1.345c0.122 1.1 0.734 2.1 1.59 2.8 0.978 0.8 2.446 1.3 3.914 1.3s2.935-0.5 3.914-1.3c0.856-0.8 1.467-1.7 1.59-2.8h1.345v-0.5c0-0.2 0-0.5-0.123-0.8h3.425l2.324 1.3v0.7h1.223v-2.6h-1.223v0.7l-1.468-1.1h0.612v-3h-3.058v-0.8l9.785 0.1zM54.304 22.7c-0.734-0.4-1.59-0.6-2.568-0.8h9.907c-0.978 0.2-1.835 0.4-2.568 0.8h-4.77zM23.605 0.8h56.628v20.2h-56.628v-20.2zM36.203 21.9h12.842c-0.978 0.2-1.835 0.4-2.568 0.8h-10.274v-0.8zM9.907 6.8h7.828v13.2c-0.734-0.3-1.59-0.5-2.446-0.5h-1.101c-3.791 0-7.338 2.5-7.95 5.4h-3.669v-1h-1.468l0.978-2.1h-0.978v-0.9h0.734v-2.9h-0.856v-0.4c0-0.4 0.122-0.8 0.245-1.4 0.734-0.1 1.345-0.2 1.345-0.2l1.957-7h-0.734c0.122-0.2 0.122-0.4 0.245-0.5 0.245-1.2 2.446-1.7 5.871-1.7zM2.568 25.6h3.547c0 0.1 0 0.2 0 0.3v0.5h-3.547v-0.8zM0.978 27.2v-0.3h5.137v0.9h-2.201c0 0.1-2.935-0.6-2.935-0.6zM14.31 29.6c-1.468 0-2.691-1-2.691-2.2s1.223-2.2 2.691-2.2c1.468 0 2.691 1 2.691 2.2 0 1.3-1.223 2.2-2.691 2.2zM21.159 28.1h-0.978v-2.1c0-2.5-2.446-4.5-5.504-4.5h-0.978c-3.547-0.1-6.36 2.3-6.36 5.1v1.2h-0.489v-2c0-2.9 3.669-5.8 7.461-5.8h1.101c2.813 0 5.504 2.1 5.871 4.4 0 0.1 0 0.2 0 0.3l-0.122 3.4zM50.39 29.6c-1.468 0-2.691-1-2.691-2.2 0-0.8 0.489-1.4 1.101-1.8 0.122 0 0.122-0.1 0.245-0.1 0.122-0.1 0.245-0.1 0.245-0.2 0.122 0 0.122-0.1 0.245-0.1s0.245-0.1 0.245-0.1 0.122 0 0.245 0 0.367-0.1 0.489-0.1c0.245 0 0.367 0 0.489 0.1 0.122 0 0.122 0 0.245 0s0.245 0.1 0.245 0.1 0.122 0.1 0.245 0.1 0.245 0.1 0.245 0.2c0.122 0 0.122 0.1 0.245 0.1 0.612 0.4 1.101 1.1 1.101 1.8-0.245 1.3-1.468 2.2-2.935 2.2zM62.987 29.6c-1.468 0-2.691-1-2.691-2.2 0-0.8 0.489-1.4 1.101-1.8 0.122 0 0.122-0.1 0.245-0.1 0.122-0.1 0.245-0.1 0.245-0.2 0.122 0 0.122-0.1 0.245-0.1s0.245-0.1 0.245-0.1c0 0 0.122 0 0.245 0 0.245 0 0.367-0.1 0.489-0.1s0.367 0 0.489 0.1c0.122 0 0.122 0 0.245 0s0.245 0.1 0.245 0.1 0.122 0.1 0.245 0.1 0.245 0.1 0.245 0.2c0.122 0 0.122 0.1 0.245 0.1 0.612 0.4 1.101 1.1 1.101 1.8-0.245 1.3-1.468 2.2-2.935 2.2zM15.777 27.5c0 0.7-0.612 1.2-1.468 1.2s-1.468-0.5-1.468-1.2c0-0.7 0.612-1.2 1.468-1.2s1.468 0.5 1.468 1.2zM10.641 18h2.324v0.6h-2.324v-0.6zM11.864 14.6l-7.461 1 0.245-0.8c0.245 0.1 0.367 0.2 0.612 0.2h0.245c0.612 0 0.978-0.4 0.978-0.8v-3.9c0-0.2-0.122-0.3-0.122-0.4h6.36v4.1c0.122 0.2-0.245 0.5-0.856 0.6zM4.77 14v-3.9c0-0.2 0.245-0.5 0.612-0.5h0.245c0.245 0 0.612 0.2 0.612 0.5v3.9c0 0.2-0.245 0.5-0.612 0.5h-0.367c-0.245-0.1-0.489-0.2-0.489-0.5zM51.858 27.5c0 0.7-0.612 1.2-1.468 1.2s-1.468-0.5-1.468-1.2c0-0.7 0.612-1.2 1.468-1.2s1.468 0.5 1.468 1.2zM64.455 27.5c0 0.7-0.612 1.2-1.468 1.2s-1.468-0.5-1.468-1.2c0-0.7 0.612-1.2 1.468-1.2s1.468 0.5 1.468 1.2z"></path>
<path fill="none" stroke="#ea725d" style="stroke: var(--color1, #ea725d)" stroke-linejoin="miter" stroke-linecap="butt" stroke-miterlimit="4" stroke-width="0.6667" d="M23.333 19h58"></path>
<path fill="none" stroke="#ea725d" style="stroke: var(--color1, #ea725d)" stroke-linejoin="miter" stroke-linecap="butt" stroke-miterlimit="4" stroke-width="0.6667" d="M23.333 3h57.333"></path>
<path fill="none" stroke="#ea725d" style="stroke: var(--color1, #ea725d)" stroke-linejoin="miter" stroke-linecap="butt" stroke-miterlimit="4" stroke-width="0.6667" d="MNaNNaNclNaNNaNclNaNNaNclNaNNaNclNaNNaNclNaNNaNclNaNNaNclNaNNaNclNaNNaNclNaNNaNclNaNNaNclNaNNaNclNaNNaNclNaNNaNclNaNNaNclNaNNaN"></path>
<path fill="none" stroke="#ea725d" style="stroke: var(--color1, #ea725d)" stroke-linejoin="miter" stroke-linecap="butt" stroke-miterlimit="4" stroke-width="0.6667" d="M27.667 2.667v16.667"></path>
<path fill="none" stroke="#ea725d" style="stroke: var(--color1, #ea725d)" stroke-linejoin="miter" stroke-linecap="butt" stroke-miterlimit="4" stroke-width="0.6667" d="M29.667 2.667v16.667"></path>
<path fill="none" stroke="#ea725d" style="stroke: var(--color1, #ea725d)" stroke-linejoin="miter" stroke-linecap="butt" stroke-miterlimit="4" stroke-width="0.6667" d="M31.667 2.667v16.667"></path>
<path fill="none" stroke="#ea725d" style="stroke: var(--color1, #ea725d)" stroke-linejoin="miter" stroke-linecap="butt" stroke-miterlimit="4" stroke-width="0.6667" d="M33.667 2.667v16.667"></path>
<path fill="none" stroke="#ea725d" style="stroke: var(--color1, #ea725d)" stroke-linejoin="miter" stroke-linecap="butt" stroke-miterlimit="4" stroke-width="0.6667" d="M35.667 2.667v16.667"></path>
<path fill="none" stroke="#ea725d" style="stroke: var(--color1, #ea725d)" stroke-linejoin="miter" stroke-linecap="butt" stroke-miterlimit="4" stroke-width="0.6667" d="M37.667 2.667v16.667"></path>
<path fill="none" stroke="#ea725d" style="stroke: var(--color1, #ea725d)" stroke-linejoin="miter" stroke-linecap="butt" stroke-miterlimit="4" stroke-width="0.6667" d="M39.667 2.667v16.667"></path>
<path fill="none" stroke="#ea725d" style="stroke: var(--color1, #ea725d)" stroke-linejoin="miter" stroke-linecap="butt" stroke-miterlimit="4" stroke-width="0.6667" d="M41.667 2.667v16.667"></path>
<path fill="none" stroke="#ea725d" style="stroke: var(--color1, #ea725d)" stroke-linejoin="miter" stroke-linecap="butt" stroke-miterlimit="4" stroke-width="0.6667" d="M43.667 2.667v16.667"></path>
<path fill="none" stroke="#ea725d" style="stroke: var(--color1, #ea725d)" stroke-linejoin="miter" stroke-linecap="butt" stroke-miterlimit="4" stroke-width="0.6667" d="M45.667 2.667v16.667"></path>
<path fill="none" stroke="#ea725d" style="stroke: var(--color1, #ea725d)" stroke-linejoin="miter" stroke-linecap="butt" stroke-miterlimit="4" stroke-width="0.6667" d="M47.667 2.667v16.667"></path>
<path fill="none" stroke="#ea725d" style="stroke: var(--color1, #ea725d)" stroke-linejoin="miter" stroke-linecap="butt" stroke-miterlimit="4" stroke-width="0.6667" d="M49.667 2.667v16.667"></path>
<path fill="none" stroke="#ea725d" style="stroke: var(--color1, #ea725d)" stroke-linejoin="miter" stroke-linecap="butt" stroke-miterlimit="4" stroke-width="0.6667" d="M51.667 2.667v16.667"></path>
<path fill="none" stroke="#ea725d" style="stroke: var(--color1, #ea725d)" stroke-linejoin="miter" stroke-linecap="butt" stroke-miterlimit="4" stroke-width="0.6667" d="M53.667 2.667v16.667"></path>
<path fill="none" stroke="#ea725d" style="stroke: var(--color1, #ea725d)" stroke-linejoin="miter" stroke-linecap="butt" stroke-miterlimit="4" stroke-width="0.6667" d="M55.667 2.667v16"></path>
<path fill="none" stroke="#ea725d" style="stroke: var(--color1, #ea725d)" stroke-linejoin="miter" stroke-linecap="butt" stroke-miterlimit="4" stroke-width="0.6667" d="M57.667 2.667v16"></path>
<path fill="none" stroke="#ea725d" style="stroke: var(--color1, #ea725d)" stroke-linejoin="miter" stroke-linecap="butt" stroke-miterlimit="4" stroke-width="0.6667" d="M59.667 2.667v16.667"></path>
<path fill="none" stroke="#ea725d" style="stroke: var(--color1, #ea725d)" stroke-linejoin="miter" stroke-linecap="butt" stroke-miterlimit="4" stroke-width="0.6667" d="M61.667 2.667v16"></path>
<path fill="none" stroke="#ea725d" style="stroke: var(--color1, #ea725d)" stroke-linejoin="miter" stroke-linecap="butt" stroke-miterlimit="4" stroke-width="0.6667" d="M63.667 2.667v16"></path>
<path fill="none" stroke="#ea725d" style="stroke: var(--color1, #ea725d)" stroke-linejoin="miter" stroke-linecap="butt" stroke-miterlimit="4" stroke-width="0.6667" d="M65.667 2.667v16"></path>
<path fill="none" stroke="#ea725d" style="stroke: var(--color1, #ea725d)" stroke-linejoin="miter" stroke-linecap="butt" stroke-miterlimit="4" stroke-width="0.6667" d="MNaNNaNclNaNNaNclNaNNaNclNaNNaNclNaNNaNclNaNNaNclNaNNaNclNaNNaNclNaNNaNclNaNNaNclNaNNaNclNaNNaNclNaNNaNclNaNNaNclNaNNaNclNaNNaN"></path>
<path fill="none" stroke="#ea725d" style="stroke: var(--color1, #ea725d)" stroke-linejoin="miter" stroke-linecap="butt" stroke-miterlimit="4" stroke-width="0.6667" d="M67.667 2.667v16"></path>
<path fill="none" stroke="#ea725d" style="stroke: var(--color1, #ea725d)" stroke-linejoin="miter" stroke-linecap="butt" stroke-miterlimit="4" stroke-width="0.6667" d="M69.667 2.667v16"></path>
<path fill="none" stroke="#ea725d" style="stroke: var(--color1, #ea725d)" stroke-linejoin="miter" stroke-linecap="butt" stroke-miterlimit="4" stroke-width="0.6667" d="M71.667 2.667v16"></path>
<path fill="none" stroke="#ea725d" style="stroke: var(--color1, #ea725d)" stroke-linejoin="miter" stroke-linecap="butt" stroke-miterlimit="4" stroke-width="0.6667" d="M73.667 2.667v16"></path>
<path fill="none" stroke="#ea725d" style="stroke: var(--color1, #ea725d)" stroke-linejoin="miter" stroke-linecap="butt" stroke-miterlimit="4" stroke-width="0.6667" d="M75.667 2.667v16"></path>
</symbol>
<symbol id="icon-fuel_truck" viewBox="0 0 81 32">
<path fill="#ea725d" style="fill: var(--color1, #ea725d)" d="M79.959 24.8v0.8l-1.481-1.3h0.634v-3.7h-8.249c-0.211-0.1-0.317-0.2-0.529-0.3h5.817c2.644-0.4 4.548-4.2 4.548-8.8 0-4.7-2.009-8.4-4.548-8.8v-2.2h-48.017v2.1c-2.644 0.4-4.548 4.2-4.548 8.8 0 5 2.221 8.9 5.077 8.9h21.153c-0.212 0.1-0.317 0.2-0.529 0.3h-26.864c-0.635-1.1-1.586-2.1-2.644-2.8h0.106v-17.8h-9.307c-4.442 0-6.875 0.9-7.404 2.8-0.317 0.6-0.529 1.5-0.846 2.5-1.058 3.1-2.327 7.1-2.327 9.1v6.1h0.529l-0.529 1.6v4.9l4.019 1h4.548l0.212-0.1c0.211-0.1 0.317-0.3 0.529-0.4h0.106c0.212 1.1 0.846 2.1 1.586 2.8 1.058 1 2.538 1.6 4.231 1.6 1.586 0 3.067-0.6 4.231-1.6 0.74-0.7 1.269-1.5 1.481-2.5h2.327v-0.8h2.221v-1.5h0.529v0.1c0 0.8 0.635 1.4 1.481 1.4 0.635 0 1.163-0.4 1.375-0.9h1.798c0.212 0.5 0.74 0.9 1.375 0.9 0.846 0 1.481-0.6 1.481-1.4v-0.1h0.846v0.5c0 0.6 0.529 1.1 1.163 1.1h8.038c0.635 0 1.163-0.5 1.163-1.1v-1.7h1.692c-0.212 0.7-0.317 1.4-0.317 2.1v0.6h1.375c0.106 1.3 0.74 2.5 1.692 3.4 1.058 1 2.538 1.6 4.231 1.6s3.067-0.6 4.231-1.6c0.952-0.9 1.587-2.1 1.692-3.4h1.586c0.106 1.3 0.74 2.5 1.692 3.4 1.058 1 2.538 1.6 4.23 1.6 1.587 0 3.067-0.6 4.125-1.6 0.951-0.9 1.586-2.1 1.692-3.4h1.375v-0.5c0-0.3 0-0.6-0.105-1h3.596l2.538 1.6v0.9h1.269v-3.2h-1.375zM28.557 19.4c-2.221 0-4.125-3.6-4.125-7.9s1.904-7.9 4.125-7.9h46.959c2.221 0 4.125 3.6 4.125 7.9 0 4-1.587 7.4-3.596 7.9v-1.6h-35.643v1.7h-11.846v-0.1zM41.354 18.7h33.739v0.7h-33.739v-0.7zM56.902 20.3h6.134c-0.212 0.1-0.317 0.2-0.529 0.3h-5.077c-0.106-0.1-0.317-0.2-0.529-0.3zM10.577 1.1h8.25v16.2c-0.846-0.3-1.692-0.5-2.538-0.5h-1.163c-4.019 0-7.721 3.1-8.461 6.6h-3.913v-1.3h-1.586l0.952-2.6h-0.952v-1.1h0.846v-3.6h-0.846v-0.4c0-0.5 0.106-1 0.212-1.7 0.846-0.2 1.481-0.3 1.481-0.3l2.010-8.7h-0.846c0-0.2 0.106-0.4 0.212-0.6 0.317-1.3 2.644-2 6.346-2zM2.75 24.1h3.702c0 0.1 0 0.3 0 0.4v0.6h-3.702v-1zM1.163 26.2v-0.4h5.288v1.2h-2.327l-2.961-0.8zM15.124 29.1c-1.586 0-2.856-1.2-2.856-2.7s1.269-2.7 2.856-2.7c1.586 0 2.856 1.2 2.856 2.7s-1.269 2.7-2.856 2.7zM22.422 27.2h-0.952v-2.6c0-3-2.538-5.4-5.711-5.4h-1.058c-3.702 0-6.769 2.9-6.769 6.4v1.4h-0.74v-2.5c0-3.5 3.913-7 7.827-7h1.163c2.961 0 5.817 2.5 6.24 5.3 0 0.1 0 0.3 0 0.4v4zM53.306 29.1c-1.586 0-2.856-1.2-2.856-2.7 0-0.9 0.423-1.7 1.163-2.2 0.106 0 0.106-0.1 0.212-0.1 0.106-0.1 0.212-0.1 0.317-0.1s0.106-0.1 0.212-0.1c0.106 0 0.212-0.1 0.317-0.1s0.106 0 0.212 0c0.212 0 0.317-0.1 0.529-0.1s0.317 0 0.529 0.1c0.106 0 0.106 0 0.212 0s0.212 0.1 0.317 0.1c0.106 0 0.106 0.1 0.212 0.1s0.212 0.1 0.317 0.1c0.106 0 0.106 0.1 0.211 0.1 0.74 0.5 1.163 1.3 1.163 2.2-0.106 1.5-1.481 2.7-3.067 2.7zM66.632 29.1c-1.586 0-2.856-1.2-2.856-2.7 0-0.9 0.423-1.7 1.163-2.2 0 0 0.106-0.1 0.212-0.1 0.106-0.1 0.212-0.1 0.317-0.1s0.106-0.1 0.212-0.1c0.106 0 0.212-0.1 0.317-0.1s0.106 0 0.212 0c0.212 0 0.317-0.1 0.529-0.1s0.317 0 0.529 0.1c0.106 0 0.106 0 0.211 0s0.211 0.1 0.317 0.1 0.106 0.1 0.211 0.1c0.106 0 0.212 0.1 0.317 0.1s0.106 0.1 0.212 0.1c0.74 0.5 1.163 1.3 1.163 2.2-0.212 1.5-1.481 2.7-3.067 2.7zM16.711 26.4c0 0.8-0.74 1.5-1.586 1.5s-1.586-0.7-1.586-1.5c0-0.8 0.74-1.5 1.586-1.5s1.586 0.7 1.586 1.5zM11.317 14.9h2.433v0.7h-2.433v-0.7zM5.077 10v-4.8c0-0.3 0.212-0.5 0.529-0.5h0.317c0.317 0 0.529 0.2 0.529 0.5v4.8c0 0.3-0.212 0.5-0.529 0.5h-0.317c-0.317 0-0.529-0.2-0.529-0.5zM12.692 10.7l-7.932 1.3 0.212-1.1c0.212 0.1 0.423 0.2 0.635 0.2h0.317c0.635 0 1.163-0.5 1.163-1.1v-4.8c0-0.2-0.106-0.4-0.106-0.5h6.663v5c0 0.5-0.423 0.9-0.952 1zM54.892 26.4c0 0.8-0.74 1.5-1.586 1.5s-1.586-0.7-1.586-1.5c0-0.8 0.74-1.5 1.586-1.5 0.952 0 1.586 0.7 1.586 1.5zM68.219 26.4c0 0.8-0.741 1.5-1.587 1.5s-1.586-0.7-1.586-1.5 0.74-1.5 1.586-1.5c0.846 0 1.587 0.7 1.587 1.5zM39.873 6.2v0.9h-1.058v-0.9h-6.663v0.9h-0.635v-0.9h-1.798c-0.423 0-0.74-0.3-0.74-0.7s0.317-0.7 0.74-0.7h44.739c0.423 0 0.74 0.3 0.74 0.7s-0.317 0.7-0.74 0.7h-4.231v0.9h-0.635v-0.9h-6.98v0.9h-0.635v-0.9h-6.663v0.9h-1.058v-0.9h-6.663v0.9h-1.058v-0.9h-6.663z"></path>
</symbol>
<symbol id="icon-loader-truck" viewBox="0 0 107 32">
<path fill="#ea725d" style="fill: var(--color1, #ea725d)" d="M78.005 27.535c0 0.687-0.499 1.202-1.163 1.202s-1.163-0.515-1.163-1.202c0-0.687 0.499-1.202 1.163-1.202 0.581 0 1.163 0.601 1.163 1.202zM85.647 26.333c-0.664 0-1.163 0.515-1.163 1.202s0.499 1.202 1.163 1.202c0.665 0 1.163-0.515 1.163-1.202 0-0.601-0.499-1.202-1.163-1.202zM94.62 26.333c-0.665 0-1.163 0.515-1.163 1.202s0.498 1.202 1.163 1.202c0.665 0 1.163-0.515 1.163-1.202-0.083-0.601-0.581-1.202-1.163-1.202zM78.503 21.352h28.164v2.233h-1.661v0.945h-5.899c0.498 0.859 0.747 1.975 0.747 3.005v0.429h-0.997c-0.083 1.030-0.581 1.975-1.246 2.662-0.748 0.773-1.911 1.288-2.991 1.288s-2.243-0.515-2.991-1.288c-0.665-0.687-1.163-1.717-1.246-2.662h-0.415c-0.083 1.030-0.582 1.975-1.247 2.662-0.747 0.773-1.911 1.288-2.991 1.288s-2.243-0.515-2.991-1.288c-0.665-0.687-1.163-1.717-1.246-2.662h-0.333c-0.083 1.030-0.581 1.975-1.246 2.662-0.748 0.773-1.911 1.288-2.991 1.288s-2.243-0.515-2.991-1.288c-0.665-0.687-1.163-1.717-1.246-2.662h-1.080v-0.429c0-1.116 0.249-2.147 0.747-3.005h-6.314v-0.343h-6.979v-0.086l-1.662-1.116v0.515h-0.249v8.243h0.665v0.258h-2.077v-0.258h0.665v-8.243h-0.249v-0.687h-30.822v-1.717l53.17 0.258zM78.918 27.535c0-1.202-0.913-2.147-2.077-2.147s-2.077 0.945-2.077 2.147c0 1.202 0.914 2.147 2.077 2.147s2.077-0.945 2.077-2.147zM87.808 27.535c0-1.202-0.914-2.147-2.077-2.147s-2.077 0.945-2.077 2.147c0 1.202 0.913 2.147 2.077 2.147 1.080 0.086 2.077-0.945 2.077-2.147zM96.614 27.535c0-1.202-0.914-2.147-2.077-2.147s-2.077 0.945-2.077 2.147 0.914 2.147 2.077 2.147c1.163 0 2.077-0.945 2.077-2.147zM36.88 19.893l-2.575-2.662h-8.973v3.778h11.548v-1.116zM32.311 11.564h-4.736v5.238h4.237c0 0 0.498-5.238 0.498-5.238zM31.812 4.522h-4.237v6.784h4.736l-0.498-6.784zM27.243 13.195h-1.911v3.606h1.911v-3.606zM95.119 19.893v1.116h11.548v-3.778h-8.973l-2.575 2.662zM104.341 16.801v-5.238h-4.736l0.499 5.238c0 0 4.237 0 4.237 0zM104.341 4.522h-4.237l-0.499 6.784h4.736c0 0 0-6.784 0-6.784zM104.673 13.195v3.606h1.911v-3.606h-1.911z"></path>
<path fill="#ea725d" style="fill: var(--color1, #ea725d)" d="M44.874 24.125h-1.939c-0.185-0.257-0.462-0.428-0.739-0.685-0.092 0-0.092-0.086-0.185-0.086l-0.092-0.086c-0.092 0-0.092-0.086-0.185-0.086-0.185-0.086-0.277-0.171-0.462-0.171-0.092 0-0.185-0.086-0.185-0.086-0.185-0.086-0.462-0.171-0.646-0.171-0.092 0-0.092 0-0.185 0-0.185-0.086-0.369-0.086-0.554-0.171-0.092 0-0.185 0-0.185 0-0.277 0-0.462-0.086-0.739-0.086s-0.554 0-0.739 0.086c-0.092 0-0.185 0-0.185 0-0.185 0-0.462 0.086-0.646 0.171-0.092 0-0.092 0-0.185 0-0.185 0.086-0.462 0.171-0.646 0.171-0.092 0-0.185 0.086-0.185 0.086-0.185 0.086-0.277 0.171-0.462 0.171 0 0 0 0-0.092 0h-3.324v-0.428c1.385 0 1.662 0.342 1.662 0.342l0.739-0.428c0 0-0.462-0.685-2.493-0.685h-6.556v0.77h1.57v0.428h-8.956v-0.856l0.831-0.599v-0.257c0-3.082 0-6.934-0.369-11.042-0.185-2.226-0.462-4.451-0.739-5.65l-0.092-0.257-4.34 0.77-6.002 0.428c-2.401 0.257-4.063 0.77-4.709 2.739-0.092 0.599-0.369 1.198-0.554 1.969-1.016 2.91-2.308 6.848-2.308 8.389v4.537h0.462l-0.462 1.198v3.681l3.139 0.77h4.155c0.185 0.685 0.646 1.198 1.108 1.712 0.831 0.77 1.939 1.198 3.139 1.198 1.293 0 2.401-0.428 3.139-1.198 0.462-0.428 0.923-1.027 1.108-1.712h18.651c0.277 0.77 0.739 1.541 1.477 2.054 0.739 0.599 1.754 0.942 2.77 0.942 1.293 0 2.401-0.428 3.139-1.198 0.185-0.171 0.369-0.342 0.462-0.514 0 0 0 0 0-0.086 0.277-0.342 0.462-0.685 0.646-1.198 0.092-0.257 0.185-0.514 0.185-0.856h1.016v-0.514c0-0.257 0-0.599-0.092-0.856h0.739l0.092-2.654zM2.124 26.008h2.77c0 0.171 0 0.171 0 0.342v0.428h-2.77v-0.77zM16.435 28.148v-1.798c0-2.226-1.939-4.109-4.432-4.109h-0.739c-2.862 0-5.171 2.14-5.171 4.794v1.113h-0.646v-1.798c0-2.654 2.955-5.307 6.002-5.307h0.923c2.493 0 4.801 2.14 4.801 4.451v2.654c-0.277 0-0.554 0-0.739 0zM7.664 6.577l6.002-0.428 3.601-0.685c0.277 1.37 0.462 3.852 0.646 5.050 0.369 4.023 0.369 7.875 0.369 10.957l-1.016 0.685-0.831 0.342c-1.016-1.198-2.493-1.883-4.155-1.883h-0.923c-3.047 0-5.909 2.311-6.463 4.965h-2.77v-0.942h-1.2l0.739-1.969h-0.831v-0.856h0.739v-2.654h-0.739v-0.257c0-0.342 0.092-0.77 0.185-1.284 0.646-0.257 1.016-0.342 1.016-0.342l1.477-6.42h12.373v-0.514h-12.65c0.185-0.599 0.369-1.113 0.462-1.541 0.554-1.455 1.477-1.969 3.97-2.226zM0.831 27.634v-0.257h4.063v0.856h-1.754l-2.308-0.599zM11.542 29.774c-1.2 0-2.216-0.942-2.216-2.054s1.016-2.054 2.216-2.054c1.2 0 2.216 0.942 2.216 2.054s-1.016 2.054-2.216 2.054zM17.728 28.148v-2.654c0-0.428-0.092-0.942-0.185-1.37h17.174c-0.185 0.171-0.369 0.428-0.554 0.685-0.554 0.856-0.831 1.798-0.831 2.91v0.428c-1.57 0.086-11.357 0.086-15.604 0zM38.78 29.774c-1.2 0-2.216-0.942-2.216-2.054s1.016-2.054 2.216-2.054c1.2 0 2.216 0.942 2.216 2.054s-1.016 2.054-2.216 2.054zM8.679 19.074h1.939v0.514h-1.939v-0.514zM23.176 26.008h-2.401c-0.185 0-0.185-0.086-0.277-0.171l-0.185-0.599c0-0.086 0-0.171 0.092-0.257s0.185-0.171 0.185-0.171h2.401c0.185 0 0.185 0.086 0.277 0.171l0.185 0.599c0 0.086 0 0.171-0.092 0.257 0 0.086-0.092 0.171-0.185 0.171zM24.099 27.121c0 0.086 0 0.171-0.092 0.257s-0.185 0.171-0.185 0.171h-2.401c-0.185 0-0.185-0.086-0.277-0.171l-0.185-0.599c0-0.086 0-0.171 0.092-0.257s0.185-0.171 0.185-0.171h2.401c0.185 0 0.185 0.086 0.277 0.171l0.185 0.599zM3.878 15.394v-3.595c0-0.171 0.185-0.428 0.462-0.428h0.185c0.185 0 0.462 0.171 0.462 0.428v3.595c0 0.171-0.185 0.428-0.462 0.428h-0.277c-0.277 0-0.369-0.171-0.369-0.428zM9.603 15.993l-5.909 0.942 0.185-0.856c0.185 0.171 0.277 0.171 0.462 0.171h0.185c0.462 0 0.831-0.342 0.831-0.77v-3.595c0-0.171-0.092-0.257-0.185-0.428h5.171v3.681c0.092 0.428-0.277 0.77-0.739 0.856zM39.981 27.72c0 0.599-0.554 1.113-1.2 1.113s-1.2-0.514-1.2-1.113c0-0.599 0.554-1.113 1.2-1.113s1.2 0.514 1.2 1.113zM12.742 27.72c0 0.599-0.554 1.113-1.2 1.113s-1.2-0.514-1.2-1.113c0-0.599 0.554-1.113 1.2-1.113 0.739 0 1.2 0.514 1.2 1.113z"></path>
<path fill="#ea725d" style="fill: var(--color1, #ea725d)" d="M69.589 6.455v-4.416c0-0.136-0.147-0.272-0.295-0.272h-0.369c-0.147 0-0.295 0.136-0.369 0.204l-1.841 4.756c-0.074 0.136 0 0.204 0.147 0.204l2.357-0.204c0.221-0.068 0.369-0.136 0.369-0.272zM70.768 1.835h3.905c0.147 0 0.295 0.136 0.221 0.272l-0.221 3.873c0 0.136-0.147 0.272-0.295 0.272l-3.61 0.34c-0.147 0-0.295-0.068-0.295-0.204v-4.348c0.074-0.136 0.147-0.204 0.295-0.204zM80.715 11.551c-0.516 0-1.105 0.272-1.621 0.951 0.147-0.476 0.221-0.747 0.442-0.951-0.589 0.068-1.105 0.136-1.621 0.34-0.442 0.204-0.81 0.747-0.884 1.563-0.147-0.408-0.221-0.747-0.147-1.019-0.295 0.204-0.516 0.34-0.737 0.612-0.147 0.136-0.295 0.34-0.442 0.476-0.221 0.408-0.295 1.019 0.073 1.767-0.368-0.34-0.589-0.544-0.663-0.815-0.221 0.476-0.369 0.951-0.516 1.495 0 0.476 0.295 1.019 1.031 1.495-0.515-0.136-0.81-0.204-1.031-0.408 0.074 0.544 0.221 1.019 0.369 1.495 0.221 0.408 0.81 0.747 1.695 0.815-0.443 0.136-0.811 0.204-1.105 0.136 0.221 0.272 0.368 0.476 0.663 0.679 0.147 0.136 0.369 0.272 0.516 0.408 0.442 0.204 1.031 0.272 1.916-0.068-0.369 0.34-0.59 0.544-0.885 0.612 0.516 0.204 1.032 0.408 1.621 0.476 0.515 0 1.105-0.272 1.621-0.951-0.147 0.476-0.221 0.747-0.442 0.951 0.589-0.068 1.105-0.204 1.621-0.34 0.443-0.204 0.811-0.747 0.885-1.563 0.147 0.408 0.221 0.747 0.147 1.019 0.295-0.204 0.515-0.34 0.737-0.612 0.147-0.136 0.295-0.34 0.442-0.476 0.221-0.408 0.295-1.019-0.073-1.767 0.368 0.34 0.589 0.544 0.663 0.815 0.221-0.476 0.369-0.951 0.516-1.495 0-0.476-0.295-1.019-1.031-1.495 0.515 0.136 0.81 0.204 1.031 0.408-0.074-0.544-0.221-1.019-0.369-1.495-0.221-0.408-0.81-0.747-1.695-0.815 0.442-0.136 0.811-0.204 1.105-0.136-0.221-0.272-0.369-0.476-0.663-0.679-0.147-0.136-0.368-0.272-0.515-0.408-0.442-0.272-1.105-0.272-1.916 0.068 0.369-0.34 0.589-0.544 0.884-0.612-0.515-0.272-1.031-0.408-1.621-0.476zM79.978 14.336c1.326 0 2.431 1.019 2.431 2.242s-1.105 2.242-2.431 2.242c-1.326 0-2.431-1.019-2.431-2.242s1.105-2.242 2.431-2.242zM78.947 16.579c0-0.544 0.515-1.019 1.105-1.019s1.105 0.476 1.105 1.019-0.515 1.019-1.105 1.019c-0.589 0-1.105-0.476-1.105-1.019zM57.874 16.579c0-0.544 0.516-1.019 1.105-1.019s1.105 0.476 1.105 1.019-0.516 1.019-1.105 1.019c-0.589 0-1.105-0.476-1.105-1.019zM91.987 14.472c0 0.204-0.073 0.408-0.295 0.544-0.073 0.068-1.842 1.087-4.494 1.223l-0.737 0.068c-0.369 0-0.59-0.204-0.663-0.544-0.221-1.359-0.811-2.446-1.695-3.261-0.295-0.272-0.589-0.476-0.958-0.679-0.884-0.408-1.915-0.679-3.095-0.747-2.063 0-3.536 0.544-4.568 1.631-1.105 1.155-1.326 2.718-1.326 3.805 0 0.136 0 0.611 0 0.679 0 0.34-0.295 0.612-0.663 0.612h-3.979c-0.295 0-0.589-0.204-0.663-0.476h-0.295c0 0.136-0.073 0.204-0.147 0.34-0.147 0.136-0.295 0.204-0.515 0.204h-1.547c-0.147 0-0.221 0-0.368-0.068l-1.621-0.883c0.074 0.204 0.074 0.34 0.074 0.476-0.074 0.544-0.221 1.019-0.516 1.495-0.074-0.272-0.295-0.476-0.663-0.815 0.368 0.747 0.295 1.359 0.074 1.767-0.147 0.204-0.295 0.34-0.442 0.476-0.221 0.204-0.516 0.408-0.737 0.611 0.074-0.272 0-0.611-0.147-1.019-0.074 0.815-0.442 1.359-0.884 1.563-0.516 0.204-1.105 0.34-1.621 0.34 0.221-0.204 0.295-0.544 0.442-0.951-0.516 0.679-1.105 0.951-1.621 0.951-0.589-0.068-1.105-0.204-1.621-0.476 0.295-0.068 0.516-0.272 0.884-0.611-0.81 0.34-1.474 0.272-1.916 0.068-0.221-0.136-0.368-0.272-0.516-0.408-0.221-0.204-0.442-0.476-0.663-0.679 0.295 0.068 0.663 0 1.105-0.136-0.884-0.068-1.474-0.408-1.695-0.815-0.221-0.476-0.368-1.019-0.368-1.495 0.221 0.204 0.589 0.272 1.031 0.408-0.737-0.476-1.031-1.019-1.031-1.495 0-0.068 0-0.068 0-0.136l-3.242 1.902c-0.074 0.068-0.221 0.068-0.368 0.068h-1.621c-0.147 0-0.295-0.068-0.442-0.136l-0.958-0.747c-0.147-0.136-0.221-0.34-0.221-0.476-0.147-0.34-0.368-0.408-0.516-0.544-0.516-0.34-1.768-1.495-2.8-2.378-0.516-0.476-1.032-0.951-1.4-1.359-0.221-0.204-0.368-0.34-0.442-0.476-0.221-0.204-0.442-0.476-0.295-0.883 0.147-0.204 0.368-0.34 0.589-0.34 0.074 0 0.074 0 0.147 0 0.295 0.068 0.663 0.068 1.105 0.068 1.326 0 2.873-0.272 4.273-0.747 1.474-0.544 2.063-1.019 2.137-1.155 0.074-0.204 0.221-0.34 0.368-0.408l0.884-0.34c0.074-0.068 0.147-0.068 0.295-0.068 0.221 0 0.368 0.068 0.516 0.272l0.074 0.068c0-0.679 0-1.223 0.074-1.631 0.074-0.747 0.147-1.223 0.589-1.359 0.074-0.068 0.147-0.068 0.221-0.068 0 0 0 0 0.074 0 0.516 0 0.884 0.408 1.179 0.747l2.358 0.747c0.074-0.068 0.221-0.068 0.295-0.068s0.147 0 0.221 0.068l5.231 1.631h0.295c0-0.204 0-0.408 0-0.544 0-0.34 0.295-0.611 0.663-0.611h2.284l2.211-6.183c0-0.34 0.295-1.087 1.473-1.087h7.884c0.221 0 0.442 0.136 0.589 0.34s0.147 0.476 0 0.611l-0.221 0.272 0.221 4.892c1.326-0.068 2.357-0.068 3.315-0.068 0.221 0 0.442 0 0.663 0v-1.835h0.147v-1.087c0-0.408 0.368-0.679 0.737-0.679v0.408c-0.221 0-0.369 0.136-0.369 0.34v1.087h0.147v1.767c4.126 0.136 5.968 0.747 7.295 1.427 0.147 0.068 0.295 0.272 0.368 0.408l0.811 3.533h0.811c0.368 0 0.663 0.272 0.663 0.611l0.147 2.446zM68.337 0.951l8.031-0.136 0.074-0.068h-7.515c-0.295 0-0.516 0.068-0.589 0.204zM65.905 7.61c0.295-0.068 0.811-0.068 1.842-0.204 1.768-0.136 4.641-0.408 8.841-0.883l-0.221-5.368-8.178 0.204-2.284 6.251zM62.737 9.852l-1.105 1.087h1.621l1.326 1.767c0.074 0.068-1.842-2.854-1.842-2.854zM55.295 9.648v0.204l0.589 0.068 2.063-0.544-2.063-0.679c-0.147-0.068-0.295-0.136-0.368-0.272l-0.663-0.204c0.147 0.476 0.295 0.883 0.442 1.223 0 0.068 0 0.136 0 0.204zM53.674 6.795c0.074 0.136 0.147 0.204 0.147 0.34l2.284 0.679 0.074-0.272-2.505-0.747zM48.001 15.763c0.368 0 0.737-0.068 1.179-0.204 0.589-0.204 1.031-0.951 1.179-1.291v-0.068l0.074-0.068c1.032-0.747 1.253-1.019 1.253-1.359 0-0.408-0.074-2.922-0.074-3.329l-0.589-0.679-0.663 0.272c-0.516 1.155-4.347 2.446-7.221 2.446-0.221 0-0.442 0-0.663 0 0.958 0.951 3.684 3.465 4.347 3.873 0.221 0.34 0.663 0.408 1.179 0.408zM56.843 11.89c0.516-0.204 1.105-0.34 1.621-0.34-0.147 0.204-0.295 0.408-0.368 0.747l0.295-0.136c0.295-0.272 0.663-0.476 0.958-0.544l1.253-0.679h0.663l1.326-1.291-0.221-0.476h-0.81l-5.673 1.563-1.621-0.136 0.074-0.951c-0.368-1.427-1.326-3.261-1.768-3.533-0.147 0.544-0.147 2.718-0.147 4.824l1.326 1.155-3.684 3.465h-0.074c-0.221 0.204-0.442 0.408-0.737 0.476-0.442 0.136-0.884 0.204-1.253 0.204-0.295 0-0.516 0-0.737-0.068l0.442 0.34 0.663 0.544h1.474l4.052-2.378c0-0.068 0.074-0.136 0.074-0.204 0 0.068 0 0.068 0.074 0.136l0.368-0.204c0-0.34 0.074-0.611 0.221-0.815s0.295-0.34 0.442-0.476c0.221-0.204 0.516-0.408 0.737-0.612-0.074 0.272 0 0.612 0.147 1.019 0.147-0.883 0.442-1.427 0.884-1.631zM61.411 16.579c0-1.223-1.105-2.242-2.431-2.242s-2.431 1.019-2.431 2.242 1.105 2.242 2.431 2.242c1.326 0 2.431-0.951 2.431-2.242zM67.673 16.986c-0.073-2.99-0.073-3.941-0.073-4.281-2.726-0.544-2.726-2.242-2.653-4.009 0-0.272 0-0.476 0-0.747h-1.989c0 0.204 0 0.611 0 1.495v0.068l2.873 4.552v0.068c0 0.34-0.221 0.34-0.295 0.34-0.147 0-0.295-0.136-0.368-0.204l-2.21-2.922h-1.547l0.147 1.087c0.295 0 0.516 0.068 0.737 0.204s0.368 0.272 0.516 0.408c0.221 0.204 0.442 0.476 0.663 0.679-0.295-0.068-0.663 0-1.105 0.136 0.884 0.068 1.474 0.408 1.695 0.815 0.147 0.408 0.295 0.815 0.368 1.291l1.916 1.019h1.326zM69.368 16.171h-1.4c0 0.136 0 0.34 0 0.476h1.4v-0.476zM69.368 15.424h-1.4c0 0.136 0 0.34 0 0.476h1.4v-0.476zM68.484 14.744h0.295v-0.272h-0.295c0 0.068 0 0.204 0 0.272zM69.368 13.385h-1.4c0 0.136 0 0.34 0 0.476h1.4v-0.476zM68.41 12.706l0.369 0.068v-0.34l-0.442-0.068c0 0 0 0.068 0.073 0.068 0 0.068 0 0.204 0 0.272zM85.577 11.822h2.874l-0.369-2.99 0.663-0.612v-0.068c-1.327-0.679-3.316-1.291-8.105-1.291-1.179 0-2.432 0.068-3.831 0.136-4.273 0.476-7.221 0.679-8.915 0.883-0.958 0.068-1.621 0.136-1.916 0.204l0.074 3.329 3.389 0.34v-0.068l0.073 0.068h0.074c0.073 0 0.073 0 0.073 0.068l0.958 0.747 3.389 0.068 1.842-3.329c0-0.068 0.073-0.068 0.147-0.136l8.031-0.068c0.074 0 0.147 0.068 0.221 0.136l1.326 2.582zM91.103 14.404l-0.073-2.174h-5.305l1.547 3.193c1.989-0.136 3.463-0.815 3.831-1.019z"></path>
</symbol>
<symbol id="icon-ref" viewBox="0 0 81 32">
<path fill="#ea725d" style="fill: var(--color1, #ea725d)" d="M81.333 21.9v-21.9h-58.951v21.9h5.504v0.8h-6.605c0-0.1-0.122-0.1-0.122-0.2v-4.5c-0.367-4.2-0.734-8.4-0.978-12.6 0-0.5-0.612-0.8-1.101-0.8-2.446 0.1-4.158 0.4-6.605 1.4h-2.446c-4.158 0-6.604 0.8-7.094 2.3-0.245 0.5-0.489 1.2-0.734 2-0.978 2.4-2.201 5.7-2.201 7.3v5h0.489l-0.489 1.3v4l3.791 0.8h4.281l0.245-0.2c0.245-0.2 0.245-0.2 0.489-0.3h0.122c0.245 0.9 0.734 1.7 1.468 2.3 0.978 0.8 2.446 1.3 3.914 1.3s2.935-0.5 3.914-1.3c0.612-0.5 1.101-1.2 1.468-2h2.202v-0.8h2.079v-1.2h0.489v0.1c0 0.6 0.612 1.2 1.468 1.2 0.612 0 1.101-0.3 1.345-0.7h1.712c0.245 0.4 0.734 0.7 1.345 0.7 0.734 0 1.468-0.5 1.468-1.2v-0.1h0.734v0.5c0 0.5 0.489 0.8 0.978 0.8h7.583c0.612 0 0.978-0.4 0.978-0.8v-1.4h1.59c-0.245 0.5-0.245 1.2-0.245 1.8v0.5h1.712c0.122 1.1 0.734 2.1 1.59 2.8 0.978 0.8 2.446 1.3 3.914 1.3s2.935-0.5 3.914-1.3c0.978-0.8 1.468-1.7 1.59-2.8h1.345c0.122 1.1 0.734 2.1 1.59 2.8 0.978 0.8 2.446 1.3 3.914 1.3s2.935-0.5 3.914-1.3c0.856-0.8 1.467-1.7 1.59-2.8h1.345v-0.5c0-0.2 0-0.5-0.123-0.8h3.425l2.324 1.3v0.7h1.223v-2.6h-1.223v0.7l-1.468-1.1h0.612v-3h-3.058v-0.8l9.785 0.1zM54.304 22.7c-0.734-0.4-1.59-0.6-2.568-0.8h9.907c-0.978 0.2-1.835 0.4-2.568 0.8h-4.77zM23.605 0.8h56.628v20.2h-56.628v-20.2zM36.203 21.9h12.842c-0.978 0.2-1.835 0.4-2.568 0.8h-10.274v-0.8zM9.907 6.8h7.828v13.2c-0.734-0.3-1.59-0.5-2.446-0.5h-1.101c-3.791 0-7.338 2.5-7.95 5.4h-3.669v-1h-1.468l0.978-2.1h-0.978v-0.9h0.734v-2.9h-0.856v-0.4c0-0.4 0.122-0.8 0.245-1.4 0.734-0.1 1.345-0.2 1.345-0.2l1.957-7h-0.734c0.122-0.2 0.122-0.4 0.245-0.5 0.245-1.2 2.446-1.7 5.871-1.7zM2.568 25.6h3.547c0 0.1 0 0.2 0 0.3v0.5h-3.547v-0.8zM0.978 27.2v-0.3h5.137v0.9h-2.201c0 0.1-2.935-0.6-2.935-0.6zM14.31 29.6c-1.468 0-2.691-1-2.691-2.2s1.223-2.2 2.691-2.2c1.468 0 2.691 1 2.691 2.2 0 1.3-1.223 2.2-2.691 2.2zM21.159 28.1h-0.978v-2.1c0-2.5-2.446-4.5-5.504-4.5h-0.978c-3.547-0.1-6.36 2.3-6.36 5.1v1.2h-0.489v-2c0-2.9 3.669-5.8 7.461-5.8h1.101c2.813 0 5.504 2.1 5.871 4.4 0 0.1 0 0.2 0 0.3l-0.122 3.4zM50.39 29.6c-1.468 0-2.691-1-2.691-2.2 0-0.8 0.489-1.4 1.101-1.8 0.122 0 0.122-0.1 0.245-0.1 0.122-0.1 0.245-0.1 0.245-0.2 0.122 0 0.122-0.1 0.245-0.1s0.245-0.1 0.245-0.1 0.122 0 0.245 0 0.367-0.1 0.489-0.1c0.245 0 0.367 0 0.489 0.1 0.122 0 0.122 0 0.245 0s0.245 0.1 0.245 0.1 0.122 0.1 0.245 0.1 0.245 0.1 0.245 0.2c0.122 0 0.122 0.1 0.245 0.1 0.612 0.4 1.101 1.1 1.101 1.8-0.245 1.3-1.468 2.2-2.935 2.2zM62.987 29.6c-1.468 0-2.691-1-2.691-2.2 0-0.8 0.489-1.4 1.101-1.8 0.122 0 0.122-0.1 0.245-0.1 0.122-0.1 0.245-0.1 0.245-0.2 0.122 0 0.122-0.1 0.245-0.1s0.245-0.1 0.245-0.1c0 0 0.122 0 0.245 0 0.245 0 0.367-0.1 0.489-0.1s0.367 0 0.489 0.1c0.122 0 0.122 0 0.245 0s0.245 0.1 0.245 0.1 0.122 0.1 0.245 0.1 0.245 0.1 0.245 0.2c0.122 0 0.122 0.1 0.245 0.1 0.612 0.4 1.101 1.1 1.101 1.8-0.245 1.3-1.468 2.2-2.935 2.2zM15.777 27.5c0 0.7-0.612 1.2-1.468 1.2s-1.468-0.5-1.468-1.2c0-0.7 0.612-1.2 1.468-1.2s1.468 0.5 1.468 1.2zM10.641 18h2.324v0.6h-2.324v-0.6zM11.864 14.6l-7.461 1 0.245-0.8c0.245 0.1 0.367 0.2 0.612 0.2h0.245c0.612 0 0.978-0.4 0.978-0.8v-3.9c0-0.2-0.122-0.3-0.122-0.4h6.36v4.1c0.122 0.2-0.245 0.5-0.856 0.6zM4.77 14v-3.9c0-0.2 0.245-0.5 0.612-0.5h0.245c0.245 0 0.612 0.2 0.612 0.5v3.9c0 0.2-0.245 0.5-0.612 0.5h-0.367c-0.245-0.1-0.489-0.2-0.489-0.5zM51.858 27.5c0 0.7-0.612 1.2-1.468 1.2s-1.468-0.5-1.468-1.2c0-0.7 0.612-1.2 1.468-1.2s1.468 0.5 1.468 1.2zM64.455 27.5c0 0.7-0.612 1.2-1.468 1.2s-1.468-0.5-1.468-1.2c0-0.7 0.612-1.2 1.468-1.2s1.468 0.5 1.468 1.2z"></path>
<path fill="#ea725d" style="fill: var(--color1, #ea725d)" d="M56.406 13.817l-1.283-0.765 1.116-0.309c0.275-0.077 0.439-0.369 0.363-0.652l-0.134-0.516c-0.072-0.283-0.357-0.452-0.632-0.376l-2.609 0.722-2.35-1.404 2.353-1.404 2.609 0.722c0.275 0.077 0.556-0.093 0.632-0.376l0.134-0.516c0.072-0.283-0.088-0.576-0.363-0.652l-1.116-0.309 1.283-0.765c0.245-0.146 0.331-0.472 0.19-0.729l-0.259-0.462c-0.141-0.256-0.458-0.343-0.704-0.196l-1.283 0.765 0.298-1.154c0.072-0.283-0.088-0.576-0.363-0.652l-0.498-0.136c-0.275-0.077-0.556 0.093-0.632 0.376l-0.697 2.695-2.354 1.404v-2.811l1.908-1.973c0.2-0.206 0.2-0.546 0-0.752l-0.363-0.376c-0.2-0.206-0.527-0.206-0.727 0l-0.815 0.845v-1.527c0-0.293-0.229-0.532-0.514-0.532h-0.514c-0.285 0-0.514 0.24-0.514 0.532v1.534l-0.815-0.845c-0.2-0.206-0.527-0.206-0.727 0l-0.376 0.376c-0.2 0.206-0.2 0.546 0 0.752l1.908 1.973v2.811l-2.353-1.404-0.697-2.695c-0.072-0.283-0.357-0.452-0.632-0.376l-0.498 0.136c-0.275 0.077-0.439 0.369-0.363 0.652l0.298 1.154-1.283-0.765c-0.246-0.146-0.56-0.060-0.704 0.196l-0.259 0.462c-0.141 0.256-0.059 0.579 0.19 0.729l1.283 0.765-1.116 0.303c-0.275 0.077-0.439 0.369-0.363 0.652l0.134 0.516c0.072 0.283 0.357 0.452 0.632 0.376l2.609-0.722 2.353 1.404-2.353 1.404-2.609-0.722c-0.275-0.077-0.556 0.093-0.632 0.376l-0.134 0.516c-0.072 0.283 0.088 0.576 0.363 0.652l1.116 0.309-1.283 0.765c-0.245 0.146-0.331 0.472-0.19 0.729l0.259 0.462c0.141 0.256 0.458 0.343 0.704 0.196l1.283-0.765-0.298 1.154c-0.072 0.283 0.088 0.576 0.363 0.652l0.498 0.136c0.275 0.077 0.556-0.093 0.632-0.376l0.697-2.695 2.353-1.404v2.811l-1.908 1.973c-0.2 0.206-0.2 0.546 0 0.752l0.363 0.376c0.2 0.206 0.527 0.206 0.727 0l0.815-0.845v1.527c0 0.293 0.229 0.532 0.514 0.532h0.514c0.285 0 0.514-0.24 0.514-0.532v-1.534l0.815 0.845c0.2 0.206 0.527 0.206 0.727 0l0.363-0.376c0.2-0.206 0.2-0.546 0-0.752l-1.908-1.973v-2.811l2.353 1.404 0.697 2.695c0.072 0.283 0.357 0.452 0.632 0.376l0.498-0.136c0.275-0.077 0.439-0.369 0.363-0.652l-0.298-1.154 1.283 0.765c0.245 0.146 0.56 0.060 0.704-0.196l0.259-0.462c0.151-0.25 0.069-0.576-0.18-0.722z"></path>
</symbol>
<symbol id="icon-tilt_truck" viewBox="0 0 81 32">
<path fill="#ea725d" style="fill: var(--color1, #ea725d)" d="M81.333 21.9v-21.9h-58.951v21.9h5.504v0.8h-6.605c0-0.1-0.122-0.1-0.122-0.2v-4.5c-0.367-4.2-0.734-8.4-0.978-12.6 0-0.5-0.612-0.8-1.101-0.8-2.446 0.1-4.158 0.4-6.605 1.4h-2.446c-4.158 0-6.604 0.8-7.094 2.3-0.245 0.5-0.489 1.2-0.734 2-0.978 2.4-2.201 5.7-2.201 7.3v5h0.489l-0.489 1.3v4l3.791 0.8h4.281l0.245-0.2c0.245-0.2 0.245-0.2 0.489-0.3h0.122c0.245 0.9 0.734 1.7 1.468 2.3 0.978 0.8 2.446 1.3 3.914 1.3s2.935-0.5 3.914-1.3c0.612-0.5 1.101-1.2 1.468-2h2.202v-0.8h2.079v-1.2h0.489v0.1c0 0.6 0.612 1.2 1.468 1.2 0.612 0 1.101-0.3 1.345-0.7h1.712c0.245 0.4 0.734 0.7 1.345 0.7 0.734 0 1.468-0.5 1.468-1.2v-0.1h0.734v0.5c0 0.5 0.489 0.8 0.978 0.8h7.583c0.612 0 0.978-0.4 0.978-0.8v-1.4h1.59c-0.245 0.5-0.245 1.2-0.245 1.8v0.5h1.712c0.122 1.1 0.734 2.1 1.59 2.8 0.978 0.8 2.446 1.3 3.914 1.3s2.935-0.5 3.914-1.3c0.978-0.8 1.468-1.7 1.59-2.8h1.345c0.122 1.1 0.734 2.1 1.59 2.8 0.978 0.8 2.446 1.3 3.914 1.3s2.935-0.5 3.914-1.3c0.856-0.8 1.467-1.7 1.59-2.8h1.345v-0.5c0-0.2 0-0.5-0.123-0.8h3.425l2.324 1.3v0.7h1.223v-2.6h-1.223v0.7l-1.468-1.1h0.612v-3h-3.058v-0.8l9.785 0.1zM54.304 22.7c-0.734-0.4-1.59-0.6-2.568-0.8h9.907c-0.978 0.2-1.835 0.4-2.568 0.8h-4.77zM23.605 0.8h56.628v20.2h-56.628v-20.2zM36.203 21.9h12.842c-0.978 0.2-1.835 0.4-2.568 0.8h-10.274v-0.8zM9.907 6.8h7.828v13.2c-0.734-0.3-1.59-0.5-2.446-0.5h-1.101c-3.791 0-7.338 2.5-7.95 5.4h-3.669v-1h-1.468l0.978-2.1h-0.978v-0.9h0.734v-2.9h-0.856v-0.4c0-0.4 0.122-0.8 0.245-1.4 0.734-0.1 1.345-0.2 1.345-0.2l1.957-7h-0.734c0.122-0.2 0.122-0.4 0.245-0.5 0.245-1.2 2.446-1.7 5.871-1.7zM2.568 25.6h3.547c0 0.1 0 0.2 0 0.3v0.5h-3.547v-0.8zM0.978 27.2v-0.3h5.137v0.9h-2.201c0 0.1-2.935-0.6-2.935-0.6zM14.31 29.6c-1.468 0-2.691-1-2.691-2.2s1.223-2.2 2.691-2.2c1.468 0 2.691 1 2.691 2.2 0 1.3-1.223 2.2-2.691 2.2zM21.159 28.1h-0.978v-2.1c0-2.5-2.446-4.5-5.504-4.5h-0.978c-3.547-0.1-6.36 2.3-6.36 5.1v1.2h-0.489v-2c0-2.9 3.669-5.8 7.461-5.8h1.101c2.813 0 5.504 2.1 5.871 4.4 0 0.1 0 0.2 0 0.3l-0.122 3.4zM50.39 29.6c-1.468 0-2.691-1-2.691-2.2 0-0.8 0.489-1.4 1.101-1.8 0.122 0 0.122-0.1 0.245-0.1 0.122-0.1 0.245-0.1 0.245-0.2 0.122 0 0.122-0.1 0.245-0.1s0.245-0.1 0.245-0.1 0.122 0 0.245 0 0.367-0.1 0.489-0.1c0.245 0 0.367 0 0.489 0.1 0.122 0 0.122 0 0.245 0s0.245 0.1 0.245 0.1 0.122 0.1 0.245 0.1 0.245 0.1 0.245 0.2c0.122 0 0.122 0.1 0.245 0.1 0.612 0.4 1.101 1.1 1.101 1.8-0.245 1.3-1.468 2.2-2.935 2.2zM62.987 29.6c-1.468 0-2.691-1-2.691-2.2 0-0.8 0.489-1.4 1.101-1.8 0.122 0 0.122-0.1 0.245-0.1 0.122-0.1 0.245-0.1 0.245-0.2 0.122 0 0.122-0.1 0.245-0.1s0.245-0.1 0.245-0.1c0 0 0.122 0 0.245 0 0.245 0 0.367-0.1 0.489-0.1s0.367 0 0.489 0.1c0.122 0 0.122 0 0.245 0s0.245 0.1 0.245 0.1 0.122 0.1 0.245 0.1 0.245 0.1 0.245 0.2c0.122 0 0.122 0.1 0.245 0.1 0.612 0.4 1.101 1.1 1.101 1.8-0.245 1.3-1.468 2.2-2.935 2.2zM15.777 27.5c0 0.7-0.612 1.2-1.468 1.2s-1.468-0.5-1.468-1.2c0-0.7 0.612-1.2 1.468-1.2s1.468 0.5 1.468 1.2zM10.641 18h2.324v0.6h-2.324v-0.6zM11.864 14.6l-7.461 1 0.245-0.8c0.245 0.1 0.367 0.2 0.612 0.2h0.245c0.612 0 0.978-0.4 0.978-0.8v-3.9c0-0.2-0.122-0.3-0.122-0.4h6.36v4.1c0.122 0.2-0.245 0.5-0.856 0.6zM4.77 14v-3.9c0-0.2 0.245-0.5 0.612-0.5h0.245c0.245 0 0.612 0.2 0.612 0.5v3.9c0 0.2-0.245 0.5-0.612 0.5h-0.367c-0.245-0.1-0.489-0.2-0.489-0.5zM51.858 27.5c0 0.7-0.612 1.2-1.468 1.2s-1.468-0.5-1.468-1.2c0-0.7 0.612-1.2 1.468-1.2s1.468 0.5 1.468 1.2zM64.455 27.5c0 0.7-0.612 1.2-1.468 1.2s-1.468-0.5-1.468-1.2c0-0.7 0.612-1.2 1.468-1.2s1.468 0.5 1.468 1.2z"></path>
</symbol>
<symbol id="icon-tipper-truck" viewBox="0 0 81 32">
<path fill="#ea725d" style="fill: var(--color1, #ea725d)" d="M16.138 26.65c0 0.808-0.645 1.413-1.506 1.413s-1.506-0.606-1.506-1.413c0-0.808 0.646-1.413 1.506-1.413s1.506 0.606 1.506 1.413zM10.974 16.252h2.367v-0.606h-2.367v0.606zM13.125 10.498v-4.744h-6.455c0.108 0.202 0.215 0.303 0.215 0.505v4.543c0 0.606-0.538 1.009-1.076 1.009h-0.43c-0.215 0-0.43-0.101-0.646-0.202l-0.215 1.009 7.638-1.211c0.538 0.101 0.968-0.303 0.968-0.909zM5.379 11.407h0.215c0.215 0 0.538-0.202 0.538-0.505v-4.644c0.108-0.303-0.215-0.505-0.43-0.505h-0.323c-0.215 0-0.43 0.202-0.43 0.505v4.543c0 0.404 0.108 0.606 0.43 0.606zM51.533 25.237c-0.861 0-1.506 0.606-1.506 1.413s0.645 1.413 1.506 1.413c0.861 0 1.506-0.606 1.506-1.413s-0.645-1.413-1.506-1.413zM64.443 25.237c-0.861 0-1.506 0.606-1.506 1.413s0.645 1.413 1.506 1.413 1.506-0.606 1.506-1.413c0-0.808-0.646-1.413-1.506-1.413zM73.265 20.189v0.909h3.227v3.533h-0.645l1.506 1.211v-0.808h1.183v3.028h-1.291v-0.808l-2.367-1.514h-3.443c0 0.303 0.108 0.606 0.108 0.909v0.505h-1.291c-0.215 1.312-0.753 2.423-1.613 3.331-1.076 1.009-2.475 1.514-4.088 1.514s-3.012-0.606-4.088-1.514c-0.968-0.909-1.506-2.019-1.614-3.331h-1.506c-0.215 1.312-0.753 2.423-1.614 3.331-1.076 1.009-2.474 1.514-4.088 1.514s-3.012-0.606-4.088-1.514c-0.968-0.909-1.506-2.019-1.614-3.331h-1.291v-0.505c0-0.707 0.108-1.413 0.215-2.019h-1.614v1.716c0 0.606-0.538 1.009-1.076 1.009h-7.746c-0.645 0-1.076-0.505-1.076-1.009v-0.606h-0.753v0.101c0 0.707-0.645 1.413-1.506 1.413-0.646 0-1.076-0.303-1.399-0.808h-1.829c-0.215 0.505-0.753 0.808-1.399 0.808-0.753 0-1.506-0.606-1.506-1.413v-0.101h-0.538v1.413h-2.152v0.908h-2.367c-0.215 0.909-0.753 1.716-1.506 2.322-0.968 1.009-2.367 1.615-3.981 1.615s-3.012-0.606-4.088-1.514c-0.753-0.707-1.291-1.716-1.506-2.726-0.215 0.101-0.323 0.202-0.43 0.404l-0.215 0.202h-4.303l-3.873-1.009v-4.644l0.538-1.514h-0.538v-5.855c0-1.918 1.183-5.754 2.259-8.782 0.323-0.909 0.645-1.716 0.753-2.322 0.538-1.817 2.905-2.625 7.208-2.625h2.474c2.367-1.211 4.196-1.514 6.67-1.615 0.646 0 1.076 0.404 1.076 1.009 0.323 4.946 0.753 9.893 1.076 14.738v5.148c0 0.101 0.108 0.101 0.108 0.202h0.968v-7.47h0.753v-5.35l-1.829-2.726 1.506-1.009 5.272 1.413 2.044 2.826h47.982v-0.303c0-0.808 0.646-1.413 1.507-1.413s1.506 0.606 1.506 1.413v11.71h-8.069zM47.552 20.997c0.646-0.404 1.506-0.707 2.582-0.909h-7.316v0.909c0 0 4.734 0 4.734 0zM60.462 20.997c0.646-0.404 1.506-0.707 2.582-0.909h-10.005c1.076 0.202 1.937 0.404 2.582 0.909 0 0 4.841 0 4.841 0zM23.023 5.956l3.012 4.341v8.883h54.33v-10.7c0-0.202-0.215-0.404-0.431-0.404s-0.43 0.202-0.43 0.404v1.211h-49.596l-2.259-2.726-4.411-1.211-0.215 0.202zM24.314 13.527h0.538v-3.028l-0.538-0.707v3.735zM25.175 20.997h9.145v-0.909h-9.145v0.909zM4.088 4.24c-0.108 0.202-0.108 0.404-0.215 0.606h0.753l-1.937 8.278c0 0-0.645 0.101-1.399 0.303-0.108 0.707-0.215 1.312-0.215 1.716v0.404h0.861v3.331h-0.861v1.11h0.968l-0.968 2.524h1.506v1.211h3.658c0.645-3.432 4.303-6.36 8.176-6.36h1.076c0.861 0 1.721 0.202 2.474 0.505v-15.546h-7.854c-3.443 0-5.702 0.707-6.025 1.918zM2.69 25.338h3.658v-0.606c0-0.202 0-0.202 0-0.404h-3.658c0 0.101 0 1.009 0 1.009zM4.088 27.155h2.259v-1.11h-5.272v0.303l3.012 0.808zM17.429 26.65c0-1.413-1.183-2.625-2.797-2.625s-2.797 1.211-2.797 2.625c0 1.413 1.183 2.625 2.797 2.625s2.797-1.211 2.797-2.625zM21.732 27.155v-3.634c0-0.202 0-0.202 0-0.404-0.323-2.625-3.12-5.047-6.025-5.047h-1.076c-3.765 0-7.531 3.331-7.531 6.662v2.423h0.645v-1.413c0-3.432 2.905-6.158 6.563-6.158h0.968c3.12 0 5.594 2.322 5.594 5.249v2.524h0.968c-0.108 0-0.108-0.202-0.108-0.202zM54.437 26.65c0-0.909-0.43-1.615-1.076-2.12-0.108 0-0.108-0.101-0.215-0.101-0.108-0.101-0.215-0.101-0.215-0.202-0.108 0-0.108-0.101-0.215-0.101s-0.215-0.101-0.323-0.101c-0.108 0-0.108 0-0.215-0.101-0.215 0-0.323-0.101-0.538-0.101s-0.323 0-0.538 0.101c-0.108 0-0.108 0-0.215 0.101-0.108 0-0.215 0.101-0.323 0.101s-0.108 0.101-0.215 0.101-0.215 0.101-0.215 0.202c-0.108 0-0.108 0.101-0.215 0.101-0.645 0.505-1.076 1.211-1.076 2.12 0 1.413 1.183 2.625 2.797 2.625 1.506 0 2.797-1.211 2.797-2.625zM67.24 26.65c0-0.909-0.431-1.615-1.076-2.12-0.108 0-0.108-0.101-0.215-0.101-0.108-0.101-0.215-0.101-0.215-0.202-0.108 0-0.108-0.101-0.215-0.101s-0.215-0.101-0.323-0.101c-0.108 0-0.108 0-0.215-0.101-0.215 0-0.323-0.101-0.538-0.101s-0.323 0-0.538 0.101c-0.108 0-0.108 0-0.215 0.101-0.108 0-0.215 0.101-0.323 0.101s-0.108 0.101-0.215 0.101-0.215 0.101-0.215 0.202c-0.108 0-0.108 0.101-0.215 0.101-0.645 0.505-1.076 1.211-1.076 2.12 0 1.413 1.183 2.625 2.797 2.625s2.797-1.211 2.797-2.625zM55.944 17.464l-3.658-5.855-0.968 0.505 3.658 5.855 0.968-0.505zM46.476 17.464l-3.55-5.855-0.968 0.505 3.55 5.855 0.968-0.505zM37.116 17.464l-3.658-5.855-0.968 0.505 3.55 5.855 1.076-0.505zM65.303 17.464l-3.55-5.855-0.968 0.505 3.55 5.855 0.968-0.505zM74.771 17.464l-3.55-5.855-0.969 0.505 3.551 5.855 0.968-0.505z"></path>
</symbol>
</defs>
</svg>
