<svg width="85" height="60" viewBox="0 0 85 60" fill="none" xmlns="http://www.w3.org/2000/svg">
<path d="M46 0H39L46 7V0Z" fill="#EA725D"/>
<path d="M9 0H0V51H9V0Z" fill="#ADB8BA"/>
<path d="M15 0V9H28V51H37V0H15Z" fill="#ADB8BA"/>
<path d="M55 36.25C55 50.5833 80 50.5833 80 36.25C80 31.4722 75.8333 27.8889 67.5 25.5C59.1667 23.1111 55 19.5278 55 14.75C55 0.416667 80 0.416667 80 14.75" stroke="#ADB8BA" stroke-width="8"/>
<path d="M3.38342 54.5462H2.82944C2.80813 54.4278 2.76848 54.3236 2.71048 54.2337C2.65247 54.1437 2.58145 54.0674 2.49741 54.0046C2.41336 53.9419 2.31926 53.8945 2.21509 53.8626C2.11211 53.8306 2.00262 53.8146 1.88661 53.8146C1.6771 53.8146 1.48948 53.8673 1.32376 53.9727C1.15922 54.078 1.02901 54.2325 0.933133 54.4361C0.838436 54.6397 0.791087 54.8883 0.791087 55.1818C0.791087 55.4777 0.838436 55.7275 0.933133 55.9311C1.02901 56.1347 1.15981 56.2886 1.32553 56.3928C1.49125 56.4969 1.67769 56.549 1.88484 56.549C1.99966 56.549 2.10856 56.5336 2.21154 56.5028C2.31571 56.4709 2.40981 56.4241 2.49386 56.3626C2.5779 56.301 2.64892 56.2259 2.70693 56.1371C2.76611 56.0471 2.80695 55.9441 2.82944 55.8281L3.38342 55.8299C3.35382 56.0086 3.29641 56.1732 3.21119 56.3235C3.12714 56.4727 3.01883 56.6017 2.88626 56.7106C2.75487 56.8183 2.60453 56.9018 2.43526 56.9609C2.26599 57.0201 2.08133 57.0497 1.88129 57.0497C1.56642 57.0497 1.28588 56.9751 1.03967 56.826C0.793455 56.6757 0.599326 56.4608 0.457281 56.1815C0.316419 55.9021 0.245988 55.5689 0.245988 55.1818C0.245988 54.7936 0.317011 54.4603 0.459056 54.1822C0.601102 53.9028 0.79523 53.6886 1.04144 53.5394C1.28765 53.3891 1.5676 53.3139 1.88129 53.3139C2.07423 53.3139 2.25416 53.3417 2.42106 53.3974C2.58915 53.4518 2.74007 53.5323 2.87383 53.6388C3.00759 53.7442 3.11827 53.8732 3.20586 54.0259C3.29345 54.1774 3.35264 54.3509 3.38342 54.5462ZM6.02269 57H5.44031L6.7489 53.3636H7.38278L8.69137 57H8.10898L7.08093 54.0241H7.05252L6.02269 57ZM6.12035 55.576H8.00955V56.0376H6.12035V55.576ZM10.9165 57V53.3636H12.2127C12.4944 53.3636 12.7282 53.4122 12.914 53.5092C13.101 53.6063 13.2407 53.7406 13.333 53.9123C13.4254 54.0827 13.4715 54.2798 13.4715 54.5036C13.4715 54.7261 13.4248 54.922 13.3313 55.0913C13.2389 55.2594 13.0993 55.3902 12.9122 55.4837C12.7264 55.5772 12.4926 55.6239 12.2109 55.6239H11.229V55.1516H12.1612C12.3387 55.1516 12.4831 55.1262 12.5944 55.0753C12.7069 55.0244 12.7891 54.9504 12.8412 54.8533C12.8933 54.7563 12.9193 54.6397 12.9193 54.5036C12.9193 54.3662 12.8927 54.2473 12.8394 54.1467C12.7874 54.046 12.7051 53.9691 12.5926 53.9158C12.4814 53.8614 12.3352 53.8342 12.1541 53.8342H11.4651V57H10.9165ZM12.7116 55.3594L13.61 57H12.985L12.1044 55.3594H12.7116ZM15.8392 57V53.3636H17.1353C17.417 53.3636 17.6508 53.4122 17.8367 53.5092C18.0237 53.6063 18.1634 53.7406 18.2557 53.9123C18.348 54.0827 18.3942 54.2798 18.3942 54.5036C18.3942 54.7261 18.3474 54.922 18.2539 55.0913C18.1616 55.2594 18.0219 55.3902 17.8349 55.4837C17.649 55.5772 17.4153 55.6239 17.1335 55.6239H16.1517V55.1516H17.0838C17.2614 55.1516 17.4058 55.1262 17.5171 55.0753C17.6295 55.0244 17.7118 54.9504 17.7639 54.8533C17.816 54.7563 17.842 54.6397 17.842 54.5036C17.842 54.3662 17.8154 54.2473 17.7621 54.1467C17.71 54.046 17.6277 53.9691 17.5153 53.9158C17.404 53.8614 17.2578 53.8342 17.0767 53.8342H16.3878V57H15.8392ZM17.6343 55.3594L18.5327 57H17.9077L17.027 55.3594H17.6343ZM20.3494 53.3636H20.9727L21.9226 55.0167H21.9616L22.9116 53.3636H23.5348L22.2156 55.5724V57H21.6687V55.5724L20.3494 53.3636ZM31.9348 55.1818C31.9348 55.5701 31.8638 55.9039 31.7217 56.1832C31.5797 56.4614 31.385 56.6757 31.1376 56.826C30.8914 56.9751 30.6114 57.0497 30.2977 57.0497C29.9829 57.0497 29.7017 56.9751 29.4543 56.826C29.2081 56.6757 29.014 56.4608 28.8719 56.1815C28.7299 55.9021 28.6589 55.5689 28.6589 55.1818C28.6589 54.7936 28.7299 54.4603 28.8719 54.1822C29.014 53.9028 29.2081 53.6886 29.4543 53.5394C29.7017 53.3891 29.9829 53.3139 30.2977 53.3139C30.6114 53.3139 30.8914 53.3891 31.1376 53.5394C31.385 53.6886 31.5797 53.9028 31.7217 54.1822C31.8638 54.4603 31.9348 54.7936 31.9348 55.1818ZM31.3915 55.1818C31.3915 54.8859 31.3435 54.6367 31.2477 54.4343C31.153 54.2307 31.0228 54.0768 30.857 53.9727C30.6925 53.8673 30.5061 53.8146 30.2977 53.8146C30.0882 53.8146 29.9012 53.8673 29.7366 53.9727C29.5721 54.0768 29.4419 54.2307 29.346 54.4343C29.2513 54.6367 29.204 54.8859 29.204 55.1818C29.204 55.4777 29.2513 55.7275 29.346 55.9311C29.4419 56.1335 29.5721 56.2874 29.7366 56.3928C29.9012 56.4969 30.0882 56.549 30.2977 56.549C30.5061 56.549 30.6925 56.4969 30.857 56.3928C31.0228 56.2874 31.153 56.1335 31.2477 55.9311C31.3435 55.7275 31.3915 55.4777 31.3915 55.1818ZM37.2539 53.3636V57H36.7496L34.9012 54.3331H34.8675V57H34.3188V53.3636H34.8267L36.6768 56.0341H36.7105V53.3636H37.2539ZM45.7977 54.5462H45.2437C45.2224 54.4278 45.1827 54.3236 45.1247 54.2337C45.0667 54.1437 44.9957 54.0674 44.9117 54.0046C44.8276 53.9419 44.7335 53.8945 44.6294 53.8626C44.5264 53.8306 44.4169 53.8146 44.3009 53.8146C44.0914 53.8146 43.9037 53.8673 43.738 53.9727C43.5735 54.078 43.4433 54.2325 43.3474 54.4361C43.2527 54.6397 43.2053 54.8883 43.2053 55.1818C43.2053 55.4777 43.2527 55.7275 43.3474 55.9311C43.4433 56.1347 43.5741 56.2886 43.7398 56.3928C43.9055 56.4969 44.0919 56.549 44.2991 56.549C44.4139 56.549 44.5228 56.5336 44.6258 56.5028C44.73 56.4709 44.8241 56.4241 44.9081 56.3626C44.9922 56.301 45.0632 56.2259 45.1212 56.1371C45.1804 56.0471 45.2212 55.9441 45.2437 55.8281L45.7977 55.8299C45.7681 56.0086 45.7107 56.1732 45.6254 56.3235C45.5414 56.4727 45.4331 56.6017 45.3005 56.7106C45.1691 56.8183 45.0188 56.9018 44.8495 56.9609C44.6802 57.0201 44.4956 57.0497 44.2955 57.0497C43.9807 57.0497 43.7001 56.9751 43.4539 56.826C43.2077 56.6757 43.0136 56.4608 42.8715 56.1815C42.7307 55.9021 42.6602 55.5689 42.6602 55.1818C42.6602 54.7936 42.7313 54.4603 42.8733 54.1822C43.0154 53.9028 43.2095 53.6886 43.4557 53.5394C43.7019 53.3891 43.9819 53.3139 44.2955 53.3139C44.4885 53.3139 44.6684 53.3417 44.8353 53.3974C45.0034 53.4518 45.1543 53.5323 45.2881 53.6388C45.4218 53.7442 45.5325 53.8732 45.6201 54.0259C45.7077 54.1774 45.7669 54.3509 45.7977 54.5462ZM48.437 57H47.8546L49.1632 53.3636H49.797L51.1056 57H50.5232L49.4952 54.0241H49.4668L48.437 57ZM48.5346 55.576H50.4238V56.0376H48.5346V55.576ZM53.3308 57V53.3636H54.6269C54.9086 53.3636 55.1424 53.4122 55.3283 53.5092C55.5153 53.6063 55.655 53.7406 55.7473 53.9123C55.8396 54.0827 55.8858 54.2798 55.8858 54.5036C55.8858 54.7261 55.839 54.922 55.7455 55.0913C55.6532 55.2594 55.5135 55.3902 55.3265 55.4837C55.1407 55.5772 54.9069 55.6239 54.6251 55.6239H53.6433V55.1516H54.5754C54.753 55.1516 54.8974 55.1262 55.0087 55.0753C55.1211 55.0244 55.2034 54.9504 55.2555 54.8533C55.3076 54.7563 55.3336 54.6397 55.3336 54.5036C55.3336 54.3662 55.307 54.2473 55.2537 54.1467C55.2016 54.046 55.1193 53.9691 55.0069 53.9158C54.8956 53.8614 54.7494 53.8342 54.5683 53.8342H53.8794V57H53.3308ZM55.1259 55.3594L56.0243 57H55.3993L54.5186 55.3594H55.1259ZM58.2534 57V53.3636H59.5496C59.8313 53.3636 60.0651 53.4122 60.2509 53.5092C60.438 53.6063 60.5776 53.7406 60.67 53.9123C60.7623 54.0827 60.8085 54.2798 60.8085 54.5036C60.8085 54.7261 60.7617 54.922 60.6682 55.0913C60.5759 55.2594 60.4362 55.3902 60.2492 55.4837C60.0633 55.5772 59.8295 55.6239 59.5478 55.6239H58.5659V55.1516H59.4981C59.6756 55.1516 59.8201 55.1262 59.9313 55.0753C60.0438 55.0244 60.126 54.9504 60.1781 54.8533C60.2302 54.7563 60.2563 54.6397 60.2563 54.5036C60.2563 54.3662 60.2296 54.2473 60.1764 54.1467C60.1243 54.046 60.042 53.9691 59.9295 53.9158C59.8183 53.8614 59.6721 53.8342 59.491 53.8342H58.8021V57H58.2534ZM60.0485 55.3594L60.9469 57H60.3219L59.4413 55.3594H60.0485ZM62.7637 53.3636H63.3869L64.3368 55.0167H64.3759L65.3258 53.3636H65.9491L64.6298 55.5724V57H64.0829V55.5724L62.7637 53.3636ZM71.4975 57H70.9151L72.2237 53.3636H72.8576L74.1662 57H73.5838L72.5557 54.0241H72.5273L71.4975 57ZM71.5951 55.576H73.4844V56.0376H71.5951V55.576ZM76.3913 57V53.3636H76.9399V56.5277H78.5877V57H76.3913ZM80.9136 57V53.3636H81.4622V56.5277H83.1099V57H80.9136Z" fill="#EA725D"/>
</svg>
