<svg width="98" height="48" viewBox="0 0 98 48" fill="none" xmlns="http://www.w3.org/2000/svg">
<path d="M57.9829 43.5982L53.008 44.1481V42.4596L57.9829 41.952V43.5982Z" fill="#EA725D"/>
<path d="M77.8472 41.4122L73.3574 41.9009V40.5049L77.8472 40.0763V41.4122Z" fill="#EA725D"/>
<path d="M20.8362 45.531L22.7961 45.7802L26.307 45.4113V47.332" stroke="#EA725D" stroke-miterlimit="10"/>
<path d="M21.9279 45.2917L22.7963 45.4378" stroke="#EA725D" stroke-miterlimit="10"/>
<mask id="mask0_11_351" style="mask-type:luminance" maskUnits="userSpaceOnUse" x="0" y="0" width="98" height="48">
<path d="M98 0H0V48H98V0Z" fill="white"/>
</mask>
<g mask="url(#mask0_11_351)">
<path d="M26.307 45.4113V0.50732L22.7963 0.0487518" stroke="#EA725D" stroke-miterlimit="10"/>
</g>
<path d="M21.9279 2.4016L22.7963 2.21556L26.307 2.61435" stroke="#EA725D" stroke-miterlimit="10"/>
<mask id="mask1_11_351" style="mask-type:luminance" maskUnits="userSpaceOnUse" x="0" y="0" width="98" height="48">
<path d="M98 0H0V48H98V0Z" fill="white"/>
</mask>
<g mask="url(#mask1_11_351)">
<path d="M24.6571 2.14907C24.5475 2.14907 24.4423 2.11406 24.3648 2.05174C24.2872 1.98942 24.2437 1.9049 24.2437 1.81677V1.11215C24.2437 1.02402 24.2872 0.939496 24.3648 0.877176C24.4423 0.814857 24.5475 0.779846 24.6571 0.779846C24.7668 0.779846 24.872 0.814857 24.9495 0.877176C25.0271 0.939496 25.0706 1.02402 25.0706 1.11215V1.81677C25.0706 1.86041 25.0599 1.90362 25.0392 1.94394C25.0184 1.98425 24.9879 2.02089 24.9495 2.05174C24.9111 2.0826 24.8656 2.10708 24.8154 2.12378C24.7652 2.14048 24.7114 2.14907 24.6571 2.14907Z" stroke="#EA725D" stroke-miterlimit="10"/>
<path d="M96.0898 10.6121L96.4599 10.5325L97.9556 10.7023" stroke="#EA725D" stroke-miterlimit="10"/>
<path d="M96.1118 38.4126L96.4599 38.5535L97.9556 38.4035" stroke="#EA725D" stroke-miterlimit="10"/>
<path d="M97.2526 10.5046C97.2059 10.5045 97.1612 10.4896 97.1282 10.4631C97.0952 10.4366 97.0766 10.4006 97.0766 10.3631V10.0628C97.0766 10.0253 97.0951 9.98927 97.1282 9.96272C97.1612 9.93618 97.206 9.92126 97.2527 9.92126C97.2994 9.92126 97.3442 9.93618 97.3772 9.96272C97.4103 9.98927 97.4288 10.0253 97.4288 10.0628V10.3631C97.4288 10.4006 97.4102 10.4366 97.3772 10.4631C97.3441 10.4897 97.2993 10.5046 97.2526 10.5046Z" stroke="#EA725D" stroke-miterlimit="10"/>
<path d="M97.2323 39.3238C97.2065 39.3238 97.1809 39.3197 97.157 39.3118C97.1332 39.3038 97.1115 39.2922 97.0933 39.2775C97.075 39.2629 97.0606 39.2454 97.0507 39.2263C97.0408 39.2071 97.0357 39.1866 97.0357 39.1658V38.8309C97.0357 38.789 97.0564 38.7488 97.0933 38.7192C97.1301 38.6896 97.1801 38.6729 97.2323 38.6729C97.2844 38.6729 97.3344 38.6896 97.3713 38.7192C97.4081 38.7488 97.4288 38.789 97.4288 38.8309V39.1658C97.4288 39.2077 97.4081 39.2479 97.3713 39.2775C97.3344 39.3072 97.2844 39.3238 97.2323 39.3238Z" stroke="#EA725D" stroke-miterlimit="10"/>
<path d="M21.8162 2.2151C21.7909 2.2151 21.7659 2.2111 21.7426 2.20334C21.7192 2.19557 21.698 2.18418 21.6802 2.16983C21.6623 2.15548 21.6481 2.13844 21.6385 2.11969C21.6288 2.10094 21.6238 2.08084 21.6238 2.06054V0.963841C21.6238 0.922849 21.6441 0.883536 21.6802 0.85455C21.7162 0.825564 21.7652 0.80928 21.8162 0.80928C21.8672 0.80928 21.9161 0.825564 21.9522 0.85455C21.9882 0.883536 22.0085 0.922849 22.0085 0.963841V2.06054C22.0085 2.10153 21.9882 2.14085 21.9522 2.16983C21.9161 2.19882 21.8672 2.2151 21.8162 2.2151Z" stroke="#EA725D" stroke-miterlimit="10"/>
<path d="M24.6571 47.3139C24.6083 47.3263 24.5565 47.329 24.5061 47.3218C24.4557 47.3146 24.4081 47.2977 24.3676 47.2727C24.327 47.2476 24.2945 47.215 24.273 47.1777C24.2514 47.1404 24.2413 47.0994 24.2436 47.0583V46.3537C24.249 46.2589 24.2921 46.168 24.3665 46.0944C24.4409 46.0207 24.5428 45.9682 24.6571 45.9446C24.706 45.9323 24.7578 45.9296 24.8082 45.9368C24.8586 45.944 24.9061 45.9608 24.9466 45.9859C24.9872 46.011 25.0197 46.0435 25.0412 46.0808C25.0628 46.1181 25.0729 46.1591 25.0706 46.2002V46.9048C25.0653 46.9996 25.0222 47.0905 24.9478 47.1641C24.8733 47.2378 24.7715 47.2903 24.6571 47.3139Z" stroke="#EA725D" stroke-miterlimit="10"/>
<path d="M21.8162 47.3322C21.7909 47.3322 21.7659 47.3282 21.7426 47.3204C21.7192 47.3127 21.698 47.3013 21.6802 47.2869C21.6623 47.2726 21.6481 47.2555 21.6385 47.2368C21.6288 47.218 21.6238 47.1979 21.6238 47.1776V46.0809C21.6238 46.04 21.6441 46.0006 21.6802 45.9717C21.7162 45.9427 21.7652 45.9264 21.8162 45.9264C21.8672 45.9264 21.9161 45.9427 21.9522 45.9717C21.9882 46.0006 22.0085 46.04 22.0085 46.0809V47.1776C22.0085 47.2186 21.9882 47.258 21.9522 47.2869C21.9161 47.3159 21.8672 47.3322 21.8162 47.3322Z" stroke="#EA725D" stroke-miterlimit="10"/>
<path d="M96.4594 10.5327V9.60959L97.9552 9.80495V39.6575L96.4594 39.83L96.1114 39.6163V39.3571" stroke="#EA725D" stroke-miterlimit="10"/>
<path d="M22.7963 47.9636V0.0487518L20.8363 0.54721V2.64094L21.9279 2.40228V45.2917L20.8363 45.531V47.5449L22.7963 47.9637L26.3113 47.5848V47.3323L96.1119 39.6164" stroke="#EA725D" stroke-miterlimit="10"/>
<path d="M26.307 1.07238L96.4599 9.95315" stroke="#EA725D" stroke-miterlimit="10"/>
<path d="M16.6348 3.25055L20.8362 2.30193" stroke="#EA725D" stroke-miterlimit="10"/>
<path d="M12.4335 4.19928L16.0519 3.38226" stroke="#EA725D" stroke-miterlimit="10"/>
<path d="M9.30728 4.90514L11.8503 4.33088" stroke="#EA725D" stroke-miterlimit="10"/>
<path d="M5.70547 5.71829L8.7231 5.03697" stroke="#EA725D" stroke-miterlimit="10"/>
<path d="M20.8362 0.926109L1.38416 5.59191L2.20294 6.50916L5.12186 5.85001" stroke="#EA725D" stroke-miterlimit="10"/>
<path d="M2.35114 5.36008V5.23359L1.11915 5.16665L0.0444031 5.43247V8.39674L0.218059 8.53642V9.51379L0.0568475 9.64312V18.3733L0.304887 18.5726V19.7192L0.0444031 19.9282V28.7416L0.255251 28.9111V29.918L0.0506253 30.0828V38.891L0.270665 39.0681V40.1273L0.0458172 40.308V43.2179L1.19763 43.4572L3.41782 43.3375L3.69075 43.3574L19.7931 46.7271L20.8353 46.6291" stroke="#EA725D" stroke-miterlimit="10"/>
<path d="M1.19791 43.4573V41.7619L2.17819 41.6289" stroke="#EA725D" stroke-miterlimit="10"/>
<path d="M0.0444031 41.6295L1.19791 41.7624" stroke="#EA725D" stroke-miterlimit="10"/>
<path d="M22.7963 3.77083L23.8466 3.8905V5.35326L22.7963 5.526" stroke="#EA725D" stroke-miterlimit="10"/>
<path d="M22.7963 16.6918L23.8466 16.8113V18.2736L22.7963 18.4464" stroke="#EA725D" stroke-miterlimit="10"/>
<path d="M22.7963 29.5593L23.8466 29.6789V31.1412L22.7963 31.3139" stroke="#EA725D" stroke-miterlimit="10"/>
<path d="M22.7963 42.4801L23.8466 42.5997V44.0619L22.7963 44.2347" stroke="#EA725D" stroke-miterlimit="10"/>
<path d="M26.307 44.8863L96.1118 38.0452" stroke="#EA725D" stroke-miterlimit="10"/>
<path d="M96.1118 10.6055L26.307 2.14907" stroke="#EA725D" stroke-miterlimit="10"/>
<path d="M27.3034 2.26977V44.3375" stroke="#EA725D" stroke-miterlimit="10"/>
<path d="M26.307 44.4343L96.1118 37.6498" stroke="#EA725D" stroke-miterlimit="10"/>
<path d="M29.8918 2.58309L28.1058 3.05962L27.3031 2.92017" stroke="#EA725D" stroke-miterlimit="10"/>
<path d="M34.8977 3.19145L33.4003 3.60888L32.0495 3.50932L31.3425 2.75857" stroke="#EA725D" stroke-miterlimit="10"/>
<path d="M31.3425 2.75868V43.9449" stroke="#EA725D" stroke-miterlimit="10"/>
<path d="M29.9795 2.59367V44.0773" stroke="#EA725D" stroke-miterlimit="10"/>
<path d="M28.1058 3.05973V44.235" stroke="#EA725D" stroke-miterlimit="10"/>
<path d="M32.0508 3.50944V43.8761" stroke="#EA725D" stroke-miterlimit="10"/>
<path d="M33.4155 3.62241V43.7434" stroke="#EA725D" stroke-miterlimit="10"/>
<path d="M39.6819 3.76822L38.2784 4.2561L37.0502 4.14632L36.3318 3.36215" stroke="#EA725D" stroke-miterlimit="10"/>
<path d="M35.1053 3.21418V43.5791" stroke="#EA725D" stroke-miterlimit="10"/>
<path d="M36.3318 3.36272V43.46" stroke="#EA725D" stroke-miterlimit="10"/>
<path d="M37.0295 4.14632V43.3922" stroke="#EA725D" stroke-miterlimit="10"/>
<path d="M38.2949 4.2561V43.2693" stroke="#EA725D" stroke-miterlimit="10"/>
<path d="M39.908 3.7956V43.1125" stroke="#EA725D" stroke-miterlimit="10"/>
<path d="M41.1689 3.94823V42.9898" stroke="#EA725D" stroke-miterlimit="10"/>
<path d="M44.4218 4.34202L42.918 4.79388L41.7932 4.68921L41.1689 3.94766" stroke="#EA725D" stroke-miterlimit="10"/>
<path d="M48.7611 4.8673L47.3447 5.30291L46.2593 5.19335L45.6969 4.48874" stroke="#EA725D" stroke-miterlimit="10"/>
<path d="M52.917 5.37633L51.5713 5.81194L50.5401 5.70238L50.0057 4.99776" stroke="#EA725D" stroke-miterlimit="10"/>
<path d="M56.8805 5.85308L55.5653 6.24153L54.5357 6.13799L54.1098 5.51191" stroke="#EA725D" stroke-miterlimit="10"/>
<path d="M60.6994 6.31756L59.4354 6.70601L58.4455 6.60247L58.0354 5.97639" stroke="#EA725D" stroke-miterlimit="10"/>
<path d="M64.3072 6.7493L63.0519 7.10741L62.1483 7.01308L61.7744 6.44314" stroke="#EA725D" stroke-miterlimit="10"/>
<path d="M42.9098 4.79445V42.8206" stroke="#EA725D" stroke-miterlimit="10"/>
<path d="M41.7768 4.67149V42.9307" stroke="#EA725D" stroke-miterlimit="10"/>
<path d="M44.5308 4.3552V42.6631" stroke="#EA725D" stroke-miterlimit="10"/>
<path d="M45.6969 4.48817V42.5498" stroke="#EA725D" stroke-miterlimit="10"/>
<path d="M46.2593 5.19324V42.4951" stroke="#EA725D" stroke-miterlimit="10"/>
<path d="M47.318 5.30291V42.3923" stroke="#EA725D" stroke-miterlimit="10"/>
<path d="M48.7611 4.85753V42.2519" stroke="#EA725D" stroke-miterlimit="10"/>
<path d="M50.0389 4.99709V42.1277" stroke="#EA725D" stroke-miterlimit="10"/>
<path d="M50.5268 5.6909V42.0804" stroke="#EA725D" stroke-miterlimit="10"/>
<path d="M51.5802 5.78057V41.9779" stroke="#EA725D" stroke-miterlimit="10"/>
<path d="M52.9748 5.40451V41.8425" stroke="#EA725D" stroke-miterlimit="10"/>
<path d="M54.1327 5.54407V41.7298" stroke="#EA725D" stroke-miterlimit="10"/>
<path d="M57.0522 5.87672V41.446" stroke="#EA725D" stroke-miterlimit="10"/>
<path d="M58.4458 6.59463V41.3107" stroke="#EA725D" stroke-miterlimit="10"/>
<path d="M59.4283 6.706V41.2008" stroke="#EA725D" stroke-miterlimit="10"/>
<path d="M60.7821 6.30733V41.0844" stroke="#EA725D" stroke-miterlimit="10"/>
<path d="M61.7745 6.41359V40.9871" stroke="#EA725D" stroke-miterlimit="10"/>
<path d="M62.1467 7.00183V40.951" stroke="#EA725D" stroke-miterlimit="10"/>
<path d="M64.3962 6.77533V40.7323" stroke="#EA725D" stroke-miterlimit="10"/>
<path d="M65.3142 6.8883V40.6282" stroke="#EA725D" stroke-miterlimit="10"/>
<path d="M65.6037 7.44665V40.5927" stroke="#EA725D" stroke-miterlimit="10"/>
<path d="M66.53 7.56927V40.5248" stroke="#EA725D" stroke-miterlimit="10"/>
<path d="M67.8656 7.17094V40.3907" stroke="#EA725D" stroke-miterlimit="10"/>
<path d="M68.7806 7.28061V40.2837" stroke="#EA725D" stroke-miterlimit="10"/>
<path d="M69.0117 7.82396V40.2838" stroke="#EA725D" stroke-miterlimit="10"/>
<path d="M69.8526 7.92533V40.1913" stroke="#EA725D" stroke-miterlimit="10"/>
<path d="M71.1902 7.56927V40.0719" stroke="#EA725D" stroke-miterlimit="10"/>
<path d="M71.9843 7.66905V39.9949" stroke="#EA725D" stroke-miterlimit="10"/>
<path d="M72.2697 8.23025V39.9672" stroke="#EA725D" stroke-miterlimit="10"/>
<path d="M73.0139 8.33083V39.8948" stroke="#EA725D" stroke-miterlimit="10"/>
<path d="M74.2452 7.96999V39.7751" stroke="#EA725D" stroke-miterlimit="10"/>
<path d="M75.1261 8.04977V39.6895" stroke="#EA725D" stroke-miterlimit="10"/>
<path d="M75.3463 8.60619V39.6205" stroke="#EA725D" stroke-miterlimit="10"/>
<path d="M76.074 8.6879V39.5973" stroke="#EA725D" stroke-miterlimit="10"/>
<path d="M77.3228 8.33083V39.476" stroke="#EA725D" stroke-miterlimit="10"/>
<path d="M78.1167 8.4239V39.3988" stroke="#EA725D" stroke-miterlimit="10"/>
<path d="M78.3318 8.90577V39.3779" stroke="#EA725D" stroke-miterlimit="10"/>
<path d="M79.0141 9.00828V39.3037" stroke="#EA725D" stroke-miterlimit="10"/>
<path d="M80.2298 8.68256V39.1933" stroke="#EA725D" stroke-miterlimit="10"/>
<path d="M81.0031 8.76575V39.111" stroke="#EA725D" stroke-miterlimit="10"/>
<path d="M81.2047 9.26251V39.0857" stroke="#EA725D" stroke-miterlimit="10"/>
<path d="M81.8487 9.33808V39.0301" stroke="#EA725D" stroke-miterlimit="10"/>
<path d="M82.9323 9.00828V38.922" stroke="#EA725D" stroke-miterlimit="10"/>
<path d="M83.7737 9.09476V38.849" stroke="#EA725D" stroke-miterlimit="10"/>
<path d="M84.5759 9.63721V38.771" stroke="#EA725D" stroke-miterlimit="10"/>
<path d="M85.7421 9.33808V38.6543" stroke="#EA725D" stroke-miterlimit="10"/>
<path d="M86.4368 9.41786V38.5935" stroke="#EA725D" stroke-miterlimit="10"/>
<path d="M87.1563 10.0161V38.5203" stroke="#EA725D" stroke-miterlimit="10"/>
<path d="M88.3597 9.63721V38.4034" stroke="#EA725D" stroke-miterlimit="10"/>
<path d="M88.9924 9.73698V38.3419" stroke="#EA725D" stroke-miterlimit="10"/>
<path d="M89.656 10.3301V38.2772" stroke="#EA725D" stroke-miterlimit="10"/>
<path d="M90.8283 9.97121V38.1598" stroke="#EA725D" stroke-miterlimit="10"/>
<path d="M91.4238 10.0161V38.1055" stroke="#EA725D" stroke-miterlimit="10"/>
<path d="M92.0441 10.5545V38.0451" stroke="#EA725D" stroke-miterlimit="10"/>
<path d="M93.173 10.2553V37.9354" stroke="#EA725D" stroke-miterlimit="10"/>
<path d="M93.8057 10.3301V37.874" stroke="#EA725D" stroke-miterlimit="10"/>
<path d="M94.3887 10.8486V37.8205" stroke="#EA725D" stroke-miterlimit="10"/>
<path d="M95.468 10.5545V37.709" stroke="#EA725D" stroke-miterlimit="10"/>
<path d="M96.1118 10.6043V39.3571" stroke="#EA725D" stroke-miterlimit="10"/>
<path d="M63.0409 7.10741V40.8641" stroke="#EA725D" stroke-miterlimit="10"/>
<path d="M58.0363 5.9765V41.3505" stroke="#EA725D" stroke-miterlimit="10"/>
<path d="M54.5359 6.13799V41.6814" stroke="#EA725D" stroke-miterlimit="10"/>
<path d="M55.5655 6.24152V41.5906" stroke="#EA725D" stroke-miterlimit="10"/>
<path d="M65.3643 6.87727L65.604 7.44972L66.5303 7.56939L67.8157 7.17401" stroke="#EA725D" stroke-miterlimit="10"/>
<path d="M68.7806 7.28084L69.0016 7.83328L69.856 7.94886L71.0415 7.56723" stroke="#EA725D" stroke-miterlimit="10"/>
<path d="M71.9843 7.66905L72.2695 8.23024L73.0139 8.33082L74.2451 7.95579" stroke="#EA725D" stroke-miterlimit="10"/>
<path d="M75.1262 8.04977L75.3464 8.60665L76.072 8.68836L77.2382 8.31514" stroke="#EA725D" stroke-miterlimit="10"/>
<path d="M78.1168 8.42402L78.3272 8.93362L79.0202 9.00839L80.1344 8.66666" stroke="#EA725D" stroke-miterlimit="10"/>
<path d="M81.0028 8.76575L81.2039 9.2649L81.8667 9.33808L82.9318 9.00339" stroke="#EA725D" stroke-miterlimit="10"/>
<path d="M83.7737 9.53503L84.5759 9.63732L85.6102 9.32831" stroke="#EA725D" stroke-miterlimit="10"/>
<path d="M86.4368 9.88393L87.158 10.016L88.2044 9.63709" stroke="#EA725D" stroke-miterlimit="10"/>
<path d="M88.9922 10.2081L89.659 10.3301L90.7055 9.95132" stroke="#EA725D" stroke-miterlimit="10"/>
<path d="M91.4238 10.4507L92.0461 10.5643L92.9935 10.2216" stroke="#EA725D" stroke-miterlimit="10"/>
<path d="M93.8054 10.7417L94.3889 10.8487L95.3363 10.5059" stroke="#EA725D" stroke-miterlimit="10"/>
<path d="M1.11915 5.16665V6.9383L0.0444031 7.09741" stroke="#EA725D" stroke-miterlimit="10"/>
<path d="M2.20309 6.50906V42.4802L3.68341 42.653V43.3576" stroke="#EA725D" stroke-miterlimit="10"/>
<path d="M1.11957 6.93796H2.20294" stroke="#EA725D" stroke-miterlimit="10"/>
<path d="M1.19791 39.068V29.9133" stroke="#EA725D" stroke-miterlimit="10"/>
<path d="M1.19791 28.9188V19.5871" stroke="#EA725D" stroke-miterlimit="10"/>
<path d="M1.19791 18.5925V9.49014" stroke="#EA725D" stroke-miterlimit="10"/>
<path d="M1.19791 8.55801V6.93296" stroke="#EA725D" stroke-miterlimit="10"/>
<path d="M1.19791 40.1473V41.7624" stroke="#EA725D" stroke-miterlimit="10"/>
<path d="M0.270935 39.068H1.38428V40.1476H0.270935" stroke="#EA725D" stroke-miterlimit="10"/>
<path d="M1.38431 39.0681L2.20309 39.4794" stroke="#EA725D" stroke-miterlimit="10"/>
<path d="M1.38431 40.1473L2.20309 39.9079" stroke="#EA725D" stroke-miterlimit="10"/>
<path d="M0.270935 28.9188H1.38428V29.9133H0.270935" stroke="#EA725D" stroke-miterlimit="10"/>
<path d="M1.38431 28.9188L2.20309 29.2978" stroke="#EA725D" stroke-miterlimit="10"/>
<path d="M1.38431 29.9133L2.20309 29.6928" stroke="#EA725D" stroke-miterlimit="10"/>
<path d="M0.270935 18.5925H1.38428V19.5871H0.270935" stroke="#EA725D" stroke-miterlimit="10"/>
<path d="M1.38431 18.5925L2.20309 18.9715" stroke="#EA725D" stroke-miterlimit="10"/>
<path d="M1.38431 19.5871L2.20309 19.3666" stroke="#EA725D" stroke-miterlimit="10"/>
<path d="M0.218048 8.55801H1.38429V9.48992H0.218048" stroke="#EA725D" stroke-miterlimit="10"/>
<path d="M1.38431 8.55801L2.20309 8.93702" stroke="#EA725D" stroke-miterlimit="10"/>
<path d="M1.38431 9.49015L2.20309 9.08636" stroke="#EA725D" stroke-miterlimit="10"/>
<path d="M5.12244 5.43122V42.9139" stroke="#EA725D" stroke-miterlimit="10"/>
<path d="M5.70547 5.43122V42.9139" stroke="#EA725D" stroke-miterlimit="10"/>
<path d="M5.70546 42.9139C5.70632 42.9451 5.69941 42.9761 5.68514 43.0052C5.67088 43.0342 5.64954 43.0606 5.62239 43.083C5.59523 43.1053 5.5628 43.123 5.52701 43.1351C5.49121 43.1472 5.45277 43.1534 5.41394 43.1534C5.37511 43.1534 5.33666 43.1472 5.30087 43.1351C5.26507 43.123 5.23265 43.1053 5.20549 43.083C5.17834 43.0606 5.157 43.0342 5.14274 43.0052C5.12847 42.9761 5.12156 42.9451 5.12242 42.9139" stroke="#EA725D" stroke-miterlimit="10"/>
<path d="M5.12244 5.43156C5.12412 5.37032 5.15557 5.31204 5.21005 5.2692C5.26454 5.22636 5.33774 5.20238 5.41396 5.20238C5.49018 5.20238 5.56338 5.22636 5.61787 5.2692C5.67235 5.31204 5.70381 5.37032 5.70548 5.43156" stroke="#EA725D" stroke-miterlimit="10"/>
<path d="M8.72324 4.66023C8.72491 4.59899 8.75637 4.54071 8.81085 4.49788C8.86534 4.45504 8.93854 4.43105 9.01476 4.43105C9.09098 4.43105 9.16418 4.45504 9.21867 4.49788C9.27315 4.54071 9.30461 4.59899 9.30628 4.66023" stroke="#EA725D" stroke-miterlimit="10"/>
<path d="M11.8503 3.9521C11.852 3.89085 11.8834 3.83257 11.9379 3.78974C11.9924 3.7469 12.0656 3.72292 12.1418 3.72292C12.2181 3.72292 12.2913 3.7469 12.3457 3.78974C12.4002 3.83257 12.4317 3.89085 12.4334 3.9521" stroke="#EA725D" stroke-miterlimit="10"/>
<path d="M16.0517 2.98222C16.0509 2.95102 16.0578 2.92 16.072 2.89097C16.0863 2.86195 16.1076 2.8355 16.1348 2.81319C16.1619 2.79088 16.1944 2.77316 16.2302 2.76106C16.266 2.74896 16.3044 2.74272 16.3432 2.74272C16.3821 2.74272 16.4205 2.74896 16.4563 2.76106C16.4921 2.77316 16.5245 2.79088 16.5517 2.81319C16.5788 2.8355 16.6002 2.86195 16.6144 2.89097C16.6287 2.92 16.6356 2.95102 16.6348 2.98222" stroke="#EA725D" stroke-miterlimit="10"/>
<path d="M8.72421 4.66023V43.6317" stroke="#EA725D" stroke-miterlimit="10"/>
<path d="M9.30728 4.66023V43.6317" stroke="#EA725D" stroke-miterlimit="10"/>
<path d="M9.30726 43.6317C9.30558 43.693 9.27413 43.7512 9.21964 43.7941C9.16515 43.8369 9.09196 43.8609 9.01574 43.8609C8.93951 43.8609 8.86632 43.8369 8.81183 43.7941C8.75734 43.7512 8.72589 43.693 8.72421 43.6317" stroke="#EA725D" stroke-miterlimit="10"/>
<path d="M11.8503 3.95198V44.1635" stroke="#EA725D" stroke-miterlimit="10"/>
<path d="M12.4333 3.95198V44.1635" stroke="#EA725D" stroke-miterlimit="10"/>
<path d="M12.4334 44.1635C12.4342 44.1947 12.4273 44.2257 12.4131 44.2547C12.3988 44.2838 12.3774 44.3102 12.3503 44.3325C12.3231 44.3548 12.2907 44.3726 12.2549 44.3847C12.2191 44.3968 12.1807 44.403 12.1418 44.403C12.103 44.403 12.0646 44.3968 12.0288 44.3847C11.993 44.3726 11.9606 44.3548 11.9334 44.3325C11.9062 44.3102 11.8849 44.2838 11.8706 44.2547C11.8564 44.2257 11.8495 44.1947 11.8503 44.1635" stroke="#EA725D" stroke-miterlimit="10"/>
<path d="M16.0517 3.38226V44.9744" stroke="#EA725D" stroke-miterlimit="10"/>
<path d="M16.0517 2.98211V3.38226" stroke="#EA725D" stroke-miterlimit="10"/>
<path d="M16.6342 2.98222V44.9743" stroke="#EA725D" stroke-miterlimit="10"/>
<path d="M16.6348 44.9743C16.6356 45.0056 16.6287 45.0366 16.6144 45.0656C16.6002 45.0946 16.5788 45.1211 16.5517 45.1434C16.5245 45.1657 16.4921 45.1834 16.4563 45.1955C16.4205 45.2076 16.3821 45.2139 16.3432 45.2139C16.3044 45.2139 16.266 45.2076 16.2302 45.1955C16.1944 45.1834 16.1619 45.1657 16.1348 45.1434C16.1076 45.1211 16.0863 45.0946 16.072 45.0656C16.0578 45.0366 16.0509 45.0056 16.0517 44.9743" stroke="#EA725D" stroke-miterlimit="10"/>
<path d="M5.12258 6.54746L2.20309 7.18719" stroke="#EA725D" stroke-miterlimit="10"/>
<path d="M8.7231 5.75841L5.70547 6.41961" stroke="#EA725D" stroke-miterlimit="10"/>
<path d="M11.8504 5.07323L9.30627 5.63078" stroke="#EA725D" stroke-miterlimit="10"/>
<path d="M16.0519 4.15257L12.4335 4.94538" stroke="#EA725D" stroke-miterlimit="10"/>
<path d="M21.9279 2.86505L16.6348 4.02494" stroke="#EA725D" stroke-miterlimit="10"/>
<path d="M5.12258 7.13707L2.20309 7.77679" stroke="#EA725D" stroke-miterlimit="10"/>
<path d="M8.7231 6.34813L5.70547 7.00933" stroke="#EA725D" stroke-miterlimit="10"/>
<path d="M11.8504 5.66283L9.30627 6.22028" stroke="#EA725D" stroke-miterlimit="10"/>
<path d="M16.0519 4.74229L12.4335 5.53521" stroke="#EA725D" stroke-miterlimit="10"/>
<path d="M21.9279 3.45466L16.6348 4.61443" stroke="#EA725D" stroke-miterlimit="10"/>
<path d="M5.12258 9.48537L2.20309 10.1251" stroke="#EA725D" stroke-miterlimit="10"/>
<path d="M8.7231 8.69632L5.70547 9.35752" stroke="#EA725D" stroke-miterlimit="10"/>
<path d="M11.8504 8.01102L9.30627 8.56857" stroke="#EA725D" stroke-miterlimit="10"/>
<path d="M16.0519 7.09048L12.4335 7.88328" stroke="#EA725D" stroke-miterlimit="10"/>
<path d="M21.9279 5.80285L16.6348 6.96262" stroke="#EA725D" stroke-miterlimit="10"/>
<path d="M5.12242 41.2996L2.17819 40.7853" stroke="#EA725D" stroke-miterlimit="10"/>
<path d="M8.72423 41.9287L5.70547 41.4015" stroke="#EA725D" stroke-miterlimit="10"/>
<path d="M11.8503 42.4748L9.30728 42.0305" stroke="#EA725D" stroke-miterlimit="10"/>
<path d="M16.0519 43.2085L12.4335 42.5765" stroke="#EA725D" stroke-miterlimit="10"/>
<path d="M21.9279 44.235L16.6348 43.3104" stroke="#EA725D" stroke-miterlimit="10"/>
<path d="M5.12242 38.9946L2.17819 38.4803" stroke="#EA725D" stroke-miterlimit="10"/>
<path d="M8.72423 39.6236L5.70547 39.0964" stroke="#EA725D" stroke-miterlimit="10"/>
<path d="M10.8416 39.9934L9.30728 39.7254" stroke="#EA725D" stroke-miterlimit="10"/>
<path d="M11.8505 40.1696L11.1722 40.0511" stroke="#EA725D" stroke-miterlimit="10"/>
<path d="M16.0519 40.9035L12.4335 40.2715" stroke="#EA725D" stroke-miterlimit="10"/>
<path d="M21.9279 41.9298L16.6348 41.0053" stroke="#EA725D" stroke-miterlimit="10"/>
<path d="M5.12242 41.875L2.17819 41.3607" stroke="#EA725D" stroke-miterlimit="10"/>
<path d="M8.72423 42.504L5.70547 41.9768" stroke="#EA725D" stroke-miterlimit="10"/>
<path d="M11.8503 43.0501L9.30728 42.6058" stroke="#EA725D" stroke-miterlimit="10"/>
<path d="M16.0519 43.7839L12.4335 43.1519" stroke="#EA725D" stroke-miterlimit="10"/>
<path d="M21.9279 44.8101L16.6348 43.8856" stroke="#EA725D" stroke-miterlimit="10"/>
<path d="M10.8416 5.88388V42.287" stroke="#EA725D" stroke-miterlimit="10"/>
<path d="M11.1722 5.81149V42.3669" stroke="#EA725D" stroke-miterlimit="10"/>
<path d="M6.35371 6.86727V8.74746L5.70547 8.88872" stroke="#EA725D" stroke-miterlimit="10"/>
<path d="M9.95241 6.0798V7.95999L9.30417 8.10125" stroke="#EA725D" stroke-miterlimit="10"/>
<path d="M13.0816 5.37769V7.25788L12.4333 7.39914" stroke="#EA725D" stroke-miterlimit="10"/>
<path d="M17.283 4.42055V6.30073L16.6342 6.44188" stroke="#EA725D" stroke-miterlimit="10"/>
<path d="M17.283 41.1268V43.007L16.6348 42.8926" stroke="#EA725D" stroke-miterlimit="10"/>
<path d="M13.0816 40.4206V42.3008L12.4333 42.1865" stroke="#EA725D" stroke-miterlimit="10"/>
<path d="M9.95552 39.8452V41.7254L9.30728 41.611" stroke="#EA725D" stroke-miterlimit="10"/>
<path d="M6.35371 39.2072V41.0874L5.70547 40.9729" stroke="#EA725D" stroke-miterlimit="10"/>
<path d="M5.12258 17.8714L2.20309 18.1041" stroke="#EA725D" stroke-miterlimit="10"/>
<path d="M8.72423 17.5844L5.70547 17.825" stroke="#EA725D" stroke-miterlimit="10"/>
<path d="M9.30728 19.686L10.0851 19.6429V17.4759L9.30728 17.5379" stroke="#EA725D" stroke-miterlimit="10"/>
<path d="M5.70547 19.8865L8.72423 19.7186" stroke="#EA725D" stroke-miterlimit="10"/>
<path d="M2.20309 20.0814L5.12258 19.9189" stroke="#EA725D" stroke-miterlimit="10"/>
<path d="M2.20309 20.0814L3.27784 19.7184V18.8519L2.20309 18.1042" stroke="#EA725D" stroke-miterlimit="10"/>
<path d="M9.30728 18.4456L10.0846 18.3932" stroke="#EA725D" stroke-miterlimit="10"/>
<path d="M5.70547 18.6882L8.72423 18.4849" stroke="#EA725D" stroke-miterlimit="10"/>
<path d="M3.27811 18.8518L5.12242 18.7275" stroke="#EA725D" stroke-miterlimit="10"/>
<path d="M9.30728 19.3101L10.0846 19.2577" stroke="#EA725D" stroke-miterlimit="10"/>
<path d="M5.70547 19.5528L8.72423 19.3494" stroke="#EA725D" stroke-miterlimit="10"/>
<path d="M3.27811 19.7163L5.12242 19.5921" stroke="#EA725D" stroke-miterlimit="10"/>
<path d="M16.0519 16.9543L12.4335 17.2633" stroke="#EA725D" stroke-miterlimit="10"/>
<path d="M21.9279 16.4524L16.6348 16.9045" stroke="#EA725D" stroke-miterlimit="10"/>
<path d="M16.0519 19.2353L12.4335 19.4511" stroke="#EA725D" stroke-miterlimit="10"/>
<path d="M21.9279 18.8851L16.6348 19.2007" stroke="#EA725D" stroke-miterlimit="10"/>
<path d="M16.6348 17.897L21.9279 17.569" stroke="#EA725D" stroke-miterlimit="10"/>
<path d="M12.4333 19.3802L13.2934 19.0312V18.1041L16.051 17.9336" stroke="#EA725D" stroke-miterlimit="10"/>
<path d="M16.0517 18.8445L13.2936 19.0313" stroke="#EA725D" stroke-miterlimit="10"/>
<path d="M21.9279 18.4464L16.6348 18.8049" stroke="#EA725D" stroke-miterlimit="10"/>
<path d="M13.2936 18.1041L12.4335 17.4759" stroke="#EA725D" stroke-miterlimit="10"/>
<path d="M5.12258 28.5414L2.20309 28.4527" stroke="#EA725D" stroke-miterlimit="10"/>
<path d="M8.72423 28.6508L5.70547 28.5591" stroke="#EA725D" stroke-miterlimit="10"/>
<path d="M9.30728 30.8243L10.0805 30.8655V28.6921L9.30728 28.6685" stroke="#EA725D" stroke-miterlimit="10"/>
<path d="M5.70547 30.6328L8.72423 30.7933" stroke="#EA725D" stroke-miterlimit="10"/>
<path d="M2.20309 30.4467L5.12258 30.6019" stroke="#EA725D" stroke-miterlimit="10"/>
<path d="M5.12258 30.1138L3.24517 30.018L2.20309 30.4471" stroke="#EA725D" stroke-miterlimit="10"/>
<path d="M8.72423 30.2977L5.70547 30.1436" stroke="#EA725D" stroke-miterlimit="10"/>
<path d="M10.0805 30.3669L9.30728 30.3274" stroke="#EA725D" stroke-miterlimit="10"/>
<path d="M5.12258 29.2645L3.24517 29.1855L2.20309 28.4527" stroke="#EA725D" stroke-miterlimit="10"/>
<path d="M8.72423 29.416L5.70547 29.289" stroke="#EA725D" stroke-miterlimit="10"/>
<path d="M10.0805 29.4729L9.30728 29.4404" stroke="#EA725D" stroke-miterlimit="10"/>
<path d="M3.24503 29.1855V30.018" stroke="#EA725D" stroke-miterlimit="10"/>
<path d="M16.0519 28.908L12.4335 28.8016" stroke="#EA725D" stroke-miterlimit="10"/>
<path d="M21.9278 29.0807L16.6356 28.9251" stroke="#EA725D" stroke-miterlimit="10"/>
<path d="M16.0519 31.2165L12.4335 31.1101" stroke="#EA725D" stroke-miterlimit="10"/>
<path d="M21.9279 31.3893L16.6348 31.2337" stroke="#EA725D" stroke-miterlimit="10"/>
<path d="M16.6352 29.7617L21.9279 29.9581" stroke="#EA725D" stroke-miterlimit="10"/>
<path d="M12.4333 28.9253L13.3306 29.6392L16.0516 29.7401" stroke="#EA725D" stroke-miterlimit="10"/>
<path d="M13.3308 29.6392V30.5913L12.4335 31.0151" stroke="#EA725D" stroke-miterlimit="10"/>
<path d="M16.0518 30.6559L13.3309 30.5911" stroke="#EA725D" stroke-miterlimit="10"/>
<path d="M21.9279 30.8455L16.6348 30.6835" stroke="#EA725D" stroke-miterlimit="10"/>
<path d="M95.468 9.82768L96.4599 9.6097" stroke="#EA725D" stroke-miterlimit="10"/>
<path d="M96.4599 39.8301V38.5534" stroke="#EA725D" stroke-miterlimit="10"/>
<path d="M96.4599 10.5044V38.5534" stroke="#EA725D" stroke-miterlimit="10"/>
</g>
</svg>
