<svg width="48" height="49" viewBox="0 0 48 49" fill="none" xmlns="http://www.w3.org/2000/svg">
<path d="M24.7232 0.131166C24.4263 0.476086 23.7526 2.07696 23.3719 3.32542C22.8733 4.97504 22.6106 6.49718 22.5383 8.13555C22.4393 10.37 22.8009 12.1771 23.5661 13.2681C23.8211 13.6318 24.1142 13.8867 24.472 14.0629C24.7232 14.1866 24.7917 14.2016 25.043 14.2016C25.2904 14.2016 25.3589 14.1866 25.5112 14.1004C25.8347 13.9092 26.0783 13.5605 26.2154 13.0919C26.2725 12.8894 26.2839 12.7132 26.2801 11.9522C26.2725 10.0888 26.086 9.62395 24.7232 8.09056C24.1751 7.47196 23.7868 6.97332 23.6498 6.71088C23.4747 6.36596 23.4861 5.53741 23.6802 4.37893C23.7906 3.70033 23.9543 3.11922 24.2931 2.18569C24.7347 0.97097 24.8945 0.472337 24.9212 0.224894C24.9478 -0.0300463 24.8869 -0.0600393 24.7232 0.131166Z" fill="#EA725D"/>
<path d="M16.7143 2.17816C16.5697 2.70304 16.5278 5.15122 16.6458 6.06601C16.7296 6.71086 16.7258 7.55816 16.6344 8.59667C16.5392 9.67642 16.5392 10.3625 16.6344 11.1461C16.7296 11.9371 16.7296 12.717 16.6344 13.808C16.5392 14.8802 16.5392 15.5738 16.6344 16.3574C16.7296 17.1447 16.7296 17.9095 16.6344 18.9443C16.5392 19.9753 16.5392 20.7363 16.6344 21.5686C16.7296 22.401 16.7296 23.1733 16.6344 24.1555C16.5354 25.1566 16.5354 25.9514 16.6344 26.7612C16.7296 27.5672 16.7296 28.2233 16.6344 29.2918C16.5431 30.2966 16.5392 31.0539 16.6154 31.7363C16.6534 32.0737 16.6687 32.6023 16.6687 33.3784C16.6649 34.863 16.7182 35.6241 17.0189 38.3835C17.1711 39.7707 17.1902 39.8719 17.4376 40.6517C18.0047 42.4175 19.0934 44.6633 19.9765 45.8742C20.3914 46.4478 21.2821 47.2989 21.7465 47.5688C21.9597 47.6888 22.6144 47.8613 22.8809 47.8613C23.2463 47.865 23.5013 47.6626 23.665 47.2502C23.7602 47.0027 23.7602 46.2416 23.6612 45.863C23.4404 45.0082 23.0293 44.2959 22.3175 43.5423C21.659 42.8449 20.8063 42.2301 20.1973 42.0126C20.1097 41.9826 19.9042 41.9376 19.7329 41.9077C19.337 41.8439 19.1429 41.7464 18.8574 41.4578C17.7002 40.2955 17.1178 38.1173 16.9199 34.2219L16.9009 33.8095L17.1064 34.5969C17.4262 35.8341 17.7307 36.6851 18.2598 37.8211C19.2609 39.9844 20.6921 41.8439 21.7542 42.3688C22.1805 42.5788 22.3632 42.62 22.839 42.62C23.3871 42.62 23.5318 42.5638 23.6536 42.3051C23.7259 42.1513 23.7335 42.0689 23.7297 41.5515C23.7259 41.0491 23.7145 40.9179 23.627 40.5955C23.4442 39.9169 23.0217 39.1783 22.3822 38.4322C21.876 37.8324 21.3773 37.4612 20.5741 37.075C20.1326 36.8651 19.7748 36.7376 19.4893 36.6926C19.3408 36.6701 19.2799 36.6289 19.0325 36.3814C18.8726 36.224 18.6404 35.9428 18.5186 35.7591C18.0504 35.058 17.4528 33.7683 17.2663 33.0522C17.1407 32.5761 16.9732 30.754 16.9161 29.2881C16.8894 28.5645 16.9161 28.3546 16.9998 28.6545C17.0265 28.7482 17.1673 29.2694 17.3158 29.8167C17.7649 31.4888 18.0847 32.3549 18.6557 33.4909C19.2114 34.5931 19.8166 35.4704 20.5247 36.209C21.404 37.1238 22.15 37.5024 22.9798 37.4537C23.5737 37.42 23.7221 37.255 23.745 36.6101C23.7754 35.8941 23.6193 35.268 23.2349 34.5444C22.9266 33.9595 22.5726 33.4909 22.0587 32.9847C21.3278 32.2649 20.6465 31.845 19.8357 31.6163C19.1581 31.4251 19.0896 31.3651 18.5377 30.4916C17.4147 28.7107 17.114 27.7097 16.977 25.3365C16.9313 24.5305 16.8971 23.2633 16.9199 23.312C16.9275 23.3307 17.0341 23.6682 17.1483 24.0618C18.1646 27.481 18.7584 28.8082 19.9423 30.3154C20.7568 31.3501 21.4001 31.9012 22.0777 32.1412C22.2871 32.2162 22.4013 32.2312 22.8009 32.2312C23.2082 32.2349 23.2996 32.2237 23.429 32.1562C23.6879 32.025 23.7335 31.8862 23.7335 31.2226C23.7297 30.5815 23.6688 30.2891 23.4138 29.7043C23.0902 28.9619 22.6677 28.3696 22.0206 27.736C21.3392 27.0686 20.635 26.6487 19.8052 26.4125C19.1315 26.2213 19.0477 26.1426 18.3169 25.0403C17.7421 24.1818 17.5213 23.7019 17.3386 22.9371C17.095 21.9061 16.9732 20.7176 16.9237 18.7943L16.9009 18.0632L16.9808 18.3257C17.0227 18.4681 17.1711 18.9855 17.3082 19.4691C17.7878 21.16 18.157 22.1685 18.6899 23.237C19.4246 24.7029 20.6427 26.1838 21.5448 26.7049C21.9711 26.9524 22.2109 27.0161 22.839 27.0311C23.5204 27.0499 23.5508 27.0386 23.665 26.7049C23.8706 26.1088 23.7221 25.0291 23.3262 24.2493C22.5916 22.8134 21.1489 21.6061 19.7177 21.2237C19.5616 21.1825 19.3637 21.1038 19.2837 21.0513C18.9678 20.8413 18.1913 19.8028 17.822 19.1017C17.4224 18.3444 17.1559 17.1897 17.0189 15.6263C16.977 15.1651 16.8971 13.3768 16.9047 13.0394L16.9085 12.8519L16.9808 13.1144C17.8258 16.0837 18.0733 16.7848 18.7166 18.0445C19.2152 19.023 19.7024 19.7391 20.3762 20.4889C20.9967 21.175 21.5296 21.6061 22.0777 21.8648C22.82 22.221 23.3871 22.131 23.646 21.6174C23.7259 21.4524 23.7335 21.3887 23.7335 20.8938C23.7335 20.4102 23.7221 20.3089 23.6231 19.9753C23.4823 19.4766 23.1283 18.7793 22.8124 18.3631C22.4812 17.9282 21.8531 17.2909 21.4154 16.9385C20.7378 16.3986 20.1478 16.0912 19.6568 16.0237C19.5083 16.0012 19.3561 15.9525 19.2875 15.9037C19.0934 15.7725 18.8231 15.4426 18.4197 14.8465C17.331 13.2456 17.0036 11.8959 16.9161 8.6754C16.9009 8.05305 16.9047 7.76436 16.9313 7.79061C16.9732 7.83185 17.0645 8.13928 17.3767 9.29026C18.0618 11.8059 18.8764 13.5268 20.1021 15.0527C20.9358 16.0837 21.8722 16.7623 22.6335 16.886C22.8618 16.9235 22.9342 16.9197 23.1169 16.8672C23.5813 16.736 23.7602 16.4211 23.7564 15.7612C23.7526 15.2814 23.7069 15.0264 23.5394 14.5203C23.2844 13.7592 22.8428 13.1031 22.0777 12.342C21.1718 11.4385 20.3457 10.9249 19.6301 10.8087C19.3408 10.7637 19.1695 10.6474 18.8536 10.2838C18.2826 9.62768 17.7764 8.74663 17.5175 7.95182C17.1293 6.77834 16.9618 5.58612 16.9009 3.61033C16.8666 2.41811 16.84 2.08819 16.7829 2.05069C16.7676 2.0432 16.7334 2.09943 16.7143 2.17816Z" fill="#EA725D"/>
<path d="M27.521 2.36939C27.4601 2.48186 27.4715 2.55309 27.658 3.38165C27.8788 4.36392 27.9359 4.78007 27.9664 5.61613C28.012 6.91708 27.8598 8.12055 27.4182 9.95762C27.1784 10.9549 27.1746 10.9211 27.4829 10.9211C27.7646 10.9211 27.8674 10.8087 28.0805 10.2501C28.347 9.55646 28.682 7.47195 28.7277 6.27223C28.7543 5.43242 28.7124 5.14749 28.2024 2.78554C28.1567 2.56809 28.1034 2.36939 28.0805 2.34314C28.0577 2.3169 27.9511 2.29815 27.8027 2.29815C27.6047 2.29815 27.5553 2.3094 27.521 2.36939Z" fill="#EA725D"/>
<path d="M20.1021 2.74055C20.0298 2.79304 19.9803 2.988 19.7748 4.00026C19.4017 5.82608 19.3941 5.87107 19.3941 6.8346C19.3941 7.44946 19.4132 7.80562 19.4627 8.14304C19.5807 8.93411 19.7139 9.54522 19.7862 9.64644C19.8776 9.76267 20.0489 9.80766 20.2772 9.77016C20.5056 9.73267 20.5132 9.70268 20.4067 9.05033C20.1935 7.73064 20.1098 6.47843 20.1745 5.54865C20.2278 4.75383 20.3115 4.32643 20.5551 3.56161C20.6579 3.23544 20.7454 2.93551 20.7454 2.89427C20.7454 2.85678 20.7112 2.78929 20.6693 2.74805C20.5665 2.64682 20.2201 2.64308 20.1021 2.74055Z" fill="#EA725D"/>
<path d="M31.0268 6.14102C31.004 6.23475 30.9469 6.67714 30.905 7.12704C30.7109 9.18156 30.5472 9.70269 29.3862 11.9897L28.7201 13.3019L28.3166 13.3618C27.8027 13.4406 27.5781 13.5081 27.1784 13.6955C26.0555 14.2316 24.9631 15.2776 24.4263 16.3386C24.1332 16.9123 24.0876 17.111 24.0647 17.827C24.0381 18.8056 24.0952 19.0305 24.4111 19.1805C24.7232 19.3342 25.5188 19.2405 26.0098 18.993C26.9957 18.5056 28.1377 17.0547 29.371 14.7265C30.2236 13.1106 30.7413 11.401 31.004 9.30903C31.1791 7.91436 31.2362 5.97231 31.0991 5.97231C31.0839 5.97231 31.0496 6.04729 31.0268 6.14102Z" fill="#EA725D"/>
<path d="M43.7595 10.5012C43.7139 10.5762 43.6301 11.3785 43.5654 12.3271C43.3827 15.1464 42.7089 16.9647 41.6622 17.4634C41.5594 17.5121 41.3538 17.5721 41.2092 17.5946C40.7296 17.6696 40.1586 17.9508 39.5686 18.4007C38.8986 18.9143 38.3733 19.7428 38.1982 20.5602C38.0802 21.1038 38.1373 21.5387 38.3581 21.7936C38.5637 22.0298 38.754 22.1085 39.0966 22.1123C39.3592 22.1123 39.4125 22.0973 39.7056 21.9548C40.1434 21.7374 40.4821 21.4787 40.977 20.9876C41.4794 20.4889 41.7649 20.1028 42.039 19.5554C42.6214 18.3969 43.3637 16.4174 43.5426 15.5401C43.7139 14.7228 43.8128 13.4706 43.8395 11.8959C43.8585 10.7262 43.8357 10.3775 43.7595 10.5012Z" fill="#EA725D"/>
<path d="M31.0877 11.2061C31.0306 11.3035 30.9773 11.6185 30.9088 12.3196C30.7908 13.538 30.6614 14.2354 30.3949 15.0414C30.0447 16.1062 29.3367 17.4634 28.8038 18.0932C28.6287 18.2994 28.4536 18.4006 28.1948 18.4306C27.5933 18.5094 26.5504 19.1542 25.751 19.9378C24.8945 20.7776 24.2931 21.7186 24.0723 22.5697C23.8934 23.2445 24 24.1181 24.2779 24.298C24.3616 24.3505 24.472 24.3618 24.9326 24.3618C25.4312 24.358 25.5112 24.3505 25.7624 24.2605C26.1659 24.1181 26.4209 23.9531 26.8092 23.5932C27.8979 22.5809 29.3063 20.3239 30.0371 18.4194C30.6195 16.9047 30.905 15.6263 31.1029 13.6205C31.16 13.0206 31.1943 11.3223 31.1486 11.2398C31.1258 11.2061 31.0991 11.1873 31.0877 11.2061Z" fill="#EA725D"/>
<path d="M4.16432 11.4273C4.12244 11.6522 4.17574 13.943 4.24045 14.6965C4.36225 16.0912 4.46884 16.6086 4.84187 17.6883C5.30246 19.023 5.9115 20.3989 6.29596 20.9688C6.81364 21.7336 7.86043 22.6522 8.46566 22.8771C8.91102 23.0421 9.4211 22.9371 9.65329 22.6334C10.0225 22.1573 9.88549 21.175 9.3069 20.204C9.11277 19.8741 8.52276 19.278 8.14592 19.0305C7.62443 18.6856 7.141 18.4756 6.75274 18.4232C6.39493 18.3707 6.18557 18.2544 5.84298 17.917C5.41666 17.4934 5.14639 16.961 4.87613 16.0162C4.60968 15.0752 4.49929 14.2991 4.39651 12.7245C4.31658 11.5173 4.23664 11.0599 4.16432 11.4273Z" fill="#EA725D"/>
<path d="M40.4174 12.5033C39.9302 12.762 39.6714 13.0919 39.2032 14.0517C38.617 15.2514 37.7986 17.6771 37.7339 18.4044C37.7148 18.6144 37.7224 18.6406 37.8024 18.6968C37.8519 18.7306 37.9546 18.7568 38.0308 18.7568C38.164 18.7568 38.1754 18.7456 38.2325 18.5956C38.263 18.5094 38.3162 18.2957 38.3505 18.1195C38.6969 16.3424 39.2603 14.8952 40.1167 13.5718C40.5583 12.8932 40.7524 12.5333 40.7181 12.4433C40.6877 12.3646 40.6687 12.3646 40.4174 12.5033Z" fill="#EA725D"/>
<path d="M6.96588 13.2756L6.88214 13.3431L6.99634 13.568C7.05724 13.688 7.33511 14.1004 7.61299 14.4828C7.89086 14.8652 8.19919 15.3151 8.30197 15.4876C8.89578 16.4736 9.30688 17.5196 9.6114 18.8093C9.80934 19.6491 9.80173 19.6416 10.0301 19.5966C10.327 19.5441 10.3384 19.4129 10.1291 18.5956C9.6114 16.6048 8.42758 13.9842 7.79951 13.4593C7.52925 13.2269 7.13337 13.1406 6.96588 13.2756Z" fill="#EA725D"/>
<path d="M45.9178 15.4164C45.7884 15.6226 45.6742 15.99 45.6399 16.3124C45.5486 17.1597 44.9966 18.2657 43.9499 19.7054C43.7215 20.0165 43.5197 20.3127 43.4969 20.3615C43.4436 20.4777 43.535 20.5602 43.809 20.6464C44.0679 20.7251 44.1478 20.6839 44.281 20.3989C44.3305 20.2902 44.6046 19.8028 44.8863 19.3192C45.4572 18.3407 45.659 17.9583 45.8341 17.5309C46.0967 16.8823 46.2109 16.3986 46.2223 15.9C46.23 15.5888 46.2261 15.5701 46.1196 15.4613C45.9863 15.3264 45.9787 15.3226 45.9178 15.4164Z" fill="#EA725D"/>
<path d="M36.276 15.855C36.2074 15.9487 36.1085 16.1287 36.0476 16.2562C35.7164 16.976 35.252 19.7503 35.2482 21.0063C35.2482 22.2323 35.625 23.9269 36.1085 24.8754C36.4244 25.494 36.7327 25.7114 37.2504 25.6852C37.7909 25.659 38.0308 25.3628 38.1069 24.6242C38.1678 24.0543 38.1297 22.7159 38.046 22.3935C37.9013 21.8461 37.4674 21.1188 36.8279 20.3689C36.3673 19.8253 36.2036 19.5141 36.1732 19.1242C36.1389 18.6818 36.2607 17.3696 36.432 16.3086C36.5386 15.6413 36.5005 15.5288 36.276 15.855Z" fill="#EA725D"/>
<path d="M1.96036 16.1662C1.7548 16.2074 1.71293 16.4324 1.78906 17.0322C1.90326 17.8833 2.223 18.6444 3.07185 20.0878C3.30405 20.4814 3.56289 20.9351 3.64664 21.1C3.85599 21.5087 3.90548 21.5537 4.13387 21.4974C4.3851 21.4337 4.52975 21.355 4.52975 21.2762C4.52975 21.2387 4.36226 20.9726 4.15671 20.6876C3.42967 19.6679 2.88534 18.6144 2.55036 17.5796C2.40572 17.1335 2.32197 16.736 2.32197 16.4961C2.32197 16.1812 2.23823 16.1062 1.96036 16.1662Z" fill="#EA725D"/>
<path d="M31.0192 16.4736C30.9963 16.5223 30.9621 16.8335 30.943 17.1784C30.8974 18.0445 30.8212 18.5319 30.6005 19.3942C30.315 20.5227 29.843 21.6324 29.1959 22.6972C28.8038 23.3458 28.6934 23.447 28.2595 23.5744C27.3078 23.8556 26.7064 24.1893 25.9375 24.8604C24.6661 25.9739 24.0038 27.2448 24.0038 28.5795C24.0038 28.9132 24.0152 28.9994 24.0875 29.1494C24.2131 29.4006 24.3273 29.4456 24.9021 29.4456C25.8119 29.4456 26.2116 29.2956 26.8054 28.7332C27.8484 27.751 29.074 25.8652 29.8772 24.0168C30.4101 22.7871 30.7337 21.4599 31.0192 19.3192C31.1905 18.052 31.2628 16.7998 31.179 16.5111C31.1448 16.3874 31.0763 16.3724 31.0192 16.4736Z" fill="#EA725D"/>
<path d="M11.5108 16.5561C11.4994 16.5898 11.5299 16.9123 11.587 17.2647C11.705 18.052 11.7507 18.4419 11.8001 19.0717C11.8915 20.2565 11.8382 20.4289 11.1112 21.28C10.6049 21.8723 10.1519 22.6034 9.99586 23.0871C9.81695 23.6457 9.80553 25.3928 9.97682 25.9551C10.053 26.2026 10.2737 26.42 10.5288 26.4988C10.7153 26.555 10.78 26.5588 10.9741 26.525C11.0959 26.5025 11.271 26.4388 11.3624 26.3863C12.0742 25.9776 12.8051 23.447 12.7403 21.6062C12.6871 20.1215 12.2341 17.6358 11.8915 16.9722C11.7316 16.6536 11.5489 16.4586 11.5108 16.5561Z" fill="#EA725D"/>
<path d="M47.7564 18.2094C47.6841 18.2807 47.4404 18.5806 47.2159 18.8768C46.584 19.6979 45.4154 20.8188 44.852 21.1413C44.5627 21.31 44.3458 21.3437 43.318 21.3812C42.2826 21.415 41.7992 21.4824 41.3272 21.6586C40.3413 22.0223 39.3174 22.8134 38.9976 23.4545C38.6741 24.0993 38.8758 24.5605 39.5534 24.7367C39.8503 24.8154 40.1967 24.8042 40.6535 24.7029C41.5328 24.508 42.4044 24.1031 43.2609 23.5032C44.5171 22.6184 46.4622 20.6239 47.3224 19.3379C47.6003 18.918 48 18.2094 48 18.1345C48 18.0445 47.8934 18.0782 47.7564 18.2094Z" fill="#EA725D"/>
<path d="M34.6887 18.9593C34.3004 19.2817 33.7408 21.5799 33.4934 23.8931C33.2422 26.1913 33.9236 28.8682 34.898 29.4343C35.0541 29.5206 35.1188 29.5356 35.3853 29.5356C35.6517 29.5356 35.7088 29.5243 35.8458 29.4343C36.2493 29.1719 36.432 28.6058 36.432 27.6273C36.432 26.4425 36.1846 25.8277 35.0731 24.2118C34.4793 23.3533 34.3385 22.9821 34.3347 22.296C34.3347 21.8911 34.3879 21.4974 34.643 20.0353C34.7458 19.4317 34.8257 18.918 34.8219 18.8993C34.8143 18.8768 34.7534 18.9068 34.6887 18.9593Z" fill="#EA725D"/>
<path d="M0.0190252 18.9443C-0.0228464 19.008 0.0456707 19.1842 0.281674 19.6379C0.624259 20.2827 1.0582 20.9651 1.22949 21.1188C1.31324 21.19 1.92989 21.7936 2.60364 22.4572C4.18334 24.0131 4.81902 24.508 5.9191 25.0366C6.76795 25.4415 7.48358 25.6327 8.085 25.6102C8.41236 25.599 8.50372 25.5802 8.68643 25.494C9.09373 25.299 9.22315 25.0291 9.12037 24.613C8.99476 24.1106 8.62172 23.6569 7.95558 23.192C7.495 22.8659 6.76415 22.5059 6.36446 22.3972C5.99523 22.296 5.52323 22.251 4.49167 22.206C3.52101 22.1685 3.36113 22.1348 3.02236 21.9023C2.36383 21.4487 1.33227 20.4327 0.730841 19.6491C0.399675 19.2142 0.117994 18.9068 0.0570902 18.9068C0.0494772 18.9068 0.0342512 18.9218 0.0190252 18.9443Z" fill="#EA725D"/>
<path d="M13.1705 19.7503C13.1705 19.7841 13.2542 20.294 13.3608 20.8863C13.692 22.7571 13.73 23.2558 13.593 23.7882C13.494 24.1706 13.3532 24.433 12.8774 25.1266C11.7963 26.705 11.5641 27.2973 11.5679 28.5046C11.5718 29.753 11.9258 30.3941 12.6185 30.3941C13.3608 30.3941 13.9546 29.5131 14.3277 27.8672C14.6664 26.3601 14.6322 24.9129 14.1944 22.6147C13.8823 20.9538 13.5511 19.9528 13.2504 19.7466C13.1781 19.6941 13.1705 19.6979 13.1705 19.7503Z" fill="#EA725D"/>
<path d="M46.3289 21.1C46.2224 21.2163 45.8912 21.6699 45.5943 22.1048C44.5627 23.6269 44.0108 24.2718 43.4132 24.6617C42.747 25.0966 42.4768 25.1566 41.0303 25.2016C39.7779 25.2353 39.6676 25.2578 39.0243 25.5765C37.4674 26.3451 36.5272 27.7022 37.1591 28.2646C37.4598 28.5345 38.0041 28.5495 38.971 28.3133C40.9009 27.8447 42.7699 26.5475 44.3686 24.568C45.4725 23.2033 46.74 21.1 46.5649 20.9276C46.5383 20.9013 46.4622 20.9576 46.3289 21.1Z" fill="#EA725D"/>
<path d="M30.9887 21.7936C30.9659 21.8986 30.9469 22.0973 30.9469 22.236C30.9469 23.0008 30.6576 24.5755 30.334 25.5727C30.0257 26.51 29.0588 28.2609 28.6744 28.5758C28.5868 28.647 28.4308 28.7145 28.229 28.767C27.639 28.9207 27.2546 29.0894 26.7597 29.4156C25.5378 30.2141 24.4758 31.5451 24.1104 32.7223C23.9315 33.3034 23.9695 34.2557 24.1865 34.5219L24.2779 34.6344L24.8831 34.6306C25.8538 34.6269 26.2268 34.4957 26.7864 33.967C27.5933 33.2022 28.3775 32.0325 29.3634 30.1167C30.1132 28.662 30.3569 28.0322 30.6233 26.8362C31.0458 24.9616 31.3389 22.2023 31.1714 21.7224C31.1105 21.5499 31.0344 21.5762 30.9887 21.7936Z" fill="#EA725D"/>
<path d="M1.40839 21.8311C1.40839 22.206 2.67215 24.2268 3.70751 25.5052C4.19855 26.1126 5.23012 27.1211 5.79348 27.5485C7.08388 28.527 8.47326 29.1381 9.7865 29.2994C10.4108 29.3743 10.8295 29.2469 10.9817 28.9319C11.0807 28.7295 11.0426 28.3996 10.8942 28.1034C10.5592 27.451 9.8474 26.8399 8.90339 26.3863C8.25629 26.0789 8.18396 26.0676 6.87072 26.0301C5.62599 25.9964 5.52322 25.9776 5.0436 25.7527C4.19475 25.359 3.68468 24.8229 2.48182 23.0571C1.81949 22.0898 1.55684 21.7561 1.46168 21.7561C1.43123 21.7561 1.40839 21.7899 1.40839 21.8311Z" fill="#EA725D"/>
<path d="M32.5646 23.4695C32.2563 24.1968 31.9327 25.4228 31.7881 26.4238C31.3313 29.5468 31.9784 32.5686 33.2384 33.1872C33.7637 33.4459 34.1672 33.2697 34.3727 32.6923C34.5592 32.1712 34.6125 31.3539 34.5059 30.739C34.3461 29.843 33.8094 28.7483 33.0861 27.8372C32.7435 27.4136 32.6408 27.2449 32.5494 26.9787C32.3857 26.5025 32.4048 25.9964 32.6446 24.5867C32.8121 23.5895 32.8463 23.1433 32.7626 23.1433C32.7245 23.1433 32.656 23.2595 32.5646 23.4695Z" fill="#EA725D"/>
<path d="M15.1993 24.2943C15.2146 24.478 15.2831 24.9804 15.3554 25.4153C15.4315 25.8464 15.5115 26.4313 15.5381 26.7125C15.5762 27.1549 15.5762 27.2561 15.5191 27.5335C15.443 27.9159 15.2945 28.2121 14.9938 28.5795C14.2934 29.4343 13.8328 30.2966 13.5664 31.2527C13.4445 31.6801 13.4027 32.4261 13.4712 32.891C13.6196 33.8696 13.9775 34.2782 14.556 34.1133C16.0216 33.6933 16.7562 30.3041 16.1396 26.81C16.0292 26.1913 15.8236 25.4115 15.6028 24.7667C15.3021 23.9006 15.1575 23.7319 15.1993 24.2943Z" fill="#EA725D"/>
<path d="M44.0222 25.8389C43.8814 25.9252 43.6682 26.1464 42.8003 27.0986C41.9058 28.0809 41.43 28.5495 41.2206 28.647C40.9465 28.7782 40.5469 28.842 39.2603 28.9545C37.9166 29.0744 37.1324 29.2619 36.5576 29.5956C36.0933 29.8655 35.5489 30.4916 35.1759 31.1814C35.0236 31.4701 35.0236 31.6201 35.1797 31.845C35.3891 32.1487 35.4309 32.16 36.2379 32.16C37.2162 32.1562 37.6235 32.0587 38.5408 31.6088C40.0749 30.8553 41.9971 29.1719 43.0782 27.6423C43.5197 27.0162 44.1783 25.8877 44.1478 25.8052C44.1402 25.7864 44.0869 25.8014 44.0222 25.8389Z" fill="#EA725D"/>
<path d="M31.0649 26.6412C31.004 26.7912 30.9545 27.1511 30.8898 27.8859C30.768 29.2394 30.532 30.2254 30.0638 31.3539C29.7897 32.0212 28.9827 33.4796 28.7657 33.7083C28.6401 33.8396 28.5183 33.8921 28.1339 33.9745C26.8016 34.2632 25.161 35.5979 24.4606 36.9701C24.1408 37.5924 23.9581 38.4022 23.9886 39.0209C24.0114 39.4558 24.0876 39.6245 24.3159 39.7482C24.6699 39.9394 25.4312 39.8832 25.9794 39.6245C26.9919 39.1483 28.1681 37.6524 29.3824 35.2905C30.1171 33.8621 30.5243 32.6773 30.8174 31.1327C31.0192 30.0567 31.1715 28.4333 31.1791 27.3423C31.1829 26.6525 31.1448 26.4313 31.0649 26.6412Z" fill="#EA725D"/>
<path d="M3.89025 26.8212C3.92832 27.2036 4.39652 27.9572 5.16924 28.8795C5.64886 29.4493 6.86313 30.6416 7.47979 31.1439C8.70548 32.145 10.0492 32.846 10.9932 32.9698C11.1645 32.9923 11.5718 33.0035 11.9029 32.996C12.5957 32.9848 12.6414 32.966 12.8317 32.6736C12.984 32.4374 12.9764 32.3024 12.7822 31.9575C11.9258 30.4091 11.0845 29.9742 8.58367 29.7793C7.50643 29.6968 6.94307 29.5918 6.69184 29.4343C6.48248 29.3031 6.01809 28.8382 5.0855 27.811C3.89787 26.51 3.856 26.4763 3.89025 26.8212Z" fill="#EA725D"/>
<path d="M42.5871 28.8007C42.4996 28.8982 42.2636 29.2169 42.0656 29.5018C41.232 30.709 40.7067 31.3051 39.9416 31.905C39.0852 32.5761 38.7197 32.6961 37.7224 32.6248C36.8013 32.5611 36.2189 32.6736 35.4081 33.0747C34.6277 33.4609 33.9388 34.012 33.6571 34.4769C33.501 34.7319 33.3602 35.1293 33.3259 35.4067C33.3069 35.5942 33.3145 35.6316 33.3906 35.7179C33.5086 35.8528 33.9959 36.044 34.2813 36.0665C34.7001 36.104 35.6098 35.9128 36.2074 35.6691C37.0715 35.313 37.6806 34.8331 39.7018 32.9323C40.7524 31.9425 41.0341 31.6951 41.0341 31.755C41.0341 31.8113 40.2233 33.1947 39.9492 33.6109C39.8084 33.8208 39.5686 34.1582 39.4201 34.3532C39.1004 34.7768 38.1944 35.6841 37.8176 35.9578C37.4293 36.2427 37.2428 36.2877 36.1123 36.374C34.3042 36.5164 33.5924 36.7076 32.7016 37.2925C31.9023 37.8174 31.5863 38.2935 31.5292 39.0621C31.5026 39.437 31.5369 39.5045 31.8071 39.6282C32.1345 39.7744 32.5989 39.8157 33.1204 39.7444C33.6723 39.6657 34.0225 39.5495 34.7343 39.2083C36.2303 38.4847 37.7148 37.1988 39.1499 35.3842C40.0558 34.2407 40.7562 33.0522 41.468 31.4551C41.6051 31.1514 41.8525 30.6753 42.02 30.4016C42.3892 29.7943 42.5909 29.4006 42.7242 29.0369C42.8917 28.5758 42.8536 28.5083 42.5871 28.8007Z" fill="#EA725D"/>
<path d="M31.2552 29.2994C31.2514 29.3556 31.2971 30.0642 31.3504 30.874C31.4074 31.7176 31.4531 32.7223 31.4569 33.2285C31.4607 34.0495 31.4493 34.162 31.3351 34.8781C31.122 36.209 31.1258 36.0216 31.2894 36.7864C31.3656 37.1613 31.4417 37.4762 31.4531 37.4912C31.4912 37.525 31.8414 37.3975 32.085 37.2588C32.4695 37.0376 32.7055 36.7001 32.8082 36.2278C32.8806 35.9053 32.9072 34.9418 32.8539 34.5182C32.7778 33.8996 32.6484 33.4909 32.3172 32.8348C31.8795 31.9575 31.6358 31.1814 31.4227 29.9667C31.3656 29.648 31.3047 29.3444 31.2894 29.2919L31.259 29.1981L31.2552 29.2994Z" fill="#EA725D"/>
<path d="M5.19207 29.6068C5.24536 29.888 5.60698 30.6453 5.95718 31.2002C6.20079 31.5901 6.40634 31.9912 6.64235 32.5386C7.71198 35.0055 9.57716 37.4462 11.5832 39.0021C12.3597 39.6057 13.3951 40.1756 14.1412 40.4193C15.0167 40.7005 16.0444 40.6705 16.3908 40.348C16.4669 40.2768 16.4822 40.2281 16.4822 40.0369C16.4822 39.7257 16.3946 39.3545 16.2652 39.0883C16.132 38.8184 15.7247 38.406 15.3402 38.1511C14.4228 37.5437 13.5854 37.3262 11.7431 37.2025C10.6925 37.1313 10.563 37.0938 10.0454 36.6851C9.35638 36.1415 8.68263 35.3954 8.09643 34.5144C7.6092 33.7871 6.92403 32.5911 6.99635 32.5911C7.03061 32.5911 7.47597 32.9998 8.76257 34.207C10.761 36.0853 11.4576 36.5314 12.8469 36.8164C13.4941 36.9513 13.7719 36.9438 14.1678 36.7939C14.6322 36.6177 14.6741 36.5764 14.6703 36.3252C14.6626 36.0553 14.5332 35.6466 14.3657 35.3655C13.9356 34.6419 12.8546 33.907 11.724 33.5734C11.4157 33.4796 11.3548 33.4759 10.3727 33.4721C9.23458 33.4646 9.18509 33.4571 8.74354 33.2135C8.41998 33.0372 7.86043 32.6098 7.46455 32.2349C7.03061 31.8263 6.6119 31.3126 6.05234 30.5103C5.51943 29.7418 5.31007 29.4793 5.22633 29.4793C5.18065 29.4793 5.17304 29.5056 5.19207 29.6068Z" fill="#EA725D"/>
<path d="M30.9887 31.9612C30.9697 32.07 30.943 32.4111 30.9316 32.7223C30.8517 34.6719 30.471 35.8303 29.1045 38.2973C28.6439 39.1296 28.7505 39.0396 28.1415 39.1146C27.285 39.2233 26.8016 39.4857 26.0517 40.2468C25.1762 41.1391 24.5024 42.0539 24.2322 42.725C24.0609 43.1524 23.9429 43.966 24 44.3671C24.0495 44.7083 24.3616 45.0045 24.7384 45.0607C24.9288 45.0907 25.3779 45.012 25.6977 44.892C26.7178 44.5096 27.7646 43.3249 29.0208 41.1316C30.1323 39.1858 30.7413 37.3113 31.023 34.9905C31.141 33.997 31.2247 32.01 31.1524 31.8263C31.1029 31.7026 31.0268 31.7663 30.9887 31.9612Z" fill="#EA725D"/>
<path d="M16.2157 32.8348C15.8389 33.3372 15.4087 34.0982 15.3174 34.4132C15.2374 34.7056 15.1994 36.0703 15.2603 36.5727C15.3364 37.2288 15.5077 37.5999 15.8008 37.7461C15.915 37.8061 16.7334 37.9411 16.7676 37.9074C16.7791 37.8961 16.7486 37.5362 16.6953 37.105C16.5469 35.8866 16.5164 35.3767 16.524 34.4657C16.5431 32.9922 16.5354 32.8235 16.4289 32.6848C16.3832 32.6211 16.3642 32.6361 16.2157 32.8348Z" fill="#EA725D"/>
<path d="M31.0496 37.0301C31.0116 37.12 30.9507 37.6374 30.8898 38.3273C30.7337 40.0893 30.4292 41.0266 29.3519 43.0474C28.7391 44.1946 28.6249 44.3259 28.2443 44.3259C28.0235 44.3259 27.5971 44.4758 27.0718 44.7345C26.0136 45.2556 25.4312 45.7805 24.6928 46.8753C24.3921 47.3252 24.2398 47.6363 24.255 47.7751C24.2779 47.9738 24.3274 47.9813 26.341 47.9925L28.1872 48.0038L28.328 47.6926C28.4041 47.5201 28.7505 46.7553 29.1007 45.9942C30.5472 42.845 30.7604 42.2114 30.9811 40.4643C31.1486 39.1446 31.2438 37.3112 31.16 37.0601C31.1296 36.9663 31.0801 36.9513 31.0496 37.0301Z" fill="#EA725D"/>
<path d="M38.2287 37.3975C38.0917 37.5287 37.6653 37.9786 37.2847 38.4022C36.4891 39.287 36.0971 39.662 35.8116 39.8269C35.4043 40.0594 35.0693 40.1156 33.6495 40.2018C32.6027 40.2656 32.0127 40.3855 31.4265 40.648L31.1943 40.7529L31.1029 41.2178C30.9811 41.8514 30.7451 42.7437 30.6081 43.0999L30.4939 43.3961L31.2057 43.3811L31.9175 43.3661L32.2563 43.2236C32.9491 42.9199 34.1672 42.1776 34.8676 41.6265C36.0895 40.6592 37.8062 38.7697 38.4038 37.7237C38.5332 37.4987 38.6056 37.165 38.5218 37.165C38.499 37.165 38.3657 37.27 38.2287 37.3975Z" fill="#EA725D"/>
<path d="M9.44012 38.1098C9.44393 38.7359 11.5109 41.1729 13.1477 42.4775C13.7757 42.9762 15.0243 43.741 15.6904 44.0334C16.1472 44.2321 16.4745 44.2846 17.2663 44.2884C17.8791 44.2884 17.9248 44.2846 18.0428 44.2021C18.7965 43.7035 17.9324 42.3051 16.3527 41.4615C15.7703 41.1504 15.5039 41.0941 14.1983 41.0266C12.2455 40.9254 12.1998 40.8992 10.5897 39.1033C9.91594 38.3535 9.67613 38.1098 9.52006 38.0273C9.44774 37.9898 9.44012 37.9973 9.44012 38.1098Z" fill="#EA725D"/>
<path d="M37.2238 39.7781C37.0601 39.9506 36.9078 40.1568 36.3749 40.9179C35.5946 42.0388 34.7686 42.9686 34.1481 43.4223C33.8094 43.6697 33.6228 43.7409 33.1699 43.8009C32.7435 43.8572 31.7006 43.8534 31.3618 43.7972C31.2057 43.7709 31.0344 43.7634 30.9811 43.7747C30.9316 43.7859 30.6918 43.9209 30.4558 44.0671L30.0219 44.3371L29.6488 45.0906C29.2339 45.9342 29.0512 46.3691 28.7543 47.2014L28.5488 47.775H28.7163C29.2454 47.775 30.2312 47.3664 30.7946 46.9202C30.9735 46.7777 31.4607 46.4253 31.8795 46.1441C33.2155 45.2331 33.6343 44.8994 34.3994 44.1346C35.8154 42.7174 37.1933 40.7079 37.3989 39.7594C37.4331 39.6019 37.3875 39.6057 37.2238 39.7781Z" fill="#EA725D"/>
<path d="M10.6011 40.5055C10.544 40.6517 10.9513 41.5215 11.4309 42.2863C11.8953 43.0212 12.6147 43.9397 13.3075 44.682C14.0612 45.4881 14.7121 46.0205 16.0139 46.909C16.4783 47.2277 16.9732 47.5764 17.114 47.6851C17.2549 47.7976 17.4338 47.9063 17.5061 47.9288C17.5898 47.955 18.138 47.9775 18.8764 47.9888L20.1059 48.0075L20.0907 47.5276C20.0755 47.0627 20.0717 47.0327 19.9384 46.759C19.8281 46.5378 19.7329 46.4141 19.4855 46.1854C19.1505 45.8705 18.2484 45.2631 17.7269 45.0007C17.2358 44.757 17.114 44.7383 15.9683 44.7008C14.9938 44.667 14.5294 44.6183 14.2591 44.5133C13.9128 44.3859 13.0525 43.6023 12.4777 42.9012C12.2036 42.5638 12.04 42.3426 11.2596 41.2478C10.8219 40.6367 10.6354 40.4268 10.6011 40.5055Z" fill="#EA725D"/>
</svg>
