<svg width="122" height="48" viewBox="0 0 122 48" fill="none" xmlns="http://www.w3.org/2000/svg">
<path d="M122 32.85V0H33.5729V32.85H41.8286V34.05H31.9218C31.9218 33.9 31.7383 33.9 31.7383 33.75V27C31.188 20.7 30.6376 14.4 30.2707 8.1C30.2707 7.35 29.3534 6.9 28.6196 6.9C24.9504 7.05 22.382 7.5 18.7128 9H15.0436C8.80601 9 5.13684 10.2 4.40301 12.45C4.03609 13.2 3.66917 14.25 3.30226 15.45C1.83459 19.05 0 24 0 26.4V33.9H0.733835L0 35.85V41.85L5.68722 43.05H12.1083L12.4752 42.75C12.8421 42.45 12.8421 42.45 13.209 42.3H13.3925C13.7594 43.65 14.4932 44.85 15.594 45.75C17.0617 46.95 19.2632 47.7 21.4647 47.7C23.6662 47.7 25.8677 46.95 27.3353 45.75C28.2526 45 28.9865 43.95 29.5368 42.75H32.8391V41.55H35.9579V39.75H36.6917V39.9C36.6917 40.8 37.609 41.7 38.8932 41.7C39.8105 41.7 40.5444 41.25 40.9113 40.65H43.4797C43.8466 41.25 44.5805 41.7 45.4977 41.7C46.5985 41.7 47.6992 40.95 47.6992 39.9V39.75H48.8V40.5C48.8 41.25 49.5338 41.7 50.2677 41.7H61.6421C62.5594 41.7 63.1098 41.1 63.1098 40.5V38.4H65.4947C65.1278 39.15 65.1278 40.2 65.1278 41.1V41.85H67.6962C67.8797 43.5 68.797 45 70.0812 46.05C71.5489 47.25 73.7504 48 75.9519 48C78.1534 48 80.3549 47.25 81.8226 46.05C83.2902 44.85 84.0241 43.5 84.2075 41.85H86.2256C86.409 43.5 87.3263 45 88.6105 46.05C90.0782 47.25 92.2797 48 94.4812 48C96.6827 48 98.8842 47.25 100.352 46.05C101.636 44.85 102.553 43.5 102.737 41.85H104.755V41.1C104.755 40.8 104.755 40.35 104.571 39.9H109.708L113.194 41.85V42.9H115.029V39H113.194V40.05L110.992 38.4H111.91V33.9H107.323V32.7L122 32.85ZM81.4556 34.05C80.3549 33.45 79.0707 33.15 77.603 32.85H92.4632C90.9955 33.15 89.7113 33.45 88.6105 34.05H81.4556ZM35.4075 1.2H120.349V31.5H35.4075V1.2ZM54.3038 32.85H73.5669C72.0992 33.15 70.815 33.45 69.7143 34.05H54.3038V32.85ZM14.8602 10.2H26.6015V30C25.5008 29.55 24.2165 29.25 22.9323 29.25H21.2812C15.594 29.25 10.2737 33 9.35639 37.35H3.85263V35.85H1.65113L3.1188 32.7H1.65113V31.35H2.75188V27H1.46767V26.4C1.46767 25.8 1.65113 25.2 1.83459 24.3C2.93534 24.15 3.85263 24 3.85263 24L6.78797 13.5H5.68722C5.87068 13.2 5.87068 12.9 6.05414 12.75C6.42105 10.95 9.72331 10.2 14.8602 10.2ZM3.85263 38.4H9.17293C9.17293 38.55 9.17293 38.7 9.17293 38.85V39.6H3.85263V38.4ZM1.46767 40.8V40.35H9.17293V41.7H5.87068C5.87068 41.85 1.46767 40.8 1.46767 40.8ZM21.4647 44.4C19.2632 44.4 17.4286 42.9 17.4286 41.1C17.4286 39.3 19.2632 37.8 21.4647 37.8C23.6662 37.8 25.5008 39.3 25.5008 41.1C25.5008 43.05 23.6662 44.4 21.4647 44.4ZM31.7383 42.15H30.2707V39C30.2707 35.25 26.6015 32.25 22.015 32.25H20.5474C15.2271 32.1 11.0075 35.7 11.0075 39.9V41.7H10.2737V38.7C10.2737 34.35 15.7774 30 21.4647 30H23.1158C27.3353 30 31.3714 33.15 31.9218 36.6C31.9218 36.75 31.9218 36.9 31.9218 37.05L31.7383 42.15ZM75.585 44.4C73.3835 44.4 71.5489 42.9 71.5489 41.1C71.5489 39.9 72.2827 39 73.2 38.4C73.3835 38.4 73.3835 38.25 73.5669 38.25C73.7504 38.1 73.9338 38.1 73.9338 37.95C74.1173 37.95 74.1173 37.8 74.3008 37.8C74.4842 37.8 74.6677 37.65 74.6677 37.65C74.6677 37.65 74.8511 37.65 75.0346 37.65C75.4015 37.65 75.585 37.5 75.7684 37.5C76.1353 37.5 76.3188 37.5 76.5023 37.65C76.6857 37.65 76.6857 37.65 76.8692 37.65C77.0526 37.65 77.2361 37.8 77.2361 37.8C77.2361 37.8 77.4195 37.95 77.603 37.95C77.7865 37.95 77.9699 38.1 77.9699 38.25C78.1534 38.25 78.1534 38.4 78.3368 38.4C79.2541 39 79.988 40.05 79.988 41.1C79.6211 43.05 77.7865 44.4 75.585 44.4ZM94.4812 44.4C92.2797 44.4 90.4451 42.9 90.4451 41.1C90.4451 39.9 91.179 39 92.0962 38.4C92.2797 38.4 92.2797 38.25 92.4632 38.25C92.6466 38.1 92.8301 38.1 92.8301 37.95C93.0135 37.95 93.0135 37.8 93.197 37.8C93.3805 37.8 93.5639 37.65 93.5639 37.65C93.5639 37.65 93.7474 37.65 93.9308 37.65C94.2977 37.65 94.4812 37.5 94.6647 37.5C94.8481 37.5 95.215 37.5 95.3985 37.65C95.582 37.65 95.582 37.65 95.7654 37.65C95.9489 37.65 96.1323 37.8 96.1323 37.8C96.1323 37.8 96.3158 37.95 96.4992 37.95C96.6827 37.95 96.8662 38.1 96.8662 38.25C97.0496 38.25 97.0496 38.4 97.2331 38.4C98.1504 39 98.8842 40.05 98.8842 41.1C98.5173 43.05 96.6827 44.4 94.4812 44.4ZM23.6662 41.25C23.6662 42.3 22.7489 43.05 21.4647 43.05C20.1805 43.05 19.2632 42.3 19.2632 41.25C19.2632 40.2 20.1805 39.45 21.4647 39.45C22.7489 39.45 23.6662 40.2 23.6662 41.25ZM15.9609 27H19.4466V27.9H15.9609V27ZM17.7955 21.9L6.60451 23.4L6.97143 22.2C7.33835 22.35 7.5218 22.5 7.88872 22.5H8.25564C9.17293 22.5 9.72331 21.9 9.72331 21.3V15.45C9.72331 15.15 9.53985 15 9.53985 14.85H19.0797V21C19.2632 21.3 18.7128 21.75 17.7955 21.9ZM7.15489 21V15.15C7.15489 14.85 7.5218 14.4 8.07218 14.4H8.4391C8.80602 14.4 9.35639 14.7 9.35639 15.15V21C9.35639 21.3 8.98947 21.75 8.4391 21.75H7.88872C7.5218 21.6 7.15489 21.45 7.15489 21ZM77.7865 41.25C77.7865 42.3 76.8692 43.05 75.585 43.05C74.3008 43.05 73.3835 42.3 73.3835 41.25C73.3835 40.2 74.3008 39.45 75.585 39.45C76.8692 39.45 77.7865 40.2 77.7865 41.25ZM96.6827 41.25C96.6827 42.3 95.7654 43.05 94.4812 43.05C93.197 43.05 92.2797 42.3 92.2797 41.25C92.2797 40.2 93.197 39.45 94.4812 39.45C95.7654 39.45 96.6827 40.2 96.6827 41.25Z" fill="#EA725D"/>
</svg>
